<?xml version="1.0" encoding="utf-8" standalone="no"?>
<!DOCTYPE svg PUBLIC "-//W3C//DTD SVG 1.1//EN"
  "http://www.w3.org/Graphics/SVG/1.1/DTD/svg11.dtd">
<svg xmlns:xlink="http://www.w3.org/1999/xlink" width="576pt" height="360pt" viewBox="0 0 576 360" xmlns="http://www.w3.org/2000/svg" version="1.1">
 <metadata>
  <rdf:RDF xmlns:dc="http://purl.org/dc/elements/1.1/" xmlns:cc="http://creativecommons.org/ns#" xmlns:rdf="http://www.w3.org/1999/02/22-rdf-syntax-ns#">
   <cc:Work>
    <dc:type rdf:resource="http://purl.org/dc/dcmitype/StillImage"/>
    <dc:date>2026-04-27T06:34:04.601144</dc:date>
    <dc:format>image/svg+xml</dc:format>
    <dc:creator>
     <cc:Agent>
      <dc:title>Matplotlib v3.10.9, https://matplotlib.org/</dc:title>
     </cc:Agent>
    </dc:creator>
   </cc:Work>
  </rdf:RDF>
 </metadata>
 <defs>
  <style type="text/css">*{stroke-linejoin: round; stroke-linecap: butt}</style>
 </defs>
 <g id="figure_1">
  <g id="patch_1">
   <path d="M 0 360 
L 576 360 
L 576 0 
L 0 0 
z
" style="fill: #ffffff"/>
  </g>
  <g id="axes_1">
   <g id="patch_2">
    <path d="M 45.94399 326.64351 
L 572.99976 326.64351 
L 572.99976 18.118365 
L 45.94399 18.118365 
z
" style="fill: #ffffff"/>
   </g>
   <g id="matplotlib.axis_1">
    <g id="xtick_1">
     <g id="line2d_1">
      <path d="M 121.237671 326.64351 
L 121.237671 18.118365 
" clip-path="url(#pf091bf3ec4)" style="fill: none; stroke: #b0b0b0; stroke-opacity: 0.3; stroke-width: 0.8; stroke-linecap: square"/>
     </g>
     <g id="line2d_2">
      <defs>
       <path id="mada8983d44" d="M 0 0 
L 0 3.5 
" style="stroke: #000000; stroke-width: 0.8"/>
      </defs>
      <g>
       <use xlink:href="#mada8983d44" x="121.237671" y="326.64351" style="stroke: #000000; stroke-width: 0.8"/>
      </g>
     </g>
     <g id="text_1">
      <!-- 500 -->
      <g transform="translate(111.693921 341.241947) scale(0.1 -0.1)">
       <defs>
        <path id="DejaVuSans-35" d="M 691 4666 
L 3169 4666 
L 3169 4134 
L 1269 4134 
L 1269 2991 
Q 1406 3038 1543 3061 
Q 1681 3084 1819 3084 
Q 2600 3084 3056 2656 
Q 3513 2228 3513 1497 
Q 3513 744 3044 326 
Q 2575 -91 1722 -91 
Q 1428 -91 1123 -41 
Q 819 9 494 109 
L 494 744 
Q 775 591 1075 516 
Q 1375 441 1709 441 
Q 2250 441 2565 725 
Q 2881 1009 2881 1497 
Q 2881 1984 2565 2268 
Q 2250 2553 1709 2553 
Q 1456 2553 1204 2497 
Q 953 2441 691 2322 
L 691 4666 
z
" transform="scale(0.015625)"/>
        <path id="DejaVuSans-30" d="M 2034 4250 
Q 1547 4250 1301 3770 
Q 1056 3291 1056 2328 
Q 1056 1369 1301 889 
Q 1547 409 2034 409 
Q 2525 409 2770 889 
Q 3016 1369 3016 2328 
Q 3016 3291 2770 3770 
Q 2525 4250 2034 4250 
z
M 2034 4750 
Q 2819 4750 3233 4129 
Q 3647 3509 3647 2328 
Q 3647 1150 3233 529 
Q 2819 -91 2034 -91 
Q 1250 -91 836 529 
Q 422 1150 422 2328 
Q 422 3509 836 4129 
Q 1250 4750 2034 4750 
z
" transform="scale(0.015625)"/>
       </defs>
       <use xlink:href="#DejaVuSans-35"/>
       <use xlink:href="#DejaVuSans-30" transform="translate(63.623047 0)"/>
       <use xlink:href="#DejaVuSans-30" transform="translate(127.246094 0)"/>
      </g>
     </g>
    </g>
    <g id="xtick_2">
     <g id="line2d_3">
      <path d="M 206.798673 326.64351 
L 206.798673 18.118365 
" clip-path="url(#pf091bf3ec4)" style="fill: none; stroke: #b0b0b0; stroke-opacity: 0.3; stroke-width: 0.8; stroke-linecap: square"/>
     </g>
     <g id="line2d_4">
      <g>
       <use xlink:href="#mada8983d44" x="206.798673" y="326.64351" style="stroke: #000000; stroke-width: 0.8"/>
      </g>
     </g>
     <g id="text_2">
      <!-- 1000 -->
      <g transform="translate(194.073673 341.241947) scale(0.1 -0.1)">
       <defs>
        <path id="DejaVuSans-31" d="M 794 531 
L 1825 531 
L 1825 4091 
L 703 3866 
L 703 4441 
L 1819 4666 
L 2450 4666 
L 2450 531 
L 3481 531 
L 3481 0 
L 794 0 
L 794 531 
z
" transform="scale(0.015625)"/>
       </defs>
       <use xlink:href="#DejaVuSans-31"/>
       <use xlink:href="#DejaVuSans-30" transform="translate(63.623047 0)"/>
       <use xlink:href="#DejaVuSans-30" transform="translate(127.246094 0)"/>
       <use xlink:href="#DejaVuSans-30" transform="translate(190.869141 0)"/>
      </g>
     </g>
    </g>
    <g id="xtick_3">
     <g id="line2d_5">
      <path d="M 292.359675 326.64351 
L 292.359675 18.118365 
" clip-path="url(#pf091bf3ec4)" style="fill: none; stroke: #b0b0b0; stroke-opacity: 0.3; stroke-width: 0.8; stroke-linecap: square"/>
     </g>
     <g id="line2d_6">
      <g>
       <use xlink:href="#mada8983d44" x="292.359675" y="326.64351" style="stroke: #000000; stroke-width: 0.8"/>
      </g>
     </g>
     <g id="text_3">
      <!-- 1500 -->
      <g transform="translate(279.634675 341.241947) scale(0.1 -0.1)">
       <use xlink:href="#DejaVuSans-31"/>
       <use xlink:href="#DejaVuSans-35" transform="translate(63.623047 0)"/>
       <use xlink:href="#DejaVuSans-30" transform="translate(127.246094 0)"/>
       <use xlink:href="#DejaVuSans-30" transform="translate(190.869141 0)"/>
      </g>
     </g>
    </g>
    <g id="xtick_4">
     <g id="line2d_7">
      <path d="M 377.920676 326.64351 
L 377.920676 18.118365 
" clip-path="url(#pf091bf3ec4)" style="fill: none; stroke: #b0b0b0; stroke-opacity: 0.3; stroke-width: 0.8; stroke-linecap: square"/>
     </g>
     <g id="line2d_8">
      <g>
       <use xlink:href="#mada8983d44" x="377.920676" y="326.64351" style="stroke: #000000; stroke-width: 0.8"/>
      </g>
     </g>
     <g id="text_4">
      <!-- 2000 -->
      <g transform="translate(365.195676 341.241947) scale(0.1 -0.1)">
       <defs>
        <path id="DejaVuSans-32" d="M 1228 531 
L 3431 531 
L 3431 0 
L 469 0 
L 469 531 
Q 828 903 1448 1529 
Q 2069 2156 2228 2338 
Q 2531 2678 2651 2914 
Q 2772 3150 2772 3378 
Q 2772 3750 2511 3984 
Q 2250 4219 1831 4219 
Q 1534 4219 1204 4116 
Q 875 4013 500 3803 
L 500 4441 
Q 881 4594 1212 4672 
Q 1544 4750 1819 4750 
Q 2544 4750 2975 4387 
Q 3406 4025 3406 3419 
Q 3406 3131 3298 2873 
Q 3191 2616 2906 2266 
Q 2828 2175 2409 1742 
Q 1991 1309 1228 531 
z
" transform="scale(0.015625)"/>
       </defs>
       <use xlink:href="#DejaVuSans-32"/>
       <use xlink:href="#DejaVuSans-30" transform="translate(63.623047 0)"/>
       <use xlink:href="#DejaVuSans-30" transform="translate(127.246094 0)"/>
       <use xlink:href="#DejaVuSans-30" transform="translate(190.869141 0)"/>
      </g>
     </g>
    </g>
    <g id="xtick_5">
     <g id="line2d_9">
      <path d="M 463.481678 326.64351 
L 463.481678 18.118365 
" clip-path="url(#pf091bf3ec4)" style="fill: none; stroke: #b0b0b0; stroke-opacity: 0.3; stroke-width: 0.8; stroke-linecap: square"/>
     </g>
     <g id="line2d_10">
      <g>
       <use xlink:href="#mada8983d44" x="463.481678" y="326.64351" style="stroke: #000000; stroke-width: 0.8"/>
      </g>
     </g>
     <g id="text_5">
      <!-- 2500 -->
      <g transform="translate(450.756678 341.241947) scale(0.1 -0.1)">
       <use xlink:href="#DejaVuSans-32"/>
       <use xlink:href="#DejaVuSans-35" transform="translate(63.623047 0)"/>
       <use xlink:href="#DejaVuSans-30" transform="translate(127.246094 0)"/>
       <use xlink:href="#DejaVuSans-30" transform="translate(190.869141 0)"/>
      </g>
     </g>
    </g>
    <g id="xtick_6">
     <g id="line2d_11">
      <path d="M 549.04268 326.64351 
L 549.04268 18.118365 
" clip-path="url(#pf091bf3ec4)" style="fill: none; stroke: #b0b0b0; stroke-opacity: 0.3; stroke-width: 0.8; stroke-linecap: square"/>
     </g>
     <g id="line2d_12">
      <g>
       <use xlink:href="#mada8983d44" x="549.04268" y="326.64351" style="stroke: #000000; stroke-width: 0.8"/>
      </g>
     </g>
     <g id="text_6">
      <!-- 3000 -->
      <g transform="translate(536.31768 341.241947) scale(0.1 -0.1)">
       <defs>
        <path id="DejaVuSans-33" d="M 2597 2516 
Q 3050 2419 3304 2112 
Q 3559 1806 3559 1356 
Q 3559 666 3084 287 
Q 2609 -91 1734 -91 
Q 1441 -91 1130 -33 
Q 819 25 488 141 
L 488 750 
Q 750 597 1062 519 
Q 1375 441 1716 441 
Q 2309 441 2620 675 
Q 2931 909 2931 1356 
Q 2931 1769 2642 2001 
Q 2353 2234 1838 2234 
L 1294 2234 
L 1294 2753 
L 1863 2753 
Q 2328 2753 2575 2939 
Q 2822 3125 2822 3475 
Q 2822 3834 2567 4026 
Q 2313 4219 1838 4219 
Q 1578 4219 1281 4162 
Q 984 4106 628 3988 
L 628 4550 
Q 988 4650 1302 4700 
Q 1616 4750 1894 4750 
Q 2613 4750 3031 4423 
Q 3450 4097 3450 3541 
Q 3450 3153 3228 2886 
Q 3006 2619 2597 2516 
z
" transform="scale(0.015625)"/>
       </defs>
       <use xlink:href="#DejaVuSans-33"/>
       <use xlink:href="#DejaVuSans-30" transform="translate(63.623047 0)"/>
       <use xlink:href="#DejaVuSans-30" transform="translate(127.246094 0)"/>
       <use xlink:href="#DejaVuSans-30" transform="translate(190.869141 0)"/>
      </g>
     </g>
    </g>
    <g id="text_7">
     <!-- step -->
     <g transform="translate(298.65625 354.920073) scale(0.1 -0.1)">
      <defs>
       <path id="DejaVuSans-73" d="M 2834 3397 
L 2834 2853 
Q 2591 2978 2328 3040 
Q 2066 3103 1784 3103 
Q 1356 3103 1142 2972 
Q 928 2841 928 2578 
Q 928 2378 1081 2264 
Q 1234 2150 1697 2047 
L 1894 2003 
Q 2506 1872 2764 1633 
Q 3022 1394 3022 966 
Q 3022 478 2636 193 
Q 2250 -91 1575 -91 
Q 1294 -91 989 -36 
Q 684 19 347 128 
L 347 722 
Q 666 556 975 473 
Q 1284 391 1588 391 
Q 1994 391 2212 530 
Q 2431 669 2431 922 
Q 2431 1156 2273 1281 
Q 2116 1406 1581 1522 
L 1381 1569 
Q 847 1681 609 1914 
Q 372 2147 372 2553 
Q 372 3047 722 3315 
Q 1072 3584 1716 3584 
Q 2034 3584 2315 3537 
Q 2597 3491 2834 3397 
z
" transform="scale(0.015625)"/>
       <path id="DejaVuSans-74" d="M 1172 4494 
L 1172 3500 
L 2356 3500 
L 2356 3053 
L 1172 3053 
L 1172 1153 
Q 1172 725 1289 603 
Q 1406 481 1766 481 
L 2356 481 
L 2356 0 
L 1766 0 
Q 1100 0 847 248 
Q 594 497 594 1153 
L 594 3053 
L 172 3053 
L 172 3500 
L 594 3500 
L 594 4494 
L 1172 4494 
z
" transform="scale(0.015625)"/>
       <path id="DejaVuSans-65" d="M 3597 1894 
L 3597 1613 
L 953 1613 
Q 991 1019 1311 708 
Q 1631 397 2203 397 
Q 2534 397 2845 478 
Q 3156 559 3463 722 
L 3463 178 
Q 3153 47 2828 -22 
Q 2503 -91 2169 -91 
Q 1331 -91 842 396 
Q 353 884 353 1716 
Q 353 2575 817 3079 
Q 1281 3584 2069 3584 
Q 2775 3584 3186 3129 
Q 3597 2675 3597 1894 
z
M 3022 2063 
Q 3016 2534 2758 2815 
Q 2500 3097 2075 3097 
Q 1594 3097 1305 2825 
Q 1016 2553 972 2059 
L 3022 2063 
z
" transform="scale(0.015625)"/>
       <path id="DejaVuSans-70" d="M 1159 525 
L 1159 -1331 
L 581 -1331 
L 581 3500 
L 1159 3500 
L 1159 2969 
Q 1341 3281 1617 3432 
Q 1894 3584 2278 3584 
Q 2916 3584 3314 3078 
Q 3713 2572 3713 1747 
Q 3713 922 3314 415 
Q 2916 -91 2278 -91 
Q 1894 -91 1617 61 
Q 1341 213 1159 525 
z
M 3116 1747 
Q 3116 2381 2855 2742 
Q 2594 3103 2138 3103 
Q 1681 3103 1420 2742 
Q 1159 2381 1159 1747 
Q 1159 1113 1420 752 
Q 1681 391 2138 391 
Q 2594 391 2855 752 
Q 3116 1113 3116 1747 
z
" transform="scale(0.015625)"/>
      </defs>
      <use xlink:href="#DejaVuSans-73"/>
      <use xlink:href="#DejaVuSans-74" transform="translate(52.099609 0)"/>
      <use xlink:href="#DejaVuSans-65" transform="translate(91.308594 0)"/>
      <use xlink:href="#DejaVuSans-70" transform="translate(152.832031 0)"/>
     </g>
    </g>
   </g>
   <g id="matplotlib.axis_2">
    <g id="ytick_1">
     <g id="line2d_13">
      <path d="M 45.94399 325.555799 
L 572.99976 325.555799 
" clip-path="url(#pf091bf3ec4)" style="fill: none; stroke: #b0b0b0; stroke-opacity: 0.3; stroke-width: 0.8; stroke-linecap: square"/>
     </g>
     <g id="line2d_14">
      <defs>
       <path id="m86c6f5da01" d="M 0 0 
L -3.5 0 
" style="stroke: #000000; stroke-width: 0.8"/>
      </defs>
      <g>
       <use xlink:href="#m86c6f5da01" x="45.94399" y="325.555799" style="stroke: #000000; stroke-width: 0.8"/>
      </g>
     </g>
     <g id="text_8">
      <!-- 1.50 -->
      <g transform="translate(16.678365 329.355018) scale(0.1 -0.1)">
       <defs>
        <path id="DejaVuSans-2e" d="M 684 794 
L 1344 794 
L 1344 0 
L 684 0 
L 684 794 
z
" transform="scale(0.015625)"/>
       </defs>
       <use xlink:href="#DejaVuSans-31"/>
       <use xlink:href="#DejaVuSans-2e" transform="translate(63.623047 0)"/>
       <use xlink:href="#DejaVuSans-35" transform="translate(95.410156 0)"/>
       <use xlink:href="#DejaVuSans-30" transform="translate(159.033203 0)"/>
      </g>
     </g>
    </g>
    <g id="ytick_2">
     <g id="line2d_15">
      <path d="M 45.94399 287.704209 
L 572.99976 287.704209 
" clip-path="url(#pf091bf3ec4)" style="fill: none; stroke: #b0b0b0; stroke-opacity: 0.3; stroke-width: 0.8; stroke-linecap: square"/>
     </g>
     <g id="line2d_16">
      <g>
       <use xlink:href="#m86c6f5da01" x="45.94399" y="287.704209" style="stroke: #000000; stroke-width: 0.8"/>
      </g>
     </g>
     <g id="text_9">
      <!-- 1.75 -->
      <g transform="translate(16.678365 291.503428) scale(0.1 -0.1)">
       <defs>
        <path id="DejaVuSans-37" d="M 525 4666 
L 3525 4666 
L 3525 4397 
L 1831 0 
L 1172 0 
L 2766 4134 
L 525 4134 
L 525 4666 
z
" transform="scale(0.015625)"/>
       </defs>
       <use xlink:href="#DejaVuSans-31"/>
       <use xlink:href="#DejaVuSans-2e" transform="translate(63.623047 0)"/>
       <use xlink:href="#DejaVuSans-37" transform="translate(95.410156 0)"/>
       <use xlink:href="#DejaVuSans-35" transform="translate(159.033203 0)"/>
      </g>
     </g>
    </g>
    <g id="ytick_3">
     <g id="line2d_17">
      <path d="M 45.94399 249.852619 
L 572.99976 249.852619 
" clip-path="url(#pf091bf3ec4)" style="fill: none; stroke: #b0b0b0; stroke-opacity: 0.3; stroke-width: 0.8; stroke-linecap: square"/>
     </g>
     <g id="line2d_18">
      <g>
       <use xlink:href="#m86c6f5da01" x="45.94399" y="249.852619" style="stroke: #000000; stroke-width: 0.8"/>
      </g>
     </g>
     <g id="text_10">
      <!-- 2.00 -->
      <g transform="translate(16.678365 253.651838) scale(0.1 -0.1)">
       <use xlink:href="#DejaVuSans-32"/>
       <use xlink:href="#DejaVuSans-2e" transform="translate(63.623047 0)"/>
       <use xlink:href="#DejaVuSans-30" transform="translate(95.410156 0)"/>
       <use xlink:href="#DejaVuSans-30" transform="translate(159.033203 0)"/>
      </g>
     </g>
    </g>
    <g id="ytick_4">
     <g id="line2d_19">
      <path d="M 45.94399 212.001029 
L 572.99976 212.001029 
" clip-path="url(#pf091bf3ec4)" style="fill: none; stroke: #b0b0b0; stroke-opacity: 0.3; stroke-width: 0.8; stroke-linecap: square"/>
     </g>
     <g id="line2d_20">
      <g>
       <use xlink:href="#m86c6f5da01" x="45.94399" y="212.001029" style="stroke: #000000; stroke-width: 0.8"/>
      </g>
     </g>
     <g id="text_11">
      <!-- 2.25 -->
      <g transform="translate(16.678365 215.800248) scale(0.1 -0.1)">
       <use xlink:href="#DejaVuSans-32"/>
       <use xlink:href="#DejaVuSans-2e" transform="translate(63.623047 0)"/>
       <use xlink:href="#DejaVuSans-32" transform="translate(95.410156 0)"/>
       <use xlink:href="#DejaVuSans-35" transform="translate(159.033203 0)"/>
      </g>
     </g>
    </g>
    <g id="ytick_5">
     <g id="line2d_21">
      <path d="M 45.94399 174.149439 
L 572.99976 174.149439 
" clip-path="url(#pf091bf3ec4)" style="fill: none; stroke: #b0b0b0; stroke-opacity: 0.3; stroke-width: 0.8; stroke-linecap: square"/>
     </g>
     <g id="line2d_22">
      <g>
       <use xlink:href="#m86c6f5da01" x="45.94399" y="174.149439" style="stroke: #000000; stroke-width: 0.8"/>
      </g>
     </g>
     <g id="text_12">
      <!-- 2.50 -->
      <g transform="translate(16.678365 177.948658) scale(0.1 -0.1)">
       <use xlink:href="#DejaVuSans-32"/>
       <use xlink:href="#DejaVuSans-2e" transform="translate(63.623047 0)"/>
       <use xlink:href="#DejaVuSans-35" transform="translate(95.410156 0)"/>
       <use xlink:href="#DejaVuSans-30" transform="translate(159.033203 0)"/>
      </g>
     </g>
    </g>
    <g id="ytick_6">
     <g id="line2d_23">
      <path d="M 45.94399 136.29785 
L 572.99976 136.29785 
" clip-path="url(#pf091bf3ec4)" style="fill: none; stroke: #b0b0b0; stroke-opacity: 0.3; stroke-width: 0.8; stroke-linecap: square"/>
     </g>
     <g id="line2d_24">
      <g>
       <use xlink:href="#m86c6f5da01" x="45.94399" y="136.29785" style="stroke: #000000; stroke-width: 0.8"/>
      </g>
     </g>
     <g id="text_13">
      <!-- 2.75 -->
      <g transform="translate(16.678365 140.097068) scale(0.1 -0.1)">
       <use xlink:href="#DejaVuSans-32"/>
       <use xlink:href="#DejaVuSans-2e" transform="translate(63.623047 0)"/>
       <use xlink:href="#DejaVuSans-37" transform="translate(95.410156 0)"/>
       <use xlink:href="#DejaVuSans-35" transform="translate(159.033203 0)"/>
      </g>
     </g>
    </g>
    <g id="ytick_7">
     <g id="line2d_25">
      <path d="M 45.94399 98.44626 
L 572.99976 98.44626 
" clip-path="url(#pf091bf3ec4)" style="fill: none; stroke: #b0b0b0; stroke-opacity: 0.3; stroke-width: 0.8; stroke-linecap: square"/>
     </g>
     <g id="line2d_26">
      <g>
       <use xlink:href="#m86c6f5da01" x="45.94399" y="98.44626" style="stroke: #000000; stroke-width: 0.8"/>
      </g>
     </g>
     <g id="text_14">
      <!-- 3.00 -->
      <g transform="translate(16.678365 102.245478) scale(0.1 -0.1)">
       <use xlink:href="#DejaVuSans-33"/>
       <use xlink:href="#DejaVuSans-2e" transform="translate(63.623047 0)"/>
       <use xlink:href="#DejaVuSans-30" transform="translate(95.410156 0)"/>
       <use xlink:href="#DejaVuSans-30" transform="translate(159.033203 0)"/>
      </g>
     </g>
    </g>
    <g id="ytick_8">
     <g id="line2d_27">
      <path d="M 45.94399 60.59467 
L 572.99976 60.59467 
" clip-path="url(#pf091bf3ec4)" style="fill: none; stroke: #b0b0b0; stroke-opacity: 0.3; stroke-width: 0.8; stroke-linecap: square"/>
     </g>
     <g id="line2d_28">
      <g>
       <use xlink:href="#m86c6f5da01" x="45.94399" y="60.59467" style="stroke: #000000; stroke-width: 0.8"/>
      </g>
     </g>
     <g id="text_15">
      <!-- 3.25 -->
      <g transform="translate(16.678365 64.393888) scale(0.1 -0.1)">
       <use xlink:href="#DejaVuSans-33"/>
       <use xlink:href="#DejaVuSans-2e" transform="translate(63.623047 0)"/>
       <use xlink:href="#DejaVuSans-32" transform="translate(95.410156 0)"/>
       <use xlink:href="#DejaVuSans-35" transform="translate(159.033203 0)"/>
      </g>
     </g>
    </g>
    <g id="ytick_9">
     <g id="line2d_29">
      <path d="M 45.94399 22.74308 
L 572.99976 22.74308 
" clip-path="url(#pf091bf3ec4)" style="fill: none; stroke: #b0b0b0; stroke-opacity: 0.3; stroke-width: 0.8; stroke-linecap: square"/>
     </g>
     <g id="line2d_30">
      <g>
       <use xlink:href="#m86c6f5da01" x="45.94399" y="22.74308" style="stroke: #000000; stroke-width: 0.8"/>
      </g>
     </g>
     <g id="text_16">
      <!-- 3.50 -->
      <g transform="translate(16.678365 26.542299) scale(0.1 -0.1)">
       <use xlink:href="#DejaVuSans-33"/>
       <use xlink:href="#DejaVuSans-2e" transform="translate(63.623047 0)"/>
       <use xlink:href="#DejaVuSans-35" transform="translate(95.410156 0)"/>
       <use xlink:href="#DejaVuSans-30" transform="translate(159.033203 0)"/>
      </g>
     </g>
    </g>
    <g id="text_17">
     <!-- validation loss -->
     <g transform="translate(10.598677 208.245) rotate(-90) scale(0.1 -0.1)">
      <defs>
       <path id="DejaVuSans-76" d="M 191 3500 
L 800 3500 
L 1894 563 
L 2988 3500 
L 3597 3500 
L 2284 0 
L 1503 0 
L 191 3500 
z
" transform="scale(0.015625)"/>
       <path id="DejaVuSans-61" d="M 2194 1759 
Q 1497 1759 1228 1600 
Q 959 1441 959 1056 
Q 959 750 1161 570 
Q 1363 391 1709 391 
Q 2188 391 2477 730 
Q 2766 1069 2766 1631 
L 2766 1759 
L 2194 1759 
z
M 3341 1997 
L 3341 0 
L 2766 0 
L 2766 531 
Q 2569 213 2275 61 
Q 1981 -91 1556 -91 
Q 1019 -91 701 211 
Q 384 513 384 1019 
Q 384 1609 779 1909 
Q 1175 2209 1959 2209 
L 2766 2209 
L 2766 2266 
Q 2766 2663 2505 2880 
Q 2244 3097 1772 3097 
Q 1472 3097 1187 3025 
Q 903 2953 641 2809 
L 641 3341 
Q 956 3463 1253 3523 
Q 1550 3584 1831 3584 
Q 2591 3584 2966 3190 
Q 3341 2797 3341 1997 
z
" transform="scale(0.015625)"/>
       <path id="DejaVuSans-6c" d="M 603 4863 
L 1178 4863 
L 1178 0 
L 603 0 
L 603 4863 
z
" transform="scale(0.015625)"/>
       <path id="DejaVuSans-69" d="M 603 3500 
L 1178 3500 
L 1178 0 
L 603 0 
L 603 3500 
z
M 603 4863 
L 1178 4863 
L 1178 4134 
L 603 4134 
L 603 4863 
z
" transform="scale(0.015625)"/>
       <path id="DejaVuSans-64" d="M 2906 2969 
L 2906 4863 
L 3481 4863 
L 3481 0 
L 2906 0 
L 2906 525 
Q 2725 213 2448 61 
Q 2172 -91 1784 -91 
Q 1150 -91 751 415 
Q 353 922 353 1747 
Q 353 2572 751 3078 
Q 1150 3584 1784 3584 
Q 2172 3584 2448 3432 
Q 2725 3281 2906 2969 
z
M 947 1747 
Q 947 1113 1208 752 
Q 1469 391 1925 391 
Q 2381 391 2643 752 
Q 2906 1113 2906 1747 
Q 2906 2381 2643 2742 
Q 2381 3103 1925 3103 
Q 1469 3103 1208 2742 
Q 947 2381 947 1747 
z
" transform="scale(0.015625)"/>
       <path id="DejaVuSans-6f" d="M 1959 3097 
Q 1497 3097 1228 2736 
Q 959 2375 959 1747 
Q 959 1119 1226 758 
Q 1494 397 1959 397 
Q 2419 397 2687 759 
Q 2956 1122 2956 1747 
Q 2956 2369 2687 2733 
Q 2419 3097 1959 3097 
z
M 1959 3584 
Q 2709 3584 3137 3096 
Q 3566 2609 3566 1747 
Q 3566 888 3137 398 
Q 2709 -91 1959 -91 
Q 1206 -91 779 398 
Q 353 888 353 1747 
Q 353 2609 779 3096 
Q 1206 3584 1959 3584 
z
" transform="scale(0.015625)"/>
       <path id="DejaVuSans-6e" d="M 3513 2113 
L 3513 0 
L 2938 0 
L 2938 2094 
Q 2938 2591 2744 2837 
Q 2550 3084 2163 3084 
Q 1697 3084 1428 2787 
Q 1159 2491 1159 1978 
L 1159 0 
L 581 0 
L 581 3500 
L 1159 3500 
L 1159 2956 
Q 1366 3272 1645 3428 
Q 1925 3584 2291 3584 
Q 2894 3584 3203 3211 
Q 3513 2838 3513 2113 
z
" transform="scale(0.015625)"/>
       <path id="DejaVuSans-20" transform="scale(0.015625)"/>
      </defs>
      <use xlink:href="#DejaVuSans-76"/>
      <use xlink:href="#DejaVuSans-61" transform="translate(59.179688 0)"/>
      <use xlink:href="#DejaVuSans-6c" transform="translate(120.458984 0)"/>
      <use xlink:href="#DejaVuSans-69" transform="translate(148.242188 0)"/>
      <use xlink:href="#DejaVuSans-64" transform="translate(176.025391 0)"/>
      <use xlink:href="#DejaVuSans-61" transform="translate(239.501953 0)"/>
      <use xlink:href="#DejaVuSans-74" transform="translate(300.78125 0)"/>
      <use xlink:href="#DejaVuSans-69" transform="translate(339.990234 0)"/>
      <use xlink:href="#DejaVuSans-6f" transform="translate(367.773438 0)"/>
      <use xlink:href="#DejaVuSans-6e" transform="translate(428.955078 0)"/>
      <use xlink:href="#DejaVuSans-20" transform="translate(492.333984 0)"/>
      <use xlink:href="#DejaVuSans-6c" transform="translate(524.121094 0)"/>
      <use xlink:href="#DejaVuSans-6f" transform="translate(551.904297 0)"/>
      <use xlink:href="#DejaVuSans-73" transform="translate(613.085938 0)"/>
      <use xlink:href="#DejaVuSans-73" transform="translate(665.185547 0)"/>
     </g>
    </g>
   </g>
   <g id="line2d_31">
    <path d="M 69.90107 107.294447 
L 104.125471 170.812292 
L 138.349872 202.698168 
L 172.574272 224.18697 
L 206.798673 238.620539 
L 241.023074 249.752691 
L 275.247474 260.948132 
L 309.471875 263.832877 
L 343.696276 273.391766 
L 377.920676 275.457403 
L 412.145077 280.995696 
L 446.369478 284.283485 
L 480.593878 286.95823 
L 514.818279 291.351588 
L 549.04268 292.661253 
" clip-path="url(#pf091bf3ec4)" style="fill: none; stroke: #1f77b4; stroke-width: 1.2; stroke-linecap: square"/>
    <defs>
     <path id="m8edf03a74e" d="M 0 1.5 
C 0.397805 1.5 0.77937 1.341951 1.06066 1.06066 
C 1.341951 0.77937 1.5 0.397805 1.5 0 
C 1.5 -0.397805 1.341951 -0.77937 1.06066 -1.06066 
C 0.77937 -1.341951 0.397805 -1.5 0 -1.5 
C -0.397805 -1.5 -0.77937 -1.341951 -1.06066 -1.06066 
C -1.341951 -0.77937 -1.5 -0.397805 -1.5 0 
C -1.5 0.397805 -1.341951 0.77937 -1.06066 1.06066 
C -0.77937 1.341951 -0.397805 1.5 0 1.5 
z
" style="stroke: #1f77b4"/>
    </defs>
    <g clip-path="url(#pf091bf3ec4)">
     <use xlink:href="#m8edf03a74e" x="69.90107" y="107.294447" style="fill: #1f77b4; stroke: #1f77b4"/>
     <use xlink:href="#m8edf03a74e" x="104.125471" y="170.812292" style="fill: #1f77b4; stroke: #1f77b4"/>
     <use xlink:href="#m8edf03a74e" x="138.349872" y="202.698168" style="fill: #1f77b4; stroke: #1f77b4"/>
     <use xlink:href="#m8edf03a74e" x="172.574272" y="224.18697" style="fill: #1f77b4; stroke: #1f77b4"/>
     <use xlink:href="#m8edf03a74e" x="206.798673" y="238.620539" style="fill: #1f77b4; stroke: #1f77b4"/>
     <use xlink:href="#m8edf03a74e" x="241.023074" y="249.752691" style="fill: #1f77b4; stroke: #1f77b4"/>
     <use xlink:href="#m8edf03a74e" x="275.247474" y="260.948132" style="fill: #1f77b4; stroke: #1f77b4"/>
     <use xlink:href="#m8edf03a74e" x="309.471875" y="263.832877" style="fill: #1f77b4; stroke: #1f77b4"/>
     <use xlink:href="#m8edf03a74e" x="343.696276" y="273.391766" style="fill: #1f77b4; stroke: #1f77b4"/>
     <use xlink:href="#m8edf03a74e" x="377.920676" y="275.457403" style="fill: #1f77b4; stroke: #1f77b4"/>
     <use xlink:href="#m8edf03a74e" x="412.145077" y="280.995696" style="fill: #1f77b4; stroke: #1f77b4"/>
     <use xlink:href="#m8edf03a74e" x="446.369478" y="284.283485" style="fill: #1f77b4; stroke: #1f77b4"/>
     <use xlink:href="#m8edf03a74e" x="480.593878" y="286.95823" style="fill: #1f77b4; stroke: #1f77b4"/>
     <use xlink:href="#m8edf03a74e" x="514.818279" y="291.351588" style="fill: #1f77b4; stroke: #1f77b4"/>
     <use xlink:href="#m8edf03a74e" x="549.04268" y="292.661253" style="fill: #1f77b4; stroke: #1f77b4"/>
    </g>
   </g>
   <g id="line2d_32">
    <path d="M 69.90107 178.591248 
L 104.125471 232.342474 
L 138.349872 255.806372 
L 172.574272 269.046404 
L 206.798673 276.782209 
L 241.023074 283.004253 
L 275.247474 290.311881 
L 309.471875 291.375359 
L 343.696276 298.797148 
L 377.920676 299.359319 
L 412.145077 303.196562 
L 446.369478 305.476591 
L 480.593878 306.682542 
L 514.818279 310.442416 
L 549.04268 311.012158 
" clip-path="url(#pf091bf3ec4)" style="fill: none; stroke: #ff7f0e; stroke-width: 1.2; stroke-linecap: square"/>
    <defs>
     <path id="m1bae17f4dd" d="M 0 1.5 
C 0.397805 1.5 0.77937 1.341951 1.06066 1.06066 
C 1.341951 0.77937 1.5 0.397805 1.5 0 
C 1.5 -0.397805 1.341951 -0.77937 1.06066 -1.06066 
C 0.77937 -1.341951 0.397805 -1.5 0 -1.5 
C -0.397805 -1.5 -0.77937 -1.341951 -1.06066 -1.06066 
C -1.341951 -0.77937 -1.5 -0.397805 -1.5 0 
C -1.5 0.397805 -1.341951 0.77937 -1.06066 1.06066 
C -0.77937 1.341951 -0.397805 1.5 0 1.5 
z
" style="stroke: #ff7f0e"/>
    </defs>
    <g clip-path="url(#pf091bf3ec4)">
     <use xlink:href="#m1bae17f4dd" x="69.90107" y="178.591248" style="fill: #ff7f0e; stroke: #ff7f0e"/>
     <use xlink:href="#m1bae17f4dd" x="104.125471" y="232.342474" style="fill: #ff7f0e; stroke: #ff7f0e"/>
     <use xlink:href="#m1bae17f4dd" x="138.349872" y="255.806372" style="fill: #ff7f0e; stroke: #ff7f0e"/>
     <use xlink:href="#m1bae17f4dd" x="172.574272" y="269.046404" style="fill: #ff7f0e; stroke: #ff7f0e"/>
     <use xlink:href="#m1bae17f4dd" x="206.798673" y="276.782209" style="fill: #ff7f0e; stroke: #ff7f0e"/>
     <use xlink:href="#m1bae17f4dd" x="241.023074" y="283.004253" style="fill: #ff7f0e; stroke: #ff7f0e"/>
     <use xlink:href="#m1bae17f4dd" x="275.247474" y="290.311881" style="fill: #ff7f0e; stroke: #ff7f0e"/>
     <use xlink:href="#m1bae17f4dd" x="309.471875" y="291.375359" style="fill: #ff7f0e; stroke: #ff7f0e"/>
     <use xlink:href="#m1bae17f4dd" x="343.696276" y="298.797148" style="fill: #ff7f0e; stroke: #ff7f0e"/>
     <use xlink:href="#m1bae17f4dd" x="377.920676" y="299.359319" style="fill: #ff7f0e; stroke: #ff7f0e"/>
     <use xlink:href="#m1bae17f4dd" x="412.145077" y="303.196562" style="fill: #ff7f0e; stroke: #ff7f0e"/>
     <use xlink:href="#m1bae17f4dd" x="446.369478" y="305.476591" style="fill: #ff7f0e; stroke: #ff7f0e"/>
     <use xlink:href="#m1bae17f4dd" x="480.593878" y="306.682542" style="fill: #ff7f0e; stroke: #ff7f0e"/>
     <use xlink:href="#m1bae17f4dd" x="514.818279" y="310.442416" style="fill: #ff7f0e; stroke: #ff7f0e"/>
     <use xlink:href="#m1bae17f4dd" x="549.04268" y="311.012158" style="fill: #ff7f0e; stroke: #ff7f0e"/>
    </g>
   </g>
   <g id="line2d_33">
    <path d="M 69.90107 190.74176 
L 104.125471 240.831374 
L 138.349872 260.786884 
L 172.574272 273.035961 
L 206.798673 280.273488 
L 241.023074 286.164861 
L 275.247474 293.19375 
L 309.471875 293.963651 
L 343.696276 300.872626 
L 377.920676 301.412692 
L 412.145077 305.600744 
L 446.369478 307.315572 
L 480.593878 308.565886 
L 514.818279 312.032183 
L 549.04268 312.61964 
" clip-path="url(#pf091bf3ec4)" style="fill: none; stroke: #2ca02c; stroke-width: 1.2; stroke-linecap: square"/>
    <defs>
     <path id="mb52919ac53" d="M 0 1.5 
C 0.397805 1.5 0.77937 1.341951 1.06066 1.06066 
C 1.341951 0.77937 1.5 0.397805 1.5 0 
C 1.5 -0.397805 1.341951 -0.77937 1.06066 -1.06066 
C 0.77937 -1.341951 0.397805 -1.5 0 -1.5 
C -0.397805 -1.5 -0.77937 -1.341951 -1.06066 -1.06066 
C -1.341951 -0.77937 -1.5 -0.397805 -1.5 0 
C -1.5 0.397805 -1.341951 0.77937 -1.06066 1.06066 
C -0.77937 1.341951 -0.397805 1.5 0 1.5 
z
" style="stroke: #2ca02c"/>
    </defs>
    <g clip-path="url(#pf091bf3ec4)">
     <use xlink:href="#mb52919ac53" x="69.90107" y="190.74176" style="fill: #2ca02c; stroke: #2ca02c"/>
     <use xlink:href="#mb52919ac53" x="104.125471" y="240.831374" style="fill: #2ca02c; stroke: #2ca02c"/>
     <use xlink:href="#mb52919ac53" x="138.349872" y="260.786884" style="fill: #2ca02c; stroke: #2ca02c"/>
     <use xlink:href="#mb52919ac53" x="172.574272" y="273.035961" style="fill: #2ca02c; stroke: #2ca02c"/>
     <use xlink:href="#mb52919ac53" x="206.798673" y="280.273488" style="fill: #2ca02c; stroke: #2ca02c"/>
     <use xlink:href="#mb52919ac53" x="241.023074" y="286.164861" style="fill: #2ca02c; stroke: #2ca02c"/>
     <use xlink:href="#mb52919ac53" x="275.247474" y="293.19375" style="fill: #2ca02c; stroke: #2ca02c"/>
     <use xlink:href="#mb52919ac53" x="309.471875" y="293.963651" style="fill: #2ca02c; stroke: #2ca02c"/>
     <use xlink:href="#mb52919ac53" x="343.696276" y="300.872626" style="fill: #2ca02c; stroke: #2ca02c"/>
     <use xlink:href="#mb52919ac53" x="377.920676" y="301.412692" style="fill: #2ca02c; stroke: #2ca02c"/>
     <use xlink:href="#mb52919ac53" x="412.145077" y="305.600744" style="fill: #2ca02c; stroke: #2ca02c"/>
     <use xlink:href="#mb52919ac53" x="446.369478" y="307.315572" style="fill: #2ca02c; stroke: #2ca02c"/>
     <use xlink:href="#mb52919ac53" x="480.593878" y="308.565886" style="fill: #2ca02c; stroke: #2ca02c"/>
     <use xlink:href="#mb52919ac53" x="514.818279" y="312.032183" style="fill: #2ca02c; stroke: #2ca02c"/>
     <use xlink:href="#mb52919ac53" x="549.04268" y="312.61964" style="fill: #2ca02c; stroke: #2ca02c"/>
    </g>
   </g>
   <g id="line2d_34">
    <path d="M 69.90107 161.064599 
L 104.125471 224.359574 
L 138.349872 251.850578 
L 172.574272 267.020284 
L 206.798673 276.90076 
L 241.023074 284.367213 
L 275.247474 292.143595 
L 309.471875 293.198443 
L 343.696276 300.696995 
L 377.920676 301.162266 
L 412.145077 304.812674 
L 446.369478 306.822442 
L 480.593878 308.123477 
L 514.818279 311.597495 
L 549.04268 311.750264 
" clip-path="url(#pf091bf3ec4)" style="fill: none; stroke: #d62728; stroke-width: 1.2; stroke-linecap: square"/>
    <defs>
     <path id="mb6b46f5266" d="M 0 1.5 
C 0.397805 1.5 0.77937 1.341951 1.06066 1.06066 
C 1.341951 0.77937 1.5 0.397805 1.5 0 
C 1.5 -0.397805 1.341951 -0.77937 1.06066 -1.06066 
C 0.77937 -1.341951 0.397805 -1.5 0 -1.5 
C -0.397805 -1.5 -0.77937 -1.341951 -1.06066 -1.06066 
C -1.341951 -0.77937 -1.5 -0.397805 -1.5 0 
C -1.5 0.397805 -1.341951 0.77937 -1.06066 1.06066 
C -0.77937 1.341951 -0.397805 1.5 0 1.5 
z
" style="stroke: #d62728"/>
    </defs>
    <g clip-path="url(#pf091bf3ec4)">
     <use xlink:href="#mb6b46f5266" x="69.90107" y="161.064599" style="fill: #d62728; stroke: #d62728"/>
     <use xlink:href="#mb6b46f5266" x="104.125471" y="224.359574" style="fill: #d62728; stroke: #d62728"/>
     <use xlink:href="#mb6b46f5266" x="138.349872" y="251.850578" style="fill: #d62728; stroke: #d62728"/>
     <use xlink:href="#mb6b46f5266" x="172.574272" y="267.020284" style="fill: #d62728; stroke: #d62728"/>
     <use xlink:href="#mb6b46f5266" x="206.798673" y="276.90076" style="fill: #d62728; stroke: #d62728"/>
     <use xlink:href="#mb6b46f5266" x="241.023074" y="284.367213" style="fill: #d62728; stroke: #d62728"/>
     <use xlink:href="#mb6b46f5266" x="275.247474" y="292.143595" style="fill: #d62728; stroke: #d62728"/>
     <use xlink:href="#mb6b46f5266" x="309.471875" y="293.198443" style="fill: #d62728; stroke: #d62728"/>
     <use xlink:href="#mb6b46f5266" x="343.696276" y="300.696995" style="fill: #d62728; stroke: #d62728"/>
     <use xlink:href="#mb6b46f5266" x="377.920676" y="301.162266" style="fill: #d62728; stroke: #d62728"/>
     <use xlink:href="#mb6b46f5266" x="412.145077" y="304.812674" style="fill: #d62728; stroke: #d62728"/>
     <use xlink:href="#mb6b46f5266" x="446.369478" y="306.822442" style="fill: #d62728; stroke: #d62728"/>
     <use xlink:href="#mb6b46f5266" x="480.593878" y="308.123477" style="fill: #d62728; stroke: #d62728"/>
     <use xlink:href="#mb6b46f5266" x="514.818279" y="311.597495" style="fill: #d62728; stroke: #d62728"/>
     <use xlink:href="#mb6b46f5266" x="549.04268" y="311.750264" style="fill: #d62728; stroke: #d62728"/>
    </g>
   </g>
   <g id="line2d_35">
    <path d="M 69.90107 91.437659 
L 104.125471 155.06164 
L 138.349872 184.65159 
L 172.574272 203.862635 
L 206.798673 218.433226 
L 241.023074 230.53665 
L 275.247474 244.661955 
L 309.471875 249.294384 
L 343.696276 261.467758 
L 377.920676 269.180852 
L 412.145077 278.310959 
L 446.369478 284.031848 
L 480.593878 287.530395 
L 514.818279 292.887 
L 549.04268 294.552319 
" clip-path="url(#pf091bf3ec4)" style="fill: none; stroke: #9467bd; stroke-width: 1.2; stroke-linecap: square"/>
    <defs>
     <path id="m429e9a47b8" d="M 0 1.5 
C 0.397805 1.5 0.77937 1.341951 1.06066 1.06066 
C 1.341951 0.77937 1.5 0.397805 1.5 0 
C 1.5 -0.397805 1.341951 -0.77937 1.06066 -1.06066 
C 0.77937 -1.341951 0.397805 -1.5 0 -1.5 
C -0.397805 -1.5 -0.77937 -1.341951 -1.06066 -1.06066 
C -1.341951 -0.77937 -1.5 -0.397805 -1.5 0 
C -1.5 0.397805 -1.341951 0.77937 -1.06066 1.06066 
C -0.77937 1.341951 -0.397805 1.5 0 1.5 
z
" style="stroke: #9467bd"/>
    </defs>
    <g clip-path="url(#pf091bf3ec4)">
     <use xlink:href="#m429e9a47b8" x="69.90107" y="91.437659" style="fill: #9467bd; stroke: #9467bd"/>
     <use xlink:href="#m429e9a47b8" x="104.125471" y="155.06164" style="fill: #9467bd; stroke: #9467bd"/>
     <use xlink:href="#m429e9a47b8" x="138.349872" y="184.65159" style="fill: #9467bd; stroke: #9467bd"/>
     <use xlink:href="#m429e9a47b8" x="172.574272" y="203.862635" style="fill: #9467bd; stroke: #9467bd"/>
     <use xlink:href="#m429e9a47b8" x="206.798673" y="218.433226" style="fill: #9467bd; stroke: #9467bd"/>
     <use xlink:href="#m429e9a47b8" x="241.023074" y="230.53665" style="fill: #9467bd; stroke: #9467bd"/>
     <use xlink:href="#m429e9a47b8" x="275.247474" y="244.661955" style="fill: #9467bd; stroke: #9467bd"/>
     <use xlink:href="#m429e9a47b8" x="309.471875" y="249.294384" style="fill: #9467bd; stroke: #9467bd"/>
     <use xlink:href="#m429e9a47b8" x="343.696276" y="261.467758" style="fill: #9467bd; stroke: #9467bd"/>
     <use xlink:href="#m429e9a47b8" x="377.920676" y="269.180852" style="fill: #9467bd; stroke: #9467bd"/>
     <use xlink:href="#m429e9a47b8" x="412.145077" y="278.310959" style="fill: #9467bd; stroke: #9467bd"/>
     <use xlink:href="#m429e9a47b8" x="446.369478" y="284.031848" style="fill: #9467bd; stroke: #9467bd"/>
     <use xlink:href="#m429e9a47b8" x="480.593878" y="287.530395" style="fill: #9467bd; stroke: #9467bd"/>
     <use xlink:href="#m429e9a47b8" x="514.818279" y="292.887" style="fill: #9467bd; stroke: #9467bd"/>
     <use xlink:href="#m429e9a47b8" x="549.04268" y="294.552319" style="fill: #9467bd; stroke: #9467bd"/>
    </g>
   </g>
   <g id="line2d_36">
    <path d="M 69.90107 32.142235 
L 104.125471 91.570897 
L 138.349872 118.042482 
L 172.574272 134.239783 
L 206.798673 150.235259 
L 241.023074 160.060623 
L 275.247474 173.915062 
L 309.471875 182.144301 
L 343.696276 197.747635 
L 377.920676 206.675008 
L 412.145077 223.513212 
L 446.369478 237.571747 
L 480.593878 250.405101 
L 514.818279 263.251779 
L 549.04268 269.878381 
" clip-path="url(#pf091bf3ec4)" style="fill: none; stroke: #8c564b; stroke-width: 1.2; stroke-linecap: square"/>
    <defs>
     <path id="me928a4894e" d="M 0 1.5 
C 0.397805 1.5 0.77937 1.341951 1.06066 1.06066 
C 1.341951 0.77937 1.5 0.397805 1.5 0 
C 1.5 -0.397805 1.341951 -0.77937 1.06066 -1.06066 
C 0.77937 -1.341951 0.397805 -1.5 0 -1.5 
C -0.397805 -1.5 -0.77937 -1.341951 -1.06066 -1.06066 
C -1.341951 -0.77937 -1.5 -0.397805 -1.5 0 
C -1.5 0.397805 -1.341951 0.77937 -1.06066 1.06066 
C -0.77937 1.341951 -0.397805 1.5 0 1.5 
z
" style="stroke: #8c564b"/>
    </defs>
    <g clip-path="url(#pf091bf3ec4)">
     <use xlink:href="#me928a4894e" x="69.90107" y="32.142235" style="fill: #8c564b; stroke: #8c564b"/>
     <use xlink:href="#me928a4894e" x="104.125471" y="91.570897" style="fill: #8c564b; stroke: #8c564b"/>
     <use xlink:href="#me928a4894e" x="138.349872" y="118.042482" style="fill: #8c564b; stroke: #8c564b"/>
     <use xlink:href="#me928a4894e" x="172.574272" y="134.239783" style="fill: #8c564b; stroke: #8c564b"/>
     <use xlink:href="#me928a4894e" x="206.798673" y="150.235259" style="fill: #8c564b; stroke: #8c564b"/>
     <use xlink:href="#me928a4894e" x="241.023074" y="160.060623" style="fill: #8c564b; stroke: #8c564b"/>
     <use xlink:href="#me928a4894e" x="275.247474" y="173.915062" style="fill: #8c564b; stroke: #8c564b"/>
     <use xlink:href="#me928a4894e" x="309.471875" y="182.144301" style="fill: #8c564b; stroke: #8c564b"/>
     <use xlink:href="#me928a4894e" x="343.696276" y="197.747635" style="fill: #8c564b; stroke: #8c564b"/>
     <use xlink:href="#me928a4894e" x="377.920676" y="206.675008" style="fill: #8c564b; stroke: #8c564b"/>
     <use xlink:href="#me928a4894e" x="412.145077" y="223.513212" style="fill: #8c564b; stroke: #8c564b"/>
     <use xlink:href="#me928a4894e" x="446.369478" y="237.571747" style="fill: #8c564b; stroke: #8c564b"/>
     <use xlink:href="#me928a4894e" x="480.593878" y="250.405101" style="fill: #8c564b; stroke: #8c564b"/>
     <use xlink:href="#me928a4894e" x="514.818279" y="263.251779" style="fill: #8c564b; stroke: #8c564b"/>
     <use xlink:href="#me928a4894e" x="549.04268" y="269.878381" style="fill: #8c564b; stroke: #8c564b"/>
    </g>
   </g>
   <g id="patch_3">
    <path d="M 45.94399 326.64351 
L 45.94399 18.118365 
" style="fill: none; stroke: #000000; stroke-width: 0.8; stroke-linejoin: miter; stroke-linecap: square"/>
   </g>
   <g id="patch_4">
    <path d="M 572.99976 326.64351 
L 572.99976 18.118365 
" style="fill: none; stroke: #000000; stroke-width: 0.8; stroke-linejoin: miter; stroke-linecap: square"/>
   </g>
   <g id="patch_5">
    <path d="M 45.94399 326.64351 
L 572.99976 326.64351 
" style="fill: none; stroke: #000000; stroke-width: 0.8; stroke-linejoin: miter; stroke-linecap: square"/>
   </g>
   <g id="patch_6">
    <path d="M 45.94399 18.118365 
L 572.99976 18.118365 
" style="fill: none; stroke: #000000; stroke-width: 0.8; stroke-linejoin: miter; stroke-linecap: square"/>
   </g>
   <g id="text_18">
    <!-- TinyStories fixed-LR sweep (bs=128, 3000 steps) -->
    <g transform="translate(161.732188 12.118365) scale(0.12 -0.12)">
     <defs>
      <path id="DejaVuSans-54" d="M -19 4666 
L 3928 4666 
L 3928 4134 
L 2272 4134 
L 2272 0 
L 1638 0 
L 1638 4134 
L -19 4134 
L -19 4666 
z
" transform="scale(0.015625)"/>
      <path id="DejaVuSans-79" d="M 2059 -325 
Q 1816 -950 1584 -1140 
Q 1353 -1331 966 -1331 
L 506 -1331 
L 506 -850 
L 844 -850 
Q 1081 -850 1212 -737 
Q 1344 -625 1503 -206 
L 1606 56 
L 191 3500 
L 800 3500 
L 1894 763 
L 2988 3500 
L 3597 3500 
L 2059 -325 
z
" transform="scale(0.015625)"/>
      <path id="DejaVuSans-53" d="M 3425 4513 
L 3425 3897 
Q 3066 4069 2747 4153 
Q 2428 4238 2131 4238 
Q 1616 4238 1336 4038 
Q 1056 3838 1056 3469 
Q 1056 3159 1242 3001 
Q 1428 2844 1947 2747 
L 2328 2669 
Q 3034 2534 3370 2195 
Q 3706 1856 3706 1288 
Q 3706 609 3251 259 
Q 2797 -91 1919 -91 
Q 1588 -91 1214 -16 
Q 841 59 441 206 
L 441 856 
Q 825 641 1194 531 
Q 1563 422 1919 422 
Q 2459 422 2753 634 
Q 3047 847 3047 1241 
Q 3047 1584 2836 1778 
Q 2625 1972 2144 2069 
L 1759 2144 
Q 1053 2284 737 2584 
Q 422 2884 422 3419 
Q 422 4038 858 4394 
Q 1294 4750 2059 4750 
Q 2388 4750 2728 4690 
Q 3069 4631 3425 4513 
z
" transform="scale(0.015625)"/>
      <path id="DejaVuSans-72" d="M 2631 2963 
Q 2534 3019 2420 3045 
Q 2306 3072 2169 3072 
Q 1681 3072 1420 2755 
Q 1159 2438 1159 1844 
L 1159 0 
L 581 0 
L 581 3500 
L 1159 3500 
L 1159 2956 
Q 1341 3275 1631 3429 
Q 1922 3584 2338 3584 
Q 2397 3584 2469 3576 
Q 2541 3569 2628 3553 
L 2631 2963 
z
" transform="scale(0.015625)"/>
      <path id="DejaVuSans-66" d="M 2375 4863 
L 2375 4384 
L 1825 4384 
Q 1516 4384 1395 4259 
Q 1275 4134 1275 3809 
L 1275 3500 
L 2222 3500 
L 2222 3053 
L 1275 3053 
L 1275 0 
L 697 0 
L 697 3053 
L 147 3053 
L 147 3500 
L 697 3500 
L 697 3744 
Q 697 4328 969 4595 
Q 1241 4863 1831 4863 
L 2375 4863 
z
" transform="scale(0.015625)"/>
      <path id="DejaVuSans-78" d="M 3513 3500 
L 2247 1797 
L 3578 0 
L 2900 0 
L 1881 1375 
L 863 0 
L 184 0 
L 1544 1831 
L 300 3500 
L 978 3500 
L 1906 2253 
L 2834 3500 
L 3513 3500 
z
" transform="scale(0.015625)"/>
      <path id="DejaVuSans-2d" d="M 313 2009 
L 1997 2009 
L 1997 1497 
L 313 1497 
L 313 2009 
z
" transform="scale(0.015625)"/>
      <path id="DejaVuSans-4c" d="M 628 4666 
L 1259 4666 
L 1259 531 
L 3531 531 
L 3531 0 
L 628 0 
L 628 4666 
z
" transform="scale(0.015625)"/>
      <path id="DejaVuSans-52" d="M 2841 2188 
Q 3044 2119 3236 1894 
Q 3428 1669 3622 1275 
L 4263 0 
L 3584 0 
L 2988 1197 
Q 2756 1666 2539 1819 
Q 2322 1972 1947 1972 
L 1259 1972 
L 1259 0 
L 628 0 
L 628 4666 
L 2053 4666 
Q 2853 4666 3247 4331 
Q 3641 3997 3641 3322 
Q 3641 2881 3436 2590 
Q 3231 2300 2841 2188 
z
M 1259 4147 
L 1259 2491 
L 2053 2491 
Q 2509 2491 2742 2702 
Q 2975 2913 2975 3322 
Q 2975 3731 2742 3939 
Q 2509 4147 2053 4147 
L 1259 4147 
z
" transform="scale(0.015625)"/>
      <path id="DejaVuSans-77" d="M 269 3500 
L 844 3500 
L 1563 769 
L 2278 3500 
L 2956 3500 
L 3675 769 
L 4391 3500 
L 4966 3500 
L 4050 0 
L 3372 0 
L 2619 2869 
L 1863 0 
L 1184 0 
L 269 3500 
z
" transform="scale(0.015625)"/>
      <path id="DejaVuSans-28" d="M 1984 4856 
Q 1566 4138 1362 3434 
Q 1159 2731 1159 2009 
Q 1159 1288 1364 580 
Q 1569 -128 1984 -844 
L 1484 -844 
Q 1016 -109 783 600 
Q 550 1309 550 2009 
Q 550 2706 781 3412 
Q 1013 4119 1484 4856 
L 1984 4856 
z
" transform="scale(0.015625)"/>
      <path id="DejaVuSans-62" d="M 3116 1747 
Q 3116 2381 2855 2742 
Q 2594 3103 2138 3103 
Q 1681 3103 1420 2742 
Q 1159 2381 1159 1747 
Q 1159 1113 1420 752 
Q 1681 391 2138 391 
Q 2594 391 2855 752 
Q 3116 1113 3116 1747 
z
M 1159 2969 
Q 1341 3281 1617 3432 
Q 1894 3584 2278 3584 
Q 2916 3584 3314 3078 
Q 3713 2572 3713 1747 
Q 3713 922 3314 415 
Q 2916 -91 2278 -91 
Q 1894 -91 1617 61 
Q 1341 213 1159 525 
L 1159 0 
L 581 0 
L 581 4863 
L 1159 4863 
L 1159 2969 
z
" transform="scale(0.015625)"/>
      <path id="DejaVuSans-3d" d="M 678 2906 
L 4684 2906 
L 4684 2381 
L 678 2381 
L 678 2906 
z
M 678 1631 
L 4684 1631 
L 4684 1100 
L 678 1100 
L 678 1631 
z
" transform="scale(0.015625)"/>
      <path id="DejaVuSans-38" d="M 2034 2216 
Q 1584 2216 1326 1975 
Q 1069 1734 1069 1313 
Q 1069 891 1326 650 
Q 1584 409 2034 409 
Q 2484 409 2743 651 
Q 3003 894 3003 1313 
Q 3003 1734 2745 1975 
Q 2488 2216 2034 2216 
z
M 1403 2484 
Q 997 2584 770 2862 
Q 544 3141 544 3541 
Q 544 4100 942 4425 
Q 1341 4750 2034 4750 
Q 2731 4750 3128 4425 
Q 3525 4100 3525 3541 
Q 3525 3141 3298 2862 
Q 3072 2584 2669 2484 
Q 3125 2378 3379 2068 
Q 3634 1759 3634 1313 
Q 3634 634 3220 271 
Q 2806 -91 2034 -91 
Q 1263 -91 848 271 
Q 434 634 434 1313 
Q 434 1759 690 2068 
Q 947 2378 1403 2484 
z
M 1172 3481 
Q 1172 3119 1398 2916 
Q 1625 2713 2034 2713 
Q 2441 2713 2670 2916 
Q 2900 3119 2900 3481 
Q 2900 3844 2670 4047 
Q 2441 4250 2034 4250 
Q 1625 4250 1398 4047 
Q 1172 3844 1172 3481 
z
" transform="scale(0.015625)"/>
      <path id="DejaVuSans-2c" d="M 750 794 
L 1409 794 
L 1409 256 
L 897 -744 
L 494 -744 
L 750 256 
L 750 794 
z
" transform="scale(0.015625)"/>
      <path id="DejaVuSans-29" d="M 513 4856 
L 1013 4856 
Q 1481 4119 1714 3412 
Q 1947 2706 1947 2009 
Q 1947 1309 1714 600 
Q 1481 -109 1013 -844 
L 513 -844 
Q 928 -128 1133 580 
Q 1338 1288 1338 2009 
Q 1338 2731 1133 3434 
Q 928 4138 513 4856 
z
" transform="scale(0.015625)"/>
     </defs>
     <use xlink:href="#DejaVuSans-54"/>
     <use xlink:href="#DejaVuSans-69" transform="translate(57.958984 0)"/>
     <use xlink:href="#DejaVuSans-6e" transform="translate(85.742188 0)"/>
     <use xlink:href="#DejaVuSans-79" transform="translate(149.121094 0)"/>
     <use xlink:href="#DejaVuSans-53" transform="translate(208.300781 0)"/>
     <use xlink:href="#DejaVuSans-74" transform="translate(271.777344 0)"/>
     <use xlink:href="#DejaVuSans-6f" transform="translate(310.986328 0)"/>
     <use xlink:href="#DejaVuSans-72" transform="translate(372.167969 0)"/>
     <use xlink:href="#DejaVuSans-69" transform="translate(413.28125 0)"/>
     <use xlink:href="#DejaVuSans-65" transform="translate(441.064453 0)"/>
     <use xlink:href="#DejaVuSans-73" transform="translate(502.587891 0)"/>
     <use xlink:href="#DejaVuSans-20" transform="translate(554.6875 0)"/>
     <use xlink:href="#DejaVuSans-66" transform="translate(586.474609 0)"/>
     <use xlink:href="#DejaVuSans-69" transform="translate(621.679688 0)"/>
     <use xlink:href="#DejaVuSans-78" transform="translate(649.462891 0)"/>
     <use xlink:href="#DejaVuSans-65" transform="translate(705.517578 0)"/>
     <use xlink:href="#DejaVuSans-64" transform="translate(767.041016 0)"/>
     <use xlink:href="#DejaVuSans-2d" transform="translate(830.517578 0)"/>
     <use xlink:href="#DejaVuSans-4c" transform="translate(866.601562 0)"/>
     <use xlink:href="#DejaVuSans-52" transform="translate(922.314453 0)"/>
     <use xlink:href="#DejaVuSans-20" transform="translate(991.796875 0)"/>
     <use xlink:href="#DejaVuSans-73" transform="translate(1023.583984 0)"/>
     <use xlink:href="#DejaVuSans-77" transform="translate(1075.683594 0)"/>
     <use xlink:href="#DejaVuSans-65" transform="translate(1157.470703 0)"/>
     <use xlink:href="#DejaVuSans-65" transform="translate(1218.994141 0)"/>
     <use xlink:href="#DejaVuSans-70" transform="translate(1280.517578 0)"/>
     <use xlink:href="#DejaVuSans-20" transform="translate(1343.994141 0)"/>
     <use xlink:href="#DejaVuSans-28" transform="translate(1375.78125 0)"/>
     <use xlink:href="#DejaVuSans-62" transform="translate(1414.794922 0)"/>
     <use xlink:href="#DejaVuSans-73" transform="translate(1478.271484 0)"/>
     <use xlink:href="#DejaVuSans-3d" transform="translate(1530.371094 0)"/>
     <use xlink:href="#DejaVuSans-31" transform="translate(1614.160156 0)"/>
     <use xlink:href="#DejaVuSans-32" transform="translate(1677.783203 0)"/>
     <use xlink:href="#DejaVuSans-38" transform="translate(1741.40625 0)"/>
     <use xlink:href="#DejaVuSans-2c" transform="translate(1805.029297 0)"/>
     <use xlink:href="#DejaVuSans-20" transform="translate(1836.816406 0)"/>
     <use xlink:href="#DejaVuSans-33" transform="translate(1868.603516 0)"/>
     <use xlink:href="#DejaVuSans-30" transform="translate(1932.226562 0)"/>
     <use xlink:href="#DejaVuSans-30" transform="translate(1995.849609 0)"/>
     <use xlink:href="#DejaVuSans-30" transform="translate(2059.472656 0)"/>
     <use xlink:href="#DejaVuSans-20" transform="translate(2123.095703 0)"/>
     <use xlink:href="#DejaVuSans-73" transform="translate(2154.882812 0)"/>
     <use xlink:href="#DejaVuSans-74" transform="translate(2206.982422 0)"/>
     <use xlink:href="#DejaVuSans-65" transform="translate(2246.191406 0)"/>
     <use xlink:href="#DejaVuSans-70" transform="translate(2307.714844 0)"/>
     <use xlink:href="#DejaVuSans-73" transform="translate(2371.191406 0)"/>
     <use xlink:href="#DejaVuSans-29" transform="translate(2423.291016 0)"/>
    </g>
   </g>
   <g id="legend_1">
    <g id="patch_7">
     <path d="M 511.59601 94.973365 
L 567.39976 94.973365 
Q 568.99976 94.973365 568.99976 93.373365 
L 568.99976 23.718365 
Q 568.99976 22.118365 567.39976 22.118365 
L 511.59601 22.118365 
Q 509.99601 22.118365 509.99601 23.718365 
L 509.99601 93.373365 
Q 509.99601 94.973365 511.59601 94.973365 
z
" style="fill: #ffffff; opacity: 0.8; stroke: #cccccc; stroke-linejoin: miter"/>
    </g>
    <g id="line2d_37">
     <path d="M 513.19601 28.597115 
L 521.19601 28.597115 
L 529.19601 28.597115 
" style="fill: none; stroke: #1f77b4; stroke-width: 1.2; stroke-linecap: square"/>
     <g>
      <use xlink:href="#m8edf03a74e" x="521.19601" y="28.597115" style="fill: #1f77b4; stroke: #1f77b4"/>
     </g>
    </g>
    <g id="text_19">
     <!-- lr=3e-4 -->
     <g transform="translate(535.59601 31.397115) scale(0.08 -0.08)">
      <defs>
       <path id="DejaVuSans-34" d="M 2419 4116 
L 825 1625 
L 2419 1625 
L 2419 4116 
z
M 2253 4666 
L 3047 4666 
L 3047 1625 
L 3713 1625 
L 3713 1100 
L 3047 1100 
L 3047 0 
L 2419 0 
L 2419 1100 
L 313 1100 
L 313 1709 
L 2253 4666 
z
" transform="scale(0.015625)"/>
      </defs>
      <use xlink:href="#DejaVuSans-6c"/>
      <use xlink:href="#DejaVuSans-72" transform="translate(27.783203 0)"/>
      <use xlink:href="#DejaVuSans-3d" transform="translate(68.896484 0)"/>
      <use xlink:href="#DejaVuSans-33" transform="translate(152.685547 0)"/>
      <use xlink:href="#DejaVuSans-65" transform="translate(216.308594 0)"/>
      <use xlink:href="#DejaVuSans-2d" transform="translate(277.832031 0)"/>
      <use xlink:href="#DejaVuSans-34" transform="translate(313.916016 0)"/>
     </g>
    </g>
    <g id="line2d_38">
     <path d="M 513.19601 40.339615 
L 521.19601 40.339615 
L 529.19601 40.339615 
" style="fill: none; stroke: #ff7f0e; stroke-width: 1.2; stroke-linecap: square"/>
     <g>
      <use xlink:href="#m1bae17f4dd" x="521.19601" y="40.339615" style="fill: #ff7f0e; stroke: #ff7f0e"/>
     </g>
    </g>
    <g id="text_20">
     <!-- lr=1e-3 -->
     <g transform="translate(535.59601 43.139615) scale(0.08 -0.08)">
      <use xlink:href="#DejaVuSans-6c"/>
      <use xlink:href="#DejaVuSans-72" transform="translate(27.783203 0)"/>
      <use xlink:href="#DejaVuSans-3d" transform="translate(68.896484 0)"/>
      <use xlink:href="#DejaVuSans-31" transform="translate(152.685547 0)"/>
      <use xlink:href="#DejaVuSans-65" transform="translate(216.308594 0)"/>
      <use xlink:href="#DejaVuSans-2d" transform="translate(277.832031 0)"/>
      <use xlink:href="#DejaVuSans-33" transform="translate(313.916016 0)"/>
     </g>
    </g>
    <g id="line2d_39">
     <path d="M 513.19601 52.082115 
L 521.19601 52.082115 
L 529.19601 52.082115 
" style="fill: none; stroke: #2ca02c; stroke-width: 1.2; stroke-linecap: square"/>
     <g>
      <use xlink:href="#mb52919ac53" x="521.19601" y="52.082115" style="fill: #2ca02c; stroke: #2ca02c"/>
     </g>
    </g>
    <g id="text_21">
     <!-- lr=2e-3 -->
     <g transform="translate(535.59601 54.882115) scale(0.08 -0.08)">
      <use xlink:href="#DejaVuSans-6c"/>
      <use xlink:href="#DejaVuSans-72" transform="translate(27.783203 0)"/>
      <use xlink:href="#DejaVuSans-3d" transform="translate(68.896484 0)"/>
      <use xlink:href="#DejaVuSans-32" transform="translate(152.685547 0)"/>
      <use xlink:href="#DejaVuSans-65" transform="translate(216.308594 0)"/>
      <use xlink:href="#DejaVuSans-2d" transform="translate(277.832031 0)"/>
      <use xlink:href="#DejaVuSans-33" transform="translate(313.916016 0)"/>
     </g>
    </g>
    <g id="line2d_40">
     <path d="M 513.19601 63.824615 
L 521.19601 63.824615 
L 529.19601 63.824615 
" style="fill: none; stroke: #d62728; stroke-width: 1.2; stroke-linecap: square"/>
     <g>
      <use xlink:href="#mb6b46f5266" x="521.19601" y="63.824615" style="fill: #d62728; stroke: #d62728"/>
     </g>
    </g>
    <g id="text_22">
     <!-- lr=3e-3 -->
     <g transform="translate(535.59601 66.624615) scale(0.08 -0.08)">
      <use xlink:href="#DejaVuSans-6c"/>
      <use xlink:href="#DejaVuSans-72" transform="translate(27.783203 0)"/>
      <use xlink:href="#DejaVuSans-3d" transform="translate(68.896484 0)"/>
      <use xlink:href="#DejaVuSans-33" transform="translate(152.685547 0)"/>
      <use xlink:href="#DejaVuSans-65" transform="translate(216.308594 0)"/>
      <use xlink:href="#DejaVuSans-2d" transform="translate(277.832031 0)"/>
      <use xlink:href="#DejaVuSans-33" transform="translate(313.916016 0)"/>
     </g>
    </g>
    <g id="line2d_41">
     <path d="M 513.19601 75.567115 
L 521.19601 75.567115 
L 529.19601 75.567115 
" style="fill: none; stroke: #9467bd; stroke-width: 1.2; stroke-linecap: square"/>
     <g>
      <use xlink:href="#m429e9a47b8" x="521.19601" y="75.567115" style="fill: #9467bd; stroke: #9467bd"/>
     </g>
    </g>
    <g id="text_23">
     <!-- lr=5e-3 -->
     <g transform="translate(535.59601 78.367115) scale(0.08 -0.08)">
      <use xlink:href="#DejaVuSans-6c"/>
      <use xlink:href="#DejaVuSans-72" transform="translate(27.783203 0)"/>
      <use xlink:href="#DejaVuSans-3d" transform="translate(68.896484 0)"/>
      <use xlink:href="#DejaVuSans-35" transform="translate(152.685547 0)"/>
      <use xlink:href="#DejaVuSans-65" transform="translate(216.308594 0)"/>
      <use xlink:href="#DejaVuSans-2d" transform="translate(277.832031 0)"/>
      <use xlink:href="#DejaVuSans-33" transform="translate(313.916016 0)"/>
     </g>
    </g>
    <g id="line2d_42">
     <path d="M 513.19601 87.309615 
L 521.19601 87.309615 
L 529.19601 87.309615 
" style="fill: none; stroke: #8c564b; stroke-width: 1.2; stroke-linecap: square"/>
     <g>
      <use xlink:href="#me928a4894e" x="521.19601" y="87.309615" style="fill: #8c564b; stroke: #8c564b"/>
     </g>
    </g>
    <g id="text_24">
     <!-- lr=8e-3 -->
     <g transform="translate(535.59601 90.109615) scale(0.08 -0.08)">
      <use xlink:href="#DejaVuSans-6c"/>
      <use xlink:href="#DejaVuSans-72" transform="translate(27.783203 0)"/>
      <use xlink:href="#DejaVuSans-3d" transform="translate(68.896484 0)"/>
      <use xlink:href="#DejaVuSans-38" transform="translate(152.685547 0)"/>
      <use xlink:href="#DejaVuSans-65" transform="translate(216.308594 0)"/>
      <use xlink:href="#DejaVuSans-2d" transform="translate(277.832031 0)"/>
      <use xlink:href="#DejaVuSans-33" transform="translate(313.916016 0)"/>
     </g>
    </g>
   </g>
  </g>
 </g>
 <defs>
  <clipPath id="pf091bf3ec4">
   <rect x="45.94399" y="18.118365" width="527.05577" height="308.525145"/>
  </clipPath>
 </defs>
</svg>
