<?xml version="1.0" encoding="utf-8" standalone="no"?>
<!DOCTYPE svg PUBLIC "-//W3C//DTD SVG 1.1//EN"
  "http://www.w3.org/Graphics/SVG/1.1/DTD/svg11.dtd">
<svg xmlns:xlink="http://www.w3.org/1999/xlink" width="576pt" height="360pt" viewBox="0 0 576 360" xmlns="http://www.w3.org/2000/svg" version="1.1">
 <metadata>
  <rdf:RDF xmlns:dc="http://purl.org/dc/elements/1.1/" xmlns:cc="http://creativecommons.org/ns#" xmlns:rdf="http://www.w3.org/1999/02/22-rdf-syntax-ns#">
   <cc:Work>
    <dc:type rdf:resource="http://purl.org/dc/dcmitype/StillImage"/>
    <dc:date>2026-04-27T06:34:04.735381</dc:date>
    <dc:format>image/svg+xml</dc:format>
    <dc:creator>
     <cc:Agent>
      <dc:title>Matplotlib v3.10.9, https://matplotlib.org/</dc:title>
     </cc:Agent>
    </dc:creator>
   </cc:Work>
  </rdf:RDF>
 </metadata>
 <defs>
  <style type="text/css">*{stroke-linejoin: round; stroke-linecap: butt}</style>
 </defs>
 <g id="figure_1">
  <g id="patch_1">
   <path d="M 0 360 
L 576 360 
L 576 0 
L 0 0 
z
" style="fill: #ffffff"/>
  </g>
  <g id="axes_1">
   <g id="patch_2">
    <path d="M 41.278365 326.64351 
L 572.99976 326.64351 
L 572.99976 18.118365 
L 41.278365 18.118365 
z
" style="fill: #ffffff"/>
   </g>
   <g id="matplotlib.axis_1">
    <g id="xtick_1">
     <g id="line2d_1">
      <path d="M 64.963652 326.64351 
L 64.963652 18.118365 
" clip-path="url(#pe7cfc1c35e)" style="fill: none; stroke: #b0b0b0; stroke-opacity: 0.3; stroke-width: 0.8; stroke-linecap: square"/>
     </g>
     <g id="line2d_2">
      <defs>
       <path id="m68121dbece" d="M 0 0 
L 0 3.5 
" style="stroke: #000000; stroke-width: 0.8"/>
      </defs>
      <g>
       <use xlink:href="#m68121dbece" x="64.963652" y="326.64351" style="stroke: #000000; stroke-width: 0.8"/>
      </g>
     </g>
     <g id="text_1">
      <!-- 0 -->
      <g transform="translate(61.782402 341.241947) scale(0.1 -0.1)">
       <defs>
        <path id="DejaVuSans-30" d="M 2034 4250 
Q 1547 4250 1301 3770 
Q 1056 3291 1056 2328 
Q 1056 1369 1301 889 
Q 1547 409 2034 409 
Q 2525 409 2770 889 
Q 3016 1369 3016 2328 
Q 3016 3291 2770 3770 
Q 2525 4250 2034 4250 
z
M 2034 4750 
Q 2819 4750 3233 4129 
Q 3647 3509 3647 2328 
Q 3647 1150 3233 529 
Q 2819 -91 2034 -91 
Q 1250 -91 836 529 
Q 422 1150 422 2328 
Q 422 3509 836 4129 
Q 1250 4750 2034 4750 
z
" transform="scale(0.015625)"/>
       </defs>
       <use xlink:href="#DejaVuSans-30"/>
      </g>
     </g>
    </g>
    <g id="xtick_2">
     <g id="line2d_3">
      <path d="M 161.737043 326.64351 
L 161.737043 18.118365 
" clip-path="url(#pe7cfc1c35e)" style="fill: none; stroke: #b0b0b0; stroke-opacity: 0.3; stroke-width: 0.8; stroke-linecap: square"/>
     </g>
     <g id="line2d_4">
      <g>
       <use xlink:href="#m68121dbece" x="161.737043" y="326.64351" style="stroke: #000000; stroke-width: 0.8"/>
      </g>
     </g>
     <g id="text_2">
      <!-- 200 -->
      <g transform="translate(152.193293 341.241947) scale(0.1 -0.1)">
       <defs>
        <path id="DejaVuSans-32" d="M 1228 531 
L 3431 531 
L 3431 0 
L 469 0 
L 469 531 
Q 828 903 1448 1529 
Q 2069 2156 2228 2338 
Q 2531 2678 2651 2914 
Q 2772 3150 2772 3378 
Q 2772 3750 2511 3984 
Q 2250 4219 1831 4219 
Q 1534 4219 1204 4116 
Q 875 4013 500 3803 
L 500 4441 
Q 881 4594 1212 4672 
Q 1544 4750 1819 4750 
Q 2544 4750 2975 4387 
Q 3406 4025 3406 3419 
Q 3406 3131 3298 2873 
Q 3191 2616 2906 2266 
Q 2828 2175 2409 1742 
Q 1991 1309 1228 531 
z
" transform="scale(0.015625)"/>
       </defs>
       <use xlink:href="#DejaVuSans-32"/>
       <use xlink:href="#DejaVuSans-30" transform="translate(63.623047 0)"/>
       <use xlink:href="#DejaVuSans-30" transform="translate(127.246094 0)"/>
      </g>
     </g>
    </g>
    <g id="xtick_3">
     <g id="line2d_5">
      <path d="M 258.510434 326.64351 
L 258.510434 18.118365 
" clip-path="url(#pe7cfc1c35e)" style="fill: none; stroke: #b0b0b0; stroke-opacity: 0.3; stroke-width: 0.8; stroke-linecap: square"/>
     </g>
     <g id="line2d_6">
      <g>
       <use xlink:href="#m68121dbece" x="258.510434" y="326.64351" style="stroke: #000000; stroke-width: 0.8"/>
      </g>
     </g>
     <g id="text_3">
      <!-- 400 -->
      <g transform="translate(248.966684 341.241947) scale(0.1 -0.1)">
       <defs>
        <path id="DejaVuSans-34" d="M 2419 4116 
L 825 1625 
L 2419 1625 
L 2419 4116 
z
M 2253 4666 
L 3047 4666 
L 3047 1625 
L 3713 1625 
L 3713 1100 
L 3047 1100 
L 3047 0 
L 2419 0 
L 2419 1100 
L 313 1100 
L 313 1709 
L 2253 4666 
z
" transform="scale(0.015625)"/>
       </defs>
       <use xlink:href="#DejaVuSans-34"/>
       <use xlink:href="#DejaVuSans-30" transform="translate(63.623047 0)"/>
       <use xlink:href="#DejaVuSans-30" transform="translate(127.246094 0)"/>
      </g>
     </g>
    </g>
    <g id="xtick_4">
     <g id="line2d_7">
      <path d="M 355.283824 326.64351 
L 355.283824 18.118365 
" clip-path="url(#pe7cfc1c35e)" style="fill: none; stroke: #b0b0b0; stroke-opacity: 0.3; stroke-width: 0.8; stroke-linecap: square"/>
     </g>
     <g id="line2d_8">
      <g>
       <use xlink:href="#m68121dbece" x="355.283824" y="326.64351" style="stroke: #000000; stroke-width: 0.8"/>
      </g>
     </g>
     <g id="text_4">
      <!-- 600 -->
      <g transform="translate(345.740074 341.241947) scale(0.1 -0.1)">
       <defs>
        <path id="DejaVuSans-36" d="M 2113 2584 
Q 1688 2584 1439 2293 
Q 1191 2003 1191 1497 
Q 1191 994 1439 701 
Q 1688 409 2113 409 
Q 2538 409 2786 701 
Q 3034 994 3034 1497 
Q 3034 2003 2786 2293 
Q 2538 2584 2113 2584 
z
M 3366 4563 
L 3366 3988 
Q 3128 4100 2886 4159 
Q 2644 4219 2406 4219 
Q 1781 4219 1451 3797 
Q 1122 3375 1075 2522 
Q 1259 2794 1537 2939 
Q 1816 3084 2150 3084 
Q 2853 3084 3261 2657 
Q 3669 2231 3669 1497 
Q 3669 778 3244 343 
Q 2819 -91 2113 -91 
Q 1303 -91 875 529 
Q 447 1150 447 2328 
Q 447 3434 972 4092 
Q 1497 4750 2381 4750 
Q 2619 4750 2861 4703 
Q 3103 4656 3366 4563 
z
" transform="scale(0.015625)"/>
       </defs>
       <use xlink:href="#DejaVuSans-36"/>
       <use xlink:href="#DejaVuSans-30" transform="translate(63.623047 0)"/>
       <use xlink:href="#DejaVuSans-30" transform="translate(127.246094 0)"/>
      </g>
     </g>
    </g>
    <g id="xtick_5">
     <g id="line2d_9">
      <path d="M 452.057215 326.64351 
L 452.057215 18.118365 
" clip-path="url(#pe7cfc1c35e)" style="fill: none; stroke: #b0b0b0; stroke-opacity: 0.3; stroke-width: 0.8; stroke-linecap: square"/>
     </g>
     <g id="line2d_10">
      <g>
       <use xlink:href="#m68121dbece" x="452.057215" y="326.64351" style="stroke: #000000; stroke-width: 0.8"/>
      </g>
     </g>
     <g id="text_5">
      <!-- 800 -->
      <g transform="translate(442.513465 341.241947) scale(0.1 -0.1)">
       <defs>
        <path id="DejaVuSans-38" d="M 2034 2216 
Q 1584 2216 1326 1975 
Q 1069 1734 1069 1313 
Q 1069 891 1326 650 
Q 1584 409 2034 409 
Q 2484 409 2743 651 
Q 3003 894 3003 1313 
Q 3003 1734 2745 1975 
Q 2488 2216 2034 2216 
z
M 1403 2484 
Q 997 2584 770 2862 
Q 544 3141 544 3541 
Q 544 4100 942 4425 
Q 1341 4750 2034 4750 
Q 2731 4750 3128 4425 
Q 3525 4100 3525 3541 
Q 3525 3141 3298 2862 
Q 3072 2584 2669 2484 
Q 3125 2378 3379 2068 
Q 3634 1759 3634 1313 
Q 3634 634 3220 271 
Q 2806 -91 2034 -91 
Q 1263 -91 848 271 
Q 434 634 434 1313 
Q 434 1759 690 2068 
Q 947 2378 1403 2484 
z
M 1172 3481 
Q 1172 3119 1398 2916 
Q 1625 2713 2034 2713 
Q 2441 2713 2670 2916 
Q 2900 3119 2900 3481 
Q 2900 3844 2670 4047 
Q 2441 4250 2034 4250 
Q 1625 4250 1398 4047 
Q 1172 3844 1172 3481 
z
" transform="scale(0.015625)"/>
       </defs>
       <use xlink:href="#DejaVuSans-38"/>
       <use xlink:href="#DejaVuSans-30" transform="translate(63.623047 0)"/>
       <use xlink:href="#DejaVuSans-30" transform="translate(127.246094 0)"/>
      </g>
     </g>
    </g>
    <g id="xtick_6">
     <g id="line2d_11">
      <path d="M 548.830606 326.64351 
L 548.830606 18.118365 
" clip-path="url(#pe7cfc1c35e)" style="fill: none; stroke: #b0b0b0; stroke-opacity: 0.3; stroke-width: 0.8; stroke-linecap: square"/>
     </g>
     <g id="line2d_12">
      <g>
       <use xlink:href="#m68121dbece" x="548.830606" y="326.64351" style="stroke: #000000; stroke-width: 0.8"/>
      </g>
     </g>
     <g id="text_6">
      <!-- 1000 -->
      <g transform="translate(536.105606 341.241947) scale(0.1 -0.1)">
       <defs>
        <path id="DejaVuSans-31" d="M 794 531 
L 1825 531 
L 1825 4091 
L 703 3866 
L 703 4441 
L 1819 4666 
L 2450 4666 
L 2450 531 
L 3481 531 
L 3481 0 
L 794 0 
L 794 531 
z
" transform="scale(0.015625)"/>
       </defs>
       <use xlink:href="#DejaVuSans-31"/>
       <use xlink:href="#DejaVuSans-30" transform="translate(63.623047 0)"/>
       <use xlink:href="#DejaVuSans-30" transform="translate(127.246094 0)"/>
       <use xlink:href="#DejaVuSans-30" transform="translate(190.869141 0)"/>
      </g>
     </g>
    </g>
    <g id="text_7">
     <!-- step -->
     <g transform="translate(296.323438 354.920073) scale(0.1 -0.1)">
      <defs>
       <path id="DejaVuSans-73" d="M 2834 3397 
L 2834 2853 
Q 2591 2978 2328 3040 
Q 2066 3103 1784 3103 
Q 1356 3103 1142 2972 
Q 928 2841 928 2578 
Q 928 2378 1081 2264 
Q 1234 2150 1697 2047 
L 1894 2003 
Q 2506 1872 2764 1633 
Q 3022 1394 3022 966 
Q 3022 478 2636 193 
Q 2250 -91 1575 -91 
Q 1294 -91 989 -36 
Q 684 19 347 128 
L 347 722 
Q 666 556 975 473 
Q 1284 391 1588 391 
Q 1994 391 2212 530 
Q 2431 669 2431 922 
Q 2431 1156 2273 1281 
Q 2116 1406 1581 1522 
L 1381 1569 
Q 847 1681 609 1914 
Q 372 2147 372 2553 
Q 372 3047 722 3315 
Q 1072 3584 1716 3584 
Q 2034 3584 2315 3537 
Q 2597 3491 2834 3397 
z
" transform="scale(0.015625)"/>
       <path id="DejaVuSans-74" d="M 1172 4494 
L 1172 3500 
L 2356 3500 
L 2356 3053 
L 1172 3053 
L 1172 1153 
Q 1172 725 1289 603 
Q 1406 481 1766 481 
L 2356 481 
L 2356 0 
L 1766 0 
Q 1100 0 847 248 
Q 594 497 594 1153 
L 594 3053 
L 172 3053 
L 172 3500 
L 594 3500 
L 594 4494 
L 1172 4494 
z
" transform="scale(0.015625)"/>
       <path id="DejaVuSans-65" d="M 3597 1894 
L 3597 1613 
L 953 1613 
Q 991 1019 1311 708 
Q 1631 397 2203 397 
Q 2534 397 2845 478 
Q 3156 559 3463 722 
L 3463 178 
Q 3153 47 2828 -22 
Q 2503 -91 2169 -91 
Q 1331 -91 842 396 
Q 353 884 353 1716 
Q 353 2575 817 3079 
Q 1281 3584 2069 3584 
Q 2775 3584 3186 3129 
Q 3597 2675 3597 1894 
z
M 3022 2063 
Q 3016 2534 2758 2815 
Q 2500 3097 2075 3097 
Q 1594 3097 1305 2825 
Q 1016 2553 972 2059 
L 3022 2063 
z
" transform="scale(0.015625)"/>
       <path id="DejaVuSans-70" d="M 1159 525 
L 1159 -1331 
L 581 -1331 
L 581 3500 
L 1159 3500 
L 1159 2969 
Q 1341 3281 1617 3432 
Q 1894 3584 2278 3584 
Q 2916 3584 3314 3078 
Q 3713 2572 3713 1747 
Q 3713 922 3314 415 
Q 2916 -91 2278 -91 
Q 1894 -91 1617 61 
Q 1341 213 1159 525 
z
M 3116 1747 
Q 3116 2381 2855 2742 
Q 2594 3103 2138 3103 
Q 1681 3103 1420 2742 
Q 1159 2381 1159 1747 
Q 1159 1113 1420 752 
Q 1681 391 2138 391 
Q 2594 391 2855 752 
Q 3116 1113 3116 1747 
z
" transform="scale(0.015625)"/>
      </defs>
      <use xlink:href="#DejaVuSans-73"/>
      <use xlink:href="#DejaVuSans-74" transform="translate(52.099609 0)"/>
      <use xlink:href="#DejaVuSans-65" transform="translate(91.308594 0)"/>
      <use xlink:href="#DejaVuSans-70" transform="translate(152.832031 0)"/>
     </g>
    </g>
   </g>
   <g id="matplotlib.axis_2">
    <g id="ytick_1">
     <g id="line2d_13">
      <path d="M 41.278365 222.118222 
L 572.99976 222.118222 
" clip-path="url(#pe7cfc1c35e)" style="fill: none; stroke: #b0b0b0; stroke-opacity: 0.3; stroke-width: 0.8; stroke-linecap: square"/>
     </g>
     <g id="line2d_14">
      <defs>
       <path id="m5e98364f2a" d="M 0 0 
L -3.5 0 
" style="stroke: #000000; stroke-width: 0.8"/>
      </defs>
      <g>
       <use xlink:href="#m5e98364f2a" x="41.278365" y="222.118222" style="stroke: #000000; stroke-width: 0.8"/>
      </g>
     </g>
     <g id="text_8">
      <!-- $\mathdefault{10^{1}}$ -->
      <g transform="translate(16.678365 225.917441) scale(0.1 -0.1)">
       <use xlink:href="#DejaVuSans-31" transform="translate(0 0.684375)"/>
       <use xlink:href="#DejaVuSans-30" transform="translate(63.623047 0.684375)"/>
       <use xlink:href="#DejaVuSans-31" transform="translate(128.203125 38.965625) scale(0.7)"/>
      </g>
     </g>
    </g>
    <g id="ytick_2">
     <g id="line2d_15">
      <path d="M 41.278365 58.296767 
L 572.99976 58.296767 
" clip-path="url(#pe7cfc1c35e)" style="fill: none; stroke: #b0b0b0; stroke-opacity: 0.3; stroke-width: 0.8; stroke-linecap: square"/>
     </g>
     <g id="line2d_16">
      <g>
       <use xlink:href="#m5e98364f2a" x="41.278365" y="58.296767" style="stroke: #000000; stroke-width: 0.8"/>
      </g>
     </g>
     <g id="text_9">
      <!-- $\mathdefault{10^{2}}$ -->
      <g transform="translate(16.678365 62.095986) scale(0.1 -0.1)">
       <use xlink:href="#DejaVuSans-31" transform="translate(0 0.765625)"/>
       <use xlink:href="#DejaVuSans-30" transform="translate(63.623047 0.765625)"/>
       <use xlink:href="#DejaVuSans-32" transform="translate(128.203125 39.046875) scale(0.7)"/>
      </g>
     </g>
    </g>
    <g id="ytick_3">
     <g id="line2d_17">
      <path d="M 41.278365 307.776979 
L 572.99976 307.776979 
" clip-path="url(#pe7cfc1c35e)" style="fill: none; stroke: #b0b0b0; stroke-opacity: 0.3; stroke-width: 0.8; stroke-linecap: square"/>
     </g>
     <g id="line2d_18">
      <defs>
       <path id="me35dfb598b" d="M 0 0 
L -2 0 
" style="stroke: #000000; stroke-width: 0.6"/>
      </defs>
      <g>
       <use xlink:href="#me35dfb598b" x="41.278365" y="307.776979" style="stroke: #000000; stroke-width: 0.6"/>
      </g>
     </g>
    </g>
    <g id="ytick_4">
     <g id="line2d_19">
      <path d="M 41.278365 287.309333 
L 572.99976 287.309333 
" clip-path="url(#pe7cfc1c35e)" style="fill: none; stroke: #b0b0b0; stroke-opacity: 0.3; stroke-width: 0.8; stroke-linecap: square"/>
     </g>
     <g id="line2d_20">
      <g>
       <use xlink:href="#me35dfb598b" x="41.278365" y="287.309333" style="stroke: #000000; stroke-width: 0.6"/>
      </g>
     </g>
    </g>
    <g id="ytick_5">
     <g id="line2d_21">
      <path d="M 41.278365 271.433394 
L 572.99976 271.433394 
" clip-path="url(#pe7cfc1c35e)" style="fill: none; stroke: #b0b0b0; stroke-opacity: 0.3; stroke-width: 0.8; stroke-linecap: square"/>
     </g>
     <g id="line2d_22">
      <g>
       <use xlink:href="#me35dfb598b" x="41.278365" y="271.433394" style="stroke: #000000; stroke-width: 0.6"/>
      </g>
     </g>
    </g>
    <g id="ytick_6">
     <g id="line2d_23">
      <path d="M 41.278365 258.461807 
L 572.99976 258.461807 
" clip-path="url(#pe7cfc1c35e)" style="fill: none; stroke: #b0b0b0; stroke-opacity: 0.3; stroke-width: 0.8; stroke-linecap: square"/>
     </g>
     <g id="line2d_24">
      <g>
       <use xlink:href="#me35dfb598b" x="41.278365" y="258.461807" style="stroke: #000000; stroke-width: 0.6"/>
      </g>
     </g>
    </g>
    <g id="ytick_7">
     <g id="line2d_25">
      <path d="M 41.278365 247.494487 
L 572.99976 247.494487 
" clip-path="url(#pe7cfc1c35e)" style="fill: none; stroke: #b0b0b0; stroke-opacity: 0.3; stroke-width: 0.8; stroke-linecap: square"/>
     </g>
     <g id="line2d_26">
      <g>
       <use xlink:href="#me35dfb598b" x="41.278365" y="247.494487" style="stroke: #000000; stroke-width: 0.6"/>
      </g>
     </g>
    </g>
    <g id="ytick_8">
     <g id="line2d_27">
      <path d="M 41.278365 237.994161 
L 572.99976 237.994161 
" clip-path="url(#pe7cfc1c35e)" style="fill: none; stroke: #b0b0b0; stroke-opacity: 0.3; stroke-width: 0.8; stroke-linecap: square"/>
     </g>
     <g id="line2d_28">
      <g>
       <use xlink:href="#me35dfb598b" x="41.278365" y="237.994161" style="stroke: #000000; stroke-width: 0.6"/>
      </g>
     </g>
    </g>
    <g id="ytick_9">
     <g id="line2d_29">
      <path d="M 41.278365 229.614281 
L 572.99976 229.614281 
" clip-path="url(#pe7cfc1c35e)" style="fill: none; stroke: #b0b0b0; stroke-opacity: 0.3; stroke-width: 0.8; stroke-linecap: square"/>
     </g>
     <g id="line2d_30">
      <g>
       <use xlink:href="#me35dfb598b" x="41.278365" y="229.614281" style="stroke: #000000; stroke-width: 0.6"/>
      </g>
     </g>
    </g>
    <g id="ytick_10">
     <g id="line2d_31">
      <path d="M 41.278365 172.80305 
L 572.99976 172.80305 
" clip-path="url(#pe7cfc1c35e)" style="fill: none; stroke: #b0b0b0; stroke-opacity: 0.3; stroke-width: 0.8; stroke-linecap: square"/>
     </g>
     <g id="line2d_32">
      <g>
       <use xlink:href="#me35dfb598b" x="41.278365" y="172.80305" style="stroke: #000000; stroke-width: 0.6"/>
      </g>
     </g>
    </g>
    <g id="ytick_11">
     <g id="line2d_33">
      <path d="M 41.278365 143.955524 
L 572.99976 143.955524 
" clip-path="url(#pe7cfc1c35e)" style="fill: none; stroke: #b0b0b0; stroke-opacity: 0.3; stroke-width: 0.8; stroke-linecap: square"/>
     </g>
     <g id="line2d_34">
      <g>
       <use xlink:href="#me35dfb598b" x="41.278365" y="143.955524" style="stroke: #000000; stroke-width: 0.6"/>
      </g>
     </g>
    </g>
    <g id="ytick_12">
     <g id="line2d_35">
      <path d="M 41.278365 123.487878 
L 572.99976 123.487878 
" clip-path="url(#pe7cfc1c35e)" style="fill: none; stroke: #b0b0b0; stroke-opacity: 0.3; stroke-width: 0.8; stroke-linecap: square"/>
     </g>
     <g id="line2d_36">
      <g>
       <use xlink:href="#me35dfb598b" x="41.278365" y="123.487878" style="stroke: #000000; stroke-width: 0.6"/>
      </g>
     </g>
    </g>
    <g id="ytick_13">
     <g id="line2d_37">
      <path d="M 41.278365 107.611939 
L 572.99976 107.611939 
" clip-path="url(#pe7cfc1c35e)" style="fill: none; stroke: #b0b0b0; stroke-opacity: 0.3; stroke-width: 0.8; stroke-linecap: square"/>
     </g>
     <g id="line2d_38">
      <g>
       <use xlink:href="#me35dfb598b" x="41.278365" y="107.611939" style="stroke: #000000; stroke-width: 0.6"/>
      </g>
     </g>
    </g>
    <g id="ytick_14">
     <g id="line2d_39">
      <path d="M 41.278365 94.640352 
L 572.99976 94.640352 
" clip-path="url(#pe7cfc1c35e)" style="fill: none; stroke: #b0b0b0; stroke-opacity: 0.3; stroke-width: 0.8; stroke-linecap: square"/>
     </g>
     <g id="line2d_40">
      <g>
       <use xlink:href="#me35dfb598b" x="41.278365" y="94.640352" style="stroke: #000000; stroke-width: 0.6"/>
      </g>
     </g>
    </g>
    <g id="ytick_15">
     <g id="line2d_41">
      <path d="M 41.278365 83.673031 
L 572.99976 83.673031 
" clip-path="url(#pe7cfc1c35e)" style="fill: none; stroke: #b0b0b0; stroke-opacity: 0.3; stroke-width: 0.8; stroke-linecap: square"/>
     </g>
     <g id="line2d_42">
      <g>
       <use xlink:href="#me35dfb598b" x="41.278365" y="83.673031" style="stroke: #000000; stroke-width: 0.6"/>
      </g>
     </g>
    </g>
    <g id="ytick_16">
     <g id="line2d_43">
      <path d="M 41.278365 74.172706 
L 572.99976 74.172706 
" clip-path="url(#pe7cfc1c35e)" style="fill: none; stroke: #b0b0b0; stroke-opacity: 0.3; stroke-width: 0.8; stroke-linecap: square"/>
     </g>
     <g id="line2d_44">
      <g>
       <use xlink:href="#me35dfb598b" x="41.278365" y="74.172706" style="stroke: #000000; stroke-width: 0.6"/>
      </g>
     </g>
    </g>
    <g id="ytick_17">
     <g id="line2d_45">
      <path d="M 41.278365 65.792826 
L 572.99976 65.792826 
" clip-path="url(#pe7cfc1c35e)" style="fill: none; stroke: #b0b0b0; stroke-opacity: 0.3; stroke-width: 0.8; stroke-linecap: square"/>
     </g>
     <g id="line2d_46">
      <g>
       <use xlink:href="#me35dfb598b" x="41.278365" y="65.792826" style="stroke: #000000; stroke-width: 0.6"/>
      </g>
     </g>
    </g>
    <g id="text_10">
     <!-- training loss (log scale) -->
     <g transform="translate(10.598678 230.583281) rotate(-90) scale(0.1 -0.1)">
      <defs>
       <path id="DejaVuSans-72" d="M 2631 2963 
Q 2534 3019 2420 3045 
Q 2306 3072 2169 3072 
Q 1681 3072 1420 2755 
Q 1159 2438 1159 1844 
L 1159 0 
L 581 0 
L 581 3500 
L 1159 3500 
L 1159 2956 
Q 1341 3275 1631 3429 
Q 1922 3584 2338 3584 
Q 2397 3584 2469 3576 
Q 2541 3569 2628 3553 
L 2631 2963 
z
" transform="scale(0.015625)"/>
       <path id="DejaVuSans-61" d="M 2194 1759 
Q 1497 1759 1228 1600 
Q 959 1441 959 1056 
Q 959 750 1161 570 
Q 1363 391 1709 391 
Q 2188 391 2477 730 
Q 2766 1069 2766 1631 
L 2766 1759 
L 2194 1759 
z
M 3341 1997 
L 3341 0 
L 2766 0 
L 2766 531 
Q 2569 213 2275 61 
Q 1981 -91 1556 -91 
Q 1019 -91 701 211 
Q 384 513 384 1019 
Q 384 1609 779 1909 
Q 1175 2209 1959 2209 
L 2766 2209 
L 2766 2266 
Q 2766 2663 2505 2880 
Q 2244 3097 1772 3097 
Q 1472 3097 1187 3025 
Q 903 2953 641 2809 
L 641 3341 
Q 956 3463 1253 3523 
Q 1550 3584 1831 3584 
Q 2591 3584 2966 3190 
Q 3341 2797 3341 1997 
z
" transform="scale(0.015625)"/>
       <path id="DejaVuSans-69" d="M 603 3500 
L 1178 3500 
L 1178 0 
L 603 0 
L 603 3500 
z
M 603 4863 
L 1178 4863 
L 1178 4134 
L 603 4134 
L 603 4863 
z
" transform="scale(0.015625)"/>
       <path id="DejaVuSans-6e" d="M 3513 2113 
L 3513 0 
L 2938 0 
L 2938 2094 
Q 2938 2591 2744 2837 
Q 2550 3084 2163 3084 
Q 1697 3084 1428 2787 
Q 1159 2491 1159 1978 
L 1159 0 
L 581 0 
L 581 3500 
L 1159 3500 
L 1159 2956 
Q 1366 3272 1645 3428 
Q 1925 3584 2291 3584 
Q 2894 3584 3203 3211 
Q 3513 2838 3513 2113 
z
" transform="scale(0.015625)"/>
       <path id="DejaVuSans-67" d="M 2906 1791 
Q 2906 2416 2648 2759 
Q 2391 3103 1925 3103 
Q 1463 3103 1205 2759 
Q 947 2416 947 1791 
Q 947 1169 1205 825 
Q 1463 481 1925 481 
Q 2391 481 2648 825 
Q 2906 1169 2906 1791 
z
M 3481 434 
Q 3481 -459 3084 -895 
Q 2688 -1331 1869 -1331 
Q 1566 -1331 1297 -1286 
Q 1028 -1241 775 -1147 
L 775 -588 
Q 1028 -725 1275 -790 
Q 1522 -856 1778 -856 
Q 2344 -856 2625 -561 
Q 2906 -266 2906 331 
L 2906 616 
Q 2728 306 2450 153 
Q 2172 0 1784 0 
Q 1141 0 747 490 
Q 353 981 353 1791 
Q 353 2603 747 3093 
Q 1141 3584 1784 3584 
Q 2172 3584 2450 3431 
Q 2728 3278 2906 2969 
L 2906 3500 
L 3481 3500 
L 3481 434 
z
" transform="scale(0.015625)"/>
       <path id="DejaVuSans-20" transform="scale(0.015625)"/>
       <path id="DejaVuSans-6c" d="M 603 4863 
L 1178 4863 
L 1178 0 
L 603 0 
L 603 4863 
z
" transform="scale(0.015625)"/>
       <path id="DejaVuSans-6f" d="M 1959 3097 
Q 1497 3097 1228 2736 
Q 959 2375 959 1747 
Q 959 1119 1226 758 
Q 1494 397 1959 397 
Q 2419 397 2687 759 
Q 2956 1122 2956 1747 
Q 2956 2369 2687 2733 
Q 2419 3097 1959 3097 
z
M 1959 3584 
Q 2709 3584 3137 3096 
Q 3566 2609 3566 1747 
Q 3566 888 3137 398 
Q 2709 -91 1959 -91 
Q 1206 -91 779 398 
Q 353 888 353 1747 
Q 353 2609 779 3096 
Q 1206 3584 1959 3584 
z
" transform="scale(0.015625)"/>
       <path id="DejaVuSans-28" d="M 1984 4856 
Q 1566 4138 1362 3434 
Q 1159 2731 1159 2009 
Q 1159 1288 1364 580 
Q 1569 -128 1984 -844 
L 1484 -844 
Q 1016 -109 783 600 
Q 550 1309 550 2009 
Q 550 2706 781 3412 
Q 1013 4119 1484 4856 
L 1984 4856 
z
" transform="scale(0.015625)"/>
       <path id="DejaVuSans-63" d="M 3122 3366 
L 3122 2828 
Q 2878 2963 2633 3030 
Q 2388 3097 2138 3097 
Q 1578 3097 1268 2742 
Q 959 2388 959 1747 
Q 959 1106 1268 751 
Q 1578 397 2138 397 
Q 2388 397 2633 464 
Q 2878 531 3122 666 
L 3122 134 
Q 2881 22 2623 -34 
Q 2366 -91 2075 -91 
Q 1284 -91 818 406 
Q 353 903 353 1747 
Q 353 2603 823 3093 
Q 1294 3584 2113 3584 
Q 2378 3584 2631 3529 
Q 2884 3475 3122 3366 
z
" transform="scale(0.015625)"/>
       <path id="DejaVuSans-29" d="M 513 4856 
L 1013 4856 
Q 1481 4119 1714 3412 
Q 1947 2706 1947 2009 
Q 1947 1309 1714 600 
Q 1481 -109 1013 -844 
L 513 -844 
Q 928 -128 1133 580 
Q 1338 1288 1338 2009 
Q 1338 2731 1133 3434 
Q 928 4138 513 4856 
z
" transform="scale(0.015625)"/>
      </defs>
      <use xlink:href="#DejaVuSans-74"/>
      <use xlink:href="#DejaVuSans-72" transform="translate(39.208984 0)"/>
      <use xlink:href="#DejaVuSans-61" transform="translate(80.322266 0)"/>
      <use xlink:href="#DejaVuSans-69" transform="translate(141.601562 0)"/>
      <use xlink:href="#DejaVuSans-6e" transform="translate(169.384766 0)"/>
      <use xlink:href="#DejaVuSans-69" transform="translate(232.763672 0)"/>
      <use xlink:href="#DejaVuSans-6e" transform="translate(260.546875 0)"/>
      <use xlink:href="#DejaVuSans-67" transform="translate(323.925781 0)"/>
      <use xlink:href="#DejaVuSans-20" transform="translate(387.402344 0)"/>
      <use xlink:href="#DejaVuSans-6c" transform="translate(419.189453 0)"/>
      <use xlink:href="#DejaVuSans-6f" transform="translate(446.972656 0)"/>
      <use xlink:href="#DejaVuSans-73" transform="translate(508.154297 0)"/>
      <use xlink:href="#DejaVuSans-73" transform="translate(560.253906 0)"/>
      <use xlink:href="#DejaVuSans-20" transform="translate(612.353516 0)"/>
      <use xlink:href="#DejaVuSans-28" transform="translate(644.140625 0)"/>
      <use xlink:href="#DejaVuSans-6c" transform="translate(683.154297 0)"/>
      <use xlink:href="#DejaVuSans-6f" transform="translate(710.9375 0)"/>
      <use xlink:href="#DejaVuSans-67" transform="translate(772.119141 0)"/>
      <use xlink:href="#DejaVuSans-20" transform="translate(835.595703 0)"/>
      <use xlink:href="#DejaVuSans-73" transform="translate(867.382812 0)"/>
      <use xlink:href="#DejaVuSans-63" transform="translate(919.482422 0)"/>
      <use xlink:href="#DejaVuSans-61" transform="translate(974.462891 0)"/>
      <use xlink:href="#DejaVuSans-6c" transform="translate(1035.742188 0)"/>
      <use xlink:href="#DejaVuSans-65" transform="translate(1063.525391 0)"/>
      <use xlink:href="#DejaVuSans-29" transform="translate(1125.048828 0)"/>
     </g>
    </g>
   </g>
   <g id="line2d_47">
    <path d="M 65.447519 227.535318 
L 74.640991 260.203507 
L 84.31833 272.683997 
L 93.99567 278.491386 
L 103.673009 281.588755 
L 113.350348 284.506816 
L 123.027687 287.96808 
L 132.705026 288.068018 
L 142.382365 290.255664 
L 152.059704 293.189058 
L 161.737043 294.516137 
L 171.414382 294.759932 
L 181.091721 296.083955 
L 190.76906 297.637852 
L 200.446399 295.152028 
L 210.123738 296.829298 
L 219.801077 298.660993 
L 229.478416 298.472075 
L 239.155756 299.640721 
L 248.833095 300.16962 
L 258.510434 302.642145 
L 268.187773 301.17983 
L 277.865112 304.455056 
L 287.542451 302.937669 
L 297.21979 302.607953 
L 306.897129 303.510377 
L 316.574468 304.601511 
L 326.251807 304.29727 
L 335.929146 306.141568 
L 345.606485 305.375707 
L 355.283824 307.102983 
L 364.961163 306.215749 
L 374.638502 306.70525 
L 384.315842 307.134375 
L 393.993181 309.097741 
L 403.67052 307.604278 
L 413.347859 308.48774 
L 423.025198 307.782457 
L 432.702537 308.732776 
L 442.379876 308.853012 
L 452.057215 309.296275 
L 461.734554 310.201477 
L 471.411893 309.434165 
L 481.089232 309.294215 
L 490.766571 310.941889 
L 500.44391 312.275932 
L 510.121249 311.439088 
L 519.798588 310.301219 
L 529.475928 310.772744 
L 539.153267 312.514873 
L 548.830606 312.61964 
" clip-path="url(#pe7cfc1c35e)" style="fill: none; stroke: #1f77b4; stroke-width: 1.2; stroke-linecap: square"/>
   </g>
   <g id="line2d_48">
    <path d="M 65.447519 227.535318 
L 74.640991 249.786171 
L 84.31833 263.392942 
L 93.99567 270.587176 
L 103.673009 274.358382 
L 113.350348 277.056661 
L 123.027687 280.969554 
L 132.705026 281.341503 
L 142.382365 284.137976 
L 152.059704 286.396268 
L 161.737043 287.849443 
L 171.414382 288.46616 
L 181.091721 289.54647 
L 190.76906 290.853933 
L 200.446399 289.696716 
L 210.123738 288.741518 
L 219.801077 284.392085 
L 229.478416 286.805605 
L 239.155756 289.056726 
L 248.833095 290.568692 
L 258.510434 291.339062 
L 268.187773 290.381616 
L 277.865112 293.577639 
L 287.542451 292.844296 
L 297.21979 292.500718 
L 306.897129 294.225661 
L 316.574468 296.053096 
L 326.251807 295.530023 
L 335.929146 296.960568 
L 345.606485 297.243306 
L 355.283824 298.474384 
L 364.961163 298.489368 
L 374.638502 299.307941 
L 384.315842 298.949578 
L 393.993181 301.045315 
L 403.67052 299.929492 
L 413.347859 301.276949 
L 423.025198 300.640199 
L 432.702537 302.042282 
L 442.379876 302.162302 
L 452.057215 302.17668 
L 461.734554 303.07588 
L 471.411893 303.161198 
L 481.089232 303.383938 
L 490.766571 304.297316 
L 500.44391 305.488834 
L 510.121249 304.008584 
L 519.798588 304.216196 
L 529.475928 304.675556 
L 539.153267 306.572683 
L 548.830606 306.51404 
" clip-path="url(#pe7cfc1c35e)" style="fill: none; stroke: #ff7f0e; stroke-width: 1.2; stroke-linecap: square"/>
   </g>
   <g id="line2d_49">
    <path d="M 65.447519 227.535318 
L 74.640991 195.576957 
L 84.31833 259.708582 
L 93.99567 260.986662 
L 103.673009 264.405533 
L 113.350348 268.43263 
L 123.027687 270.931916 
L 132.705026 271.276759 
L 142.382365 272.759936 
L 152.059704 277.168736 
L 161.737043 279.711464 
L 171.414382 281.254218 
L 181.091721 283.977928 
L 190.76906 285.091784 
L 200.446399 285.041785 
L 210.123738 285.181838 
L 219.801077 284.268351 
L 229.478416 285.724431 
L 239.155756 288.749213 
L 248.833095 289.927194 
L 258.510434 291.20868 
L 268.187773 290.830642 
L 277.865112 293.24178 
L 287.542451 292.0407 
L 297.21979 292.977636 
L 306.897129 291.328126 
L 316.574468 293.262702 
L 326.251807 294.159612 
L 335.929146 295.425781 
L 345.606485 293.140777 
L 355.283824 294.828024 
L 364.961163 294.013564 
L 374.638502 293.264713 
L 384.315842 294.645906 
L 393.993181 294.282434 
L 403.67052 292.700326 
L 413.347859 294.354646 
L 423.025198 294.019525 
L 432.702537 294.631434 
L 442.379876 294.138346 
L 452.057215 293.719037 
L 461.734554 293.134503 
L 471.411893 293.432159 
L 481.089232 294.369003 
L 490.766571 293.664073 
L 500.44391 293.743721 
L 510.121249 292.208316 
L 519.798588 293.154389 
L 529.475928 293.911694 
L 539.153267 294.501002 
L 548.830606 293.751568 
" clip-path="url(#pe7cfc1c35e)" style="fill: none; stroke: #2ca02c; stroke-width: 1.2; stroke-linecap: square"/>
   </g>
   <g id="line2d_50">
    <path d="M 65.447519 227.535318 
L 74.640991 217.117599 
L 84.31833 256.090256 
L 93.99567 260.134458 
L 103.673009 261.821445 
L 113.350348 266.772651 
L 123.027687 272.443082 
L 132.705026 274.722026 
L 142.382365 278.070057 
L 152.059704 280.832657 
L 161.737043 282.006529 
L 171.414382 281.801549 
L 181.091721 281.887004 
L 190.76906 281.360838 
L 200.446399 280.727749 
L 210.123738 273.354272 
L 219.801077 280.326779 
L 229.478416 281.58073 
L 239.155756 282.075472 
L 248.833095 281.863686 
L 258.510434 283.071225 
L 268.187773 278.570861 
L 277.865112 284.634512 
L 287.542451 280.098684 
L 297.21979 275.547071 
L 306.897129 279.778905 
L 316.574468 280.084944 
L 326.251807 279.673988 
L 335.929146 282.872217 
L 345.606485 278.514567 
L 355.283824 281.406596 
L 364.961163 275.828211 
L 374.638502 280.924645 
L 384.315842 273.713013 
L 393.993181 275.78073 
L 403.67052 275.878814 
L 413.347859 279.150953 
L 423.025198 279.205706 
L 432.702537 283.401219 
L 442.379876 281.235059 
L 452.057215 278.280026 
L 461.734554 277.558949 
L 471.411893 279.567647 
L 481.089232 278.781069 
L 490.766571 277.206442 
L 500.44391 275.947371 
L 510.121249 275.601487 
L 519.798588 278.713274 
L 529.475928 280.809293 
L 539.153267 283.069617 
L 548.830606 278.042492 
" clip-path="url(#pe7cfc1c35e)" style="fill: none; stroke: #d62728; stroke-width: 1.2; stroke-linecap: square"/>
   </g>
   <g id="line2d_51">
    <path d="M 65.447519 227.535318 
L 74.640991 185.474949 
L 84.31833 248.465271 
L 93.99567 258.019136 
L 103.673009 265.02079 
L 113.350348 266.567603 
L 123.027687 269.893294 
L 132.705026 273.43314 
L 142.382365 273.063719 
L 152.059704 273.427388 
L 161.737043 275.320638 
L 171.414382 274.453365 
L 181.091721 273.254525 
L 190.76906 276.944317 
L 200.446399 272.834809 
L 210.123738 275.456264 
L 219.801077 272.386153 
L 229.478416 269.081637 
L 239.155756 273.842632 
L 248.833095 274.505257 
L 258.510434 278.105165 
L 268.187773 274.962048 
L 277.865112 275.683824 
L 287.542451 275.008806 
L 297.21979 275.738481 
L 306.897129 269.375446 
L 316.574468 273.482067 
L 326.251807 275.332061 
L 335.929146 268.895837 
L 345.606485 263.14141 
L 355.283824 272.667851 
L 364.961163 268.532038 
L 374.638502 268.73571 
L 384.315842 267.028029 
L 393.993181 269.435992 
L 403.67052 263.485395 
L 413.347859 269.001079 
L 423.025198 263.424175 
L 432.702537 265.130268 
L 442.379876 258.457289 
L 452.057215 266.815537 
L 461.734554 259.303859 
L 471.411893 268.318363 
L 481.089232 251.271921 
L 490.766571 267.418041 
L 500.44391 262.870437 
L 510.121249 257.10192 
L 519.798588 269.525023 
L 529.475928 271.420703 
L 539.153267 271.21806 
L 548.830606 265.146678 
" clip-path="url(#pe7cfc1c35e)" style="fill: none; stroke: #9467bd; stroke-width: 1.2; stroke-linecap: square"/>
   </g>
   <g id="line2d_52">
    <path d="M 65.447519 227.535318 
L 74.640991 32.142235 
L 84.31833 101.126176 
L 93.99567 89.537988 
L 103.673009 132.347529 
L 113.350348 129.496576 
L 123.027687 122.293579 
L 132.705026 115.236464 
L 142.382365 122.924711 
L 152.059704 114.867495 
L 161.737043 139.894409 
L 171.414382 100.756327 
L 181.091721 99.86847 
L 190.76906 129.396783 
L 200.446399 100.393883 
L 210.123738 111.059936 
L 219.801077 122.211012 
L 229.478416 150.050084 
L 239.155756 73.758679 
L 248.833095 91.711486 
L 258.510434 152.511341 
L 268.187773 114.929132 
L 277.865112 80.307648 
L 287.542451 82.444381 
L 297.21979 138.958749 
L 306.897129 109.483117 
L 316.574468 96.694458 
L 326.251807 188.390262 
L 335.929146 56.074968 
L 345.606485 43.66492 
L 355.283824 123.749271 
L 364.961163 137.644239 
L 374.638502 80.680173 
L 384.315842 111.044795 
L 393.993181 85.525087 
L 403.67052 96.047996 
L 413.347859 114.733861 
L 423.025198 159.292507 
L 432.702537 137.05261 
L 442.379876 36.507914 
L 452.057215 151.380953 
L 461.734554 93.518639 
L 471.411893 136.001795 
L 481.089232 93.452921 
L 490.766571 147.192912 
L 500.44391 141.938579 
L 510.121249 61.327445 
L 519.798588 99.455204 
L 529.475928 102.940157 
L 539.153267 69.499268 
L 548.830606 119.141332 
" clip-path="url(#pe7cfc1c35e)" style="fill: none; stroke: #8c564b; stroke-width: 1.2; stroke-linecap: square"/>
   </g>
   <g id="patch_3">
    <path d="M 41.278365 326.64351 
L 41.278365 18.118365 
" style="fill: none; stroke: #000000; stroke-width: 0.8; stroke-linejoin: miter; stroke-linecap: square"/>
   </g>
   <g id="patch_4">
    <path d="M 572.99976 326.64351 
L 572.99976 18.118365 
" style="fill: none; stroke: #000000; stroke-width: 0.8; stroke-linejoin: miter; stroke-linecap: square"/>
   </g>
   <g id="patch_5">
    <path d="M 41.278365 326.64351 
L 572.99976 326.64351 
" style="fill: none; stroke: #000000; stroke-width: 0.8; stroke-linejoin: miter; stroke-linecap: square"/>
   </g>
   <g id="patch_6">
    <path d="M 41.278365 18.118365 
L 572.99976 18.118365 
" style="fill: none; stroke: #000000; stroke-width: 0.8; stroke-linejoin: miter; stroke-linecap: square"/>
   </g>
   <g id="text_11">
    <!-- Edge of stability (fixed LR, bs=128) -->
    <g transform="translate(200.6925 12.118365) scale(0.12 -0.12)">
     <defs>
      <path id="DejaVuSans-45" d="M 628 4666 
L 3578 4666 
L 3578 4134 
L 1259 4134 
L 1259 2753 
L 3481 2753 
L 3481 2222 
L 1259 2222 
L 1259 531 
L 3634 531 
L 3634 0 
L 628 0 
L 628 4666 
z
" transform="scale(0.015625)"/>
      <path id="DejaVuSans-64" d="M 2906 2969 
L 2906 4863 
L 3481 4863 
L 3481 0 
L 2906 0 
L 2906 525 
Q 2725 213 2448 61 
Q 2172 -91 1784 -91 
Q 1150 -91 751 415 
Q 353 922 353 1747 
Q 353 2572 751 3078 
Q 1150 3584 1784 3584 
Q 2172 3584 2448 3432 
Q 2725 3281 2906 2969 
z
M 947 1747 
Q 947 1113 1208 752 
Q 1469 391 1925 391 
Q 2381 391 2643 752 
Q 2906 1113 2906 1747 
Q 2906 2381 2643 2742 
Q 2381 3103 1925 3103 
Q 1469 3103 1208 2742 
Q 947 2381 947 1747 
z
" transform="scale(0.015625)"/>
      <path id="DejaVuSans-66" d="M 2375 4863 
L 2375 4384 
L 1825 4384 
Q 1516 4384 1395 4259 
Q 1275 4134 1275 3809 
L 1275 3500 
L 2222 3500 
L 2222 3053 
L 1275 3053 
L 1275 0 
L 697 0 
L 697 3053 
L 147 3053 
L 147 3500 
L 697 3500 
L 697 3744 
Q 697 4328 969 4595 
Q 1241 4863 1831 4863 
L 2375 4863 
z
" transform="scale(0.015625)"/>
      <path id="DejaVuSans-62" d="M 3116 1747 
Q 3116 2381 2855 2742 
Q 2594 3103 2138 3103 
Q 1681 3103 1420 2742 
Q 1159 2381 1159 1747 
Q 1159 1113 1420 752 
Q 1681 391 2138 391 
Q 2594 391 2855 752 
Q 3116 1113 3116 1747 
z
M 1159 2969 
Q 1341 3281 1617 3432 
Q 1894 3584 2278 3584 
Q 2916 3584 3314 3078 
Q 3713 2572 3713 1747 
Q 3713 922 3314 415 
Q 2916 -91 2278 -91 
Q 1894 -91 1617 61 
Q 1341 213 1159 525 
L 1159 0 
L 581 0 
L 581 4863 
L 1159 4863 
L 1159 2969 
z
" transform="scale(0.015625)"/>
      <path id="DejaVuSans-79" d="M 2059 -325 
Q 1816 -950 1584 -1140 
Q 1353 -1331 966 -1331 
L 506 -1331 
L 506 -850 
L 844 -850 
Q 1081 -850 1212 -737 
Q 1344 -625 1503 -206 
L 1606 56 
L 191 3500 
L 800 3500 
L 1894 763 
L 2988 3500 
L 3597 3500 
L 2059 -325 
z
" transform="scale(0.015625)"/>
      <path id="DejaVuSans-78" d="M 3513 3500 
L 2247 1797 
L 3578 0 
L 2900 0 
L 1881 1375 
L 863 0 
L 184 0 
L 1544 1831 
L 300 3500 
L 978 3500 
L 1906 2253 
L 2834 3500 
L 3513 3500 
z
" transform="scale(0.015625)"/>
      <path id="DejaVuSans-4c" d="M 628 4666 
L 1259 4666 
L 1259 531 
L 3531 531 
L 3531 0 
L 628 0 
L 628 4666 
z
" transform="scale(0.015625)"/>
      <path id="DejaVuSans-52" d="M 2841 2188 
Q 3044 2119 3236 1894 
Q 3428 1669 3622 1275 
L 4263 0 
L 3584 0 
L 2988 1197 
Q 2756 1666 2539 1819 
Q 2322 1972 1947 1972 
L 1259 1972 
L 1259 0 
L 628 0 
L 628 4666 
L 2053 4666 
Q 2853 4666 3247 4331 
Q 3641 3997 3641 3322 
Q 3641 2881 3436 2590 
Q 3231 2300 2841 2188 
z
M 1259 4147 
L 1259 2491 
L 2053 2491 
Q 2509 2491 2742 2702 
Q 2975 2913 2975 3322 
Q 2975 3731 2742 3939 
Q 2509 4147 2053 4147 
L 1259 4147 
z
" transform="scale(0.015625)"/>
      <path id="DejaVuSans-2c" d="M 750 794 
L 1409 794 
L 1409 256 
L 897 -744 
L 494 -744 
L 750 256 
L 750 794 
z
" transform="scale(0.015625)"/>
      <path id="DejaVuSans-3d" d="M 678 2906 
L 4684 2906 
L 4684 2381 
L 678 2381 
L 678 2906 
z
M 678 1631 
L 4684 1631 
L 4684 1100 
L 678 1100 
L 678 1631 
z
" transform="scale(0.015625)"/>
     </defs>
     <use xlink:href="#DejaVuSans-45"/>
     <use xlink:href="#DejaVuSans-64" transform="translate(63.183594 0)"/>
     <use xlink:href="#DejaVuSans-67" transform="translate(126.660156 0)"/>
     <use xlink:href="#DejaVuSans-65" transform="translate(190.136719 0)"/>
     <use xlink:href="#DejaVuSans-20" transform="translate(251.660156 0)"/>
     <use xlink:href="#DejaVuSans-6f" transform="translate(283.447266 0)"/>
     <use xlink:href="#DejaVuSans-66" transform="translate(344.628906 0)"/>
     <use xlink:href="#DejaVuSans-20" transform="translate(379.833984 0)"/>
     <use xlink:href="#DejaVuSans-73" transform="translate(411.621094 0)"/>
     <use xlink:href="#DejaVuSans-74" transform="translate(463.720703 0)"/>
     <use xlink:href="#DejaVuSans-61" transform="translate(502.929688 0)"/>
     <use xlink:href="#DejaVuSans-62" transform="translate(564.208984 0)"/>
     <use xlink:href="#DejaVuSans-69" transform="translate(627.685547 0)"/>
     <use xlink:href="#DejaVuSans-6c" transform="translate(655.46875 0)"/>
     <use xlink:href="#DejaVuSans-69" transform="translate(683.251953 0)"/>
     <use xlink:href="#DejaVuSans-74" transform="translate(711.035156 0)"/>
     <use xlink:href="#DejaVuSans-79" transform="translate(750.244141 0)"/>
     <use xlink:href="#DejaVuSans-20" transform="translate(809.423828 0)"/>
     <use xlink:href="#DejaVuSans-28" transform="translate(841.210938 0)"/>
     <use xlink:href="#DejaVuSans-66" transform="translate(880.224609 0)"/>
     <use xlink:href="#DejaVuSans-69" transform="translate(915.429688 0)"/>
     <use xlink:href="#DejaVuSans-78" transform="translate(943.212891 0)"/>
     <use xlink:href="#DejaVuSans-65" transform="translate(999.267578 0)"/>
     <use xlink:href="#DejaVuSans-64" transform="translate(1060.791016 0)"/>
     <use xlink:href="#DejaVuSans-20" transform="translate(1124.267578 0)"/>
     <use xlink:href="#DejaVuSans-4c" transform="translate(1156.054688 0)"/>
     <use xlink:href="#DejaVuSans-52" transform="translate(1211.767578 0)"/>
     <use xlink:href="#DejaVuSans-2c" transform="translate(1281.25 0)"/>
     <use xlink:href="#DejaVuSans-20" transform="translate(1313.037109 0)"/>
     <use xlink:href="#DejaVuSans-62" transform="translate(1344.824219 0)"/>
     <use xlink:href="#DejaVuSans-73" transform="translate(1408.300781 0)"/>
     <use xlink:href="#DejaVuSans-3d" transform="translate(1460.400391 0)"/>
     <use xlink:href="#DejaVuSans-31" transform="translate(1544.189453 0)"/>
     <use xlink:href="#DejaVuSans-32" transform="translate(1607.8125 0)"/>
     <use xlink:href="#DejaVuSans-38" transform="translate(1671.435547 0)"/>
     <use xlink:href="#DejaVuSans-29" transform="translate(1735.058594 0)"/>
    </g>
   </g>
   <g id="legend_1">
    <g id="patch_7">
     <path d="M 511.59601 208.808438 
L 567.39976 208.808438 
Q 568.99976 208.808438 568.99976 207.208438 
L 568.99976 137.553438 
Q 568.99976 135.953438 567.39976 135.953438 
L 511.59601 135.953438 
Q 509.99601 135.953438 509.99601 137.553438 
L 509.99601 207.208438 
Q 509.99601 208.808438 511.59601 208.808438 
z
" style="fill: #ffffff; opacity: 0.8; stroke: #cccccc; stroke-linejoin: miter"/>
    </g>
    <g id="line2d_53">
     <path d="M 513.19601 142.432187 
L 521.19601 142.432187 
L 529.19601 142.432187 
" style="fill: none; stroke: #1f77b4; stroke-width: 1.2; stroke-linecap: square"/>
    </g>
    <g id="text_12">
     <!-- lr=1e-2 -->
     <g transform="translate(535.59601 145.232188) scale(0.08 -0.08)">
      <defs>
       <path id="DejaVuSans-2d" d="M 313 2009 
L 1997 2009 
L 1997 1497 
L 313 1497 
L 313 2009 
z
" transform="scale(0.015625)"/>
      </defs>
      <use xlink:href="#DejaVuSans-6c"/>
      <use xlink:href="#DejaVuSans-72" transform="translate(27.783203 0)"/>
      <use xlink:href="#DejaVuSans-3d" transform="translate(68.896484 0)"/>
      <use xlink:href="#DejaVuSans-31" transform="translate(152.685547 0)"/>
      <use xlink:href="#DejaVuSans-65" transform="translate(216.308594 0)"/>
      <use xlink:href="#DejaVuSans-2d" transform="translate(277.832031 0)"/>
      <use xlink:href="#DejaVuSans-32" transform="translate(313.916016 0)"/>
     </g>
    </g>
    <g id="line2d_54">
     <path d="M 513.19601 154.174688 
L 521.19601 154.174688 
L 529.19601 154.174688 
" style="fill: none; stroke: #ff7f0e; stroke-width: 1.2; stroke-linecap: square"/>
    </g>
    <g id="text_13">
     <!-- lr=2e-2 -->
     <g transform="translate(535.59601 156.974688) scale(0.08 -0.08)">
      <use xlink:href="#DejaVuSans-6c"/>
      <use xlink:href="#DejaVuSans-72" transform="translate(27.783203 0)"/>
      <use xlink:href="#DejaVuSans-3d" transform="translate(68.896484 0)"/>
      <use xlink:href="#DejaVuSans-32" transform="translate(152.685547 0)"/>
      <use xlink:href="#DejaVuSans-65" transform="translate(216.308594 0)"/>
      <use xlink:href="#DejaVuSans-2d" transform="translate(277.832031 0)"/>
      <use xlink:href="#DejaVuSans-32" transform="translate(313.916016 0)"/>
     </g>
    </g>
    <g id="line2d_55">
     <path d="M 513.19601 165.917188 
L 521.19601 165.917188 
L 529.19601 165.917188 
" style="fill: none; stroke: #2ca02c; stroke-width: 1.2; stroke-linecap: square"/>
    </g>
    <g id="text_14">
     <!-- lr=4e-2 -->
     <g transform="translate(535.59601 168.717188) scale(0.08 -0.08)">
      <use xlink:href="#DejaVuSans-6c"/>
      <use xlink:href="#DejaVuSans-72" transform="translate(27.783203 0)"/>
      <use xlink:href="#DejaVuSans-3d" transform="translate(68.896484 0)"/>
      <use xlink:href="#DejaVuSans-34" transform="translate(152.685547 0)"/>
      <use xlink:href="#DejaVuSans-65" transform="translate(216.308594 0)"/>
      <use xlink:href="#DejaVuSans-2d" transform="translate(277.832031 0)"/>
      <use xlink:href="#DejaVuSans-32" transform="translate(313.916016 0)"/>
     </g>
    </g>
    <g id="line2d_56">
     <path d="M 513.19601 177.659687 
L 521.19601 177.659687 
L 529.19601 177.659687 
" style="fill: none; stroke: #d62728; stroke-width: 1.2; stroke-linecap: square"/>
    </g>
    <g id="text_15">
     <!-- lr=8e-2 -->
     <g transform="translate(535.59601 180.459688) scale(0.08 -0.08)">
      <use xlink:href="#DejaVuSans-6c"/>
      <use xlink:href="#DejaVuSans-72" transform="translate(27.783203 0)"/>
      <use xlink:href="#DejaVuSans-3d" transform="translate(68.896484 0)"/>
      <use xlink:href="#DejaVuSans-38" transform="translate(152.685547 0)"/>
      <use xlink:href="#DejaVuSans-65" transform="translate(216.308594 0)"/>
      <use xlink:href="#DejaVuSans-2d" transform="translate(277.832031 0)"/>
      <use xlink:href="#DejaVuSans-32" transform="translate(313.916016 0)"/>
     </g>
    </g>
    <g id="line2d_57">
     <path d="M 513.19601 189.402187 
L 521.19601 189.402187 
L 529.19601 189.402187 
" style="fill: none; stroke: #9467bd; stroke-width: 1.2; stroke-linecap: square"/>
    </g>
    <g id="text_16">
     <!-- lr=2e-1 -->
     <g transform="translate(535.59601 192.202188) scale(0.08 -0.08)">
      <use xlink:href="#DejaVuSans-6c"/>
      <use xlink:href="#DejaVuSans-72" transform="translate(27.783203 0)"/>
      <use xlink:href="#DejaVuSans-3d" transform="translate(68.896484 0)"/>
      <use xlink:href="#DejaVuSans-32" transform="translate(152.685547 0)"/>
      <use xlink:href="#DejaVuSans-65" transform="translate(216.308594 0)"/>
      <use xlink:href="#DejaVuSans-2d" transform="translate(277.832031 0)"/>
      <use xlink:href="#DejaVuSans-31" transform="translate(313.916016 0)"/>
     </g>
    </g>
    <g id="line2d_58">
     <path d="M 513.19601 201.144688 
L 521.19601 201.144688 
L 529.19601 201.144688 
" style="fill: none; stroke: #8c564b; stroke-width: 1.2; stroke-linecap: square"/>
    </g>
    <g id="text_17">
     <!-- lr=1e0 -->
     <g transform="translate(535.59601 203.944688) scale(0.08 -0.08)">
      <use xlink:href="#DejaVuSans-6c"/>
      <use xlink:href="#DejaVuSans-72" transform="translate(27.783203 0)"/>
      <use xlink:href="#DejaVuSans-3d" transform="translate(68.896484 0)"/>
      <use xlink:href="#DejaVuSans-31" transform="translate(152.685547 0)"/>
      <use xlink:href="#DejaVuSans-65" transform="translate(216.308594 0)"/>
      <use xlink:href="#DejaVuSans-30" transform="translate(277.832031 0)"/>
     </g>
    </g>
   </g>
  </g>
 </g>
 <defs>
  <clipPath id="pe7cfc1c35e">
   <rect x="41.278365" y="18.118365" width="531.721395" height="308.525145"/>
  </clipPath>
 </defs>
</svg>
