<?xml version="1.0" encoding="utf-8" standalone="no"?>
<!DOCTYPE svg PUBLIC "-//W3C//DTD SVG 1.1//EN"
  "http://www.w3.org/Graphics/SVG/1.1/DTD/svg11.dtd">
<svg xmlns:xlink="http://www.w3.org/1999/xlink" width="576pt" height="360pt" viewBox="0 0 576 360" xmlns="http://www.w3.org/2000/svg" version="1.1">
 <metadata>
  <rdf:RDF xmlns:dc="http://purl.org/dc/elements/1.1/" xmlns:cc="http://creativecommons.org/ns#" xmlns:rdf="http://www.w3.org/1999/02/22-rdf-syntax-ns#">
   <cc:Work>
    <dc:type rdf:resource="http://purl.org/dc/dcmitype/StillImage"/>
    <dc:date>2026-04-27T23:55:25.627603</dc:date>
    <dc:format>image/svg+xml</dc:format>
    <dc:creator>
     <cc:Agent>
      <dc:title>Matplotlib v3.10.9, https://matplotlib.org/</dc:title>
     </cc:Agent>
    </dc:creator>
   </cc:Work>
  </rdf:RDF>
 </metadata>
 <defs>
  <style type="text/css">*{stroke-linejoin: round; stroke-linecap: butt}</style>
 </defs>
 <g id="figure_1">
  <g id="patch_1">
   <path d="M 0 360 
L 576 360 
L 576 0 
L 0 0 
z
" style="fill: #ffffff"/>
  </g>
  <g id="axes_1">
   <g id="patch_2">
    <path d="M 39.58149 326.64351 
L 572.99976 326.64351 
L 572.99976 18.118365 
L 39.58149 18.118365 
z
" style="fill: #ffffff"/>
   </g>
   <g id="matplotlib.axis_1">
    <g id="xtick_1">
     <g id="line2d_1">
      <path d="M 115.7841 326.64351 
L 115.7841 18.118365 
" clip-path="url(#p1c0d8f5d9d)" style="fill: none; stroke: #b0b0b0; stroke-opacity: 0.3; stroke-width: 0.8; stroke-linecap: square"/>
     </g>
     <g id="line2d_2">
      <defs>
       <path id="mb9cacf6106" d="M 0 0 
L 0 3.5 
" style="stroke: #000000; stroke-width: 0.8"/>
      </defs>
      <g>
       <use xlink:href="#mb9cacf6106" x="115.7841" y="326.64351" style="stroke: #000000; stroke-width: 0.8"/>
      </g>
     </g>
     <g id="text_1">
      <!-- 500 -->
      <g transform="translate(106.24035 341.241947) scale(0.1 -0.1)">
       <defs>
        <path id="DejaVuSans-35" d="M 691 4666 
L 3169 4666 
L 3169 4134 
L 1269 4134 
L 1269 2991 
Q 1406 3038 1543 3061 
Q 1681 3084 1819 3084 
Q 2600 3084 3056 2656 
Q 3513 2228 3513 1497 
Q 3513 744 3044 326 
Q 2575 -91 1722 -91 
Q 1428 -91 1123 -41 
Q 819 9 494 109 
L 494 744 
Q 775 591 1075 516 
Q 1375 441 1709 441 
Q 2250 441 2565 725 
Q 2881 1009 2881 1497 
Q 2881 1984 2565 2268 
Q 2250 2553 1709 2553 
Q 1456 2553 1204 2497 
Q 953 2441 691 2322 
L 691 4666 
z
" transform="scale(0.015625)"/>
        <path id="DejaVuSans-30" d="M 2034 4250 
Q 1547 4250 1301 3770 
Q 1056 3291 1056 2328 
Q 1056 1369 1301 889 
Q 1547 409 2034 409 
Q 2525 409 2770 889 
Q 3016 1369 3016 2328 
Q 3016 3291 2770 3770 
Q 2525 4250 2034 4250 
z
M 2034 4750 
Q 2819 4750 3233 4129 
Q 3647 3509 3647 2328 
Q 3647 1150 3233 529 
Q 2819 -91 2034 -91 
Q 1250 -91 836 529 
Q 422 1150 422 2328 
Q 422 3509 836 4129 
Q 1250 4750 2034 4750 
z
" transform="scale(0.015625)"/>
       </defs>
       <use xlink:href="#DejaVuSans-35"/>
       <use xlink:href="#DejaVuSans-30" transform="translate(63.623047 0)"/>
       <use xlink:href="#DejaVuSans-30" transform="translate(127.246094 0)"/>
      </g>
     </g>
    </g>
    <g id="xtick_2">
     <g id="line2d_3">
      <path d="M 202.377975 326.64351 
L 202.377975 18.118365 
" clip-path="url(#p1c0d8f5d9d)" style="fill: none; stroke: #b0b0b0; stroke-opacity: 0.3; stroke-width: 0.8; stroke-linecap: square"/>
     </g>
     <g id="line2d_4">
      <g>
       <use xlink:href="#mb9cacf6106" x="202.377975" y="326.64351" style="stroke: #000000; stroke-width: 0.8"/>
      </g>
     </g>
     <g id="text_2">
      <!-- 1000 -->
      <g transform="translate(189.652975 341.241947) scale(0.1 -0.1)">
       <defs>
        <path id="DejaVuSans-31" d="M 794 531 
L 1825 531 
L 1825 4091 
L 703 3866 
L 703 4441 
L 1819 4666 
L 2450 4666 
L 2450 531 
L 3481 531 
L 3481 0 
L 794 0 
L 794 531 
z
" transform="scale(0.015625)"/>
       </defs>
       <use xlink:href="#DejaVuSans-31"/>
       <use xlink:href="#DejaVuSans-30" transform="translate(63.623047 0)"/>
       <use xlink:href="#DejaVuSans-30" transform="translate(127.246094 0)"/>
       <use xlink:href="#DejaVuSans-30" transform="translate(190.869141 0)"/>
      </g>
     </g>
    </g>
    <g id="xtick_3">
     <g id="line2d_5">
      <path d="M 288.97185 326.64351 
L 288.97185 18.118365 
" clip-path="url(#p1c0d8f5d9d)" style="fill: none; stroke: #b0b0b0; stroke-opacity: 0.3; stroke-width: 0.8; stroke-linecap: square"/>
     </g>
     <g id="line2d_6">
      <g>
       <use xlink:href="#mb9cacf6106" x="288.97185" y="326.64351" style="stroke: #000000; stroke-width: 0.8"/>
      </g>
     </g>
     <g id="text_3">
      <!-- 1500 -->
      <g transform="translate(276.24685 341.241947) scale(0.1 -0.1)">
       <use xlink:href="#DejaVuSans-31"/>
       <use xlink:href="#DejaVuSans-35" transform="translate(63.623047 0)"/>
       <use xlink:href="#DejaVuSans-30" transform="translate(127.246094 0)"/>
       <use xlink:href="#DejaVuSans-30" transform="translate(190.869141 0)"/>
      </g>
     </g>
    </g>
    <g id="xtick_4">
     <g id="line2d_7">
      <path d="M 375.565725 326.64351 
L 375.565725 18.118365 
" clip-path="url(#p1c0d8f5d9d)" style="fill: none; stroke: #b0b0b0; stroke-opacity: 0.3; stroke-width: 0.8; stroke-linecap: square"/>
     </g>
     <g id="line2d_8">
      <g>
       <use xlink:href="#mb9cacf6106" x="375.565725" y="326.64351" style="stroke: #000000; stroke-width: 0.8"/>
      </g>
     </g>
     <g id="text_4">
      <!-- 2000 -->
      <g transform="translate(362.840725 341.241947) scale(0.1 -0.1)">
       <defs>
        <path id="DejaVuSans-32" d="M 1228 531 
L 3431 531 
L 3431 0 
L 469 0 
L 469 531 
Q 828 903 1448 1529 
Q 2069 2156 2228 2338 
Q 2531 2678 2651 2914 
Q 2772 3150 2772 3378 
Q 2772 3750 2511 3984 
Q 2250 4219 1831 4219 
Q 1534 4219 1204 4116 
Q 875 4013 500 3803 
L 500 4441 
Q 881 4594 1212 4672 
Q 1544 4750 1819 4750 
Q 2544 4750 2975 4387 
Q 3406 4025 3406 3419 
Q 3406 3131 3298 2873 
Q 3191 2616 2906 2266 
Q 2828 2175 2409 1742 
Q 1991 1309 1228 531 
z
" transform="scale(0.015625)"/>
       </defs>
       <use xlink:href="#DejaVuSans-32"/>
       <use xlink:href="#DejaVuSans-30" transform="translate(63.623047 0)"/>
       <use xlink:href="#DejaVuSans-30" transform="translate(127.246094 0)"/>
       <use xlink:href="#DejaVuSans-30" transform="translate(190.869141 0)"/>
      </g>
     </g>
    </g>
    <g id="xtick_5">
     <g id="line2d_9">
      <path d="M 462.1596 326.64351 
L 462.1596 18.118365 
" clip-path="url(#p1c0d8f5d9d)" style="fill: none; stroke: #b0b0b0; stroke-opacity: 0.3; stroke-width: 0.8; stroke-linecap: square"/>
     </g>
     <g id="line2d_10">
      <g>
       <use xlink:href="#mb9cacf6106" x="462.1596" y="326.64351" style="stroke: #000000; stroke-width: 0.8"/>
      </g>
     </g>
     <g id="text_5">
      <!-- 2500 -->
      <g transform="translate(449.4346 341.241947) scale(0.1 -0.1)">
       <use xlink:href="#DejaVuSans-32"/>
       <use xlink:href="#DejaVuSans-35" transform="translate(63.623047 0)"/>
       <use xlink:href="#DejaVuSans-30" transform="translate(127.246094 0)"/>
       <use xlink:href="#DejaVuSans-30" transform="translate(190.869141 0)"/>
      </g>
     </g>
    </g>
    <g id="xtick_6">
     <g id="line2d_11">
      <path d="M 548.753475 326.64351 
L 548.753475 18.118365 
" clip-path="url(#p1c0d8f5d9d)" style="fill: none; stroke: #b0b0b0; stroke-opacity: 0.3; stroke-width: 0.8; stroke-linecap: square"/>
     </g>
     <g id="line2d_12">
      <g>
       <use xlink:href="#mb9cacf6106" x="548.753475" y="326.64351" style="stroke: #000000; stroke-width: 0.8"/>
      </g>
     </g>
     <g id="text_6">
      <!-- 3000 -->
      <g transform="translate(536.028475 341.241947) scale(0.1 -0.1)">
       <defs>
        <path id="DejaVuSans-33" d="M 2597 2516 
Q 3050 2419 3304 2112 
Q 3559 1806 3559 1356 
Q 3559 666 3084 287 
Q 2609 -91 1734 -91 
Q 1441 -91 1130 -33 
Q 819 25 488 141 
L 488 750 
Q 750 597 1062 519 
Q 1375 441 1716 441 
Q 2309 441 2620 675 
Q 2931 909 2931 1356 
Q 2931 1769 2642 2001 
Q 2353 2234 1838 2234 
L 1294 2234 
L 1294 2753 
L 1863 2753 
Q 2328 2753 2575 2939 
Q 2822 3125 2822 3475 
Q 2822 3834 2567 4026 
Q 2313 4219 1838 4219 
Q 1578 4219 1281 4162 
Q 984 4106 628 3988 
L 628 4550 
Q 988 4650 1302 4700 
Q 1616 4750 1894 4750 
Q 2613 4750 3031 4423 
Q 3450 4097 3450 3541 
Q 3450 3153 3228 2886 
Q 3006 2619 2597 2516 
z
" transform="scale(0.015625)"/>
       </defs>
       <use xlink:href="#DejaVuSans-33"/>
       <use xlink:href="#DejaVuSans-30" transform="translate(63.623047 0)"/>
       <use xlink:href="#DejaVuSans-30" transform="translate(127.246094 0)"/>
       <use xlink:href="#DejaVuSans-30" transform="translate(190.869141 0)"/>
      </g>
     </g>
    </g>
    <g id="text_7">
     <!-- step -->
     <g transform="translate(295.475 354.920073) scale(0.1 -0.1)">
      <defs>
       <path id="DejaVuSans-73" d="M 2834 3397 
L 2834 2853 
Q 2591 2978 2328 3040 
Q 2066 3103 1784 3103 
Q 1356 3103 1142 2972 
Q 928 2841 928 2578 
Q 928 2378 1081 2264 
Q 1234 2150 1697 2047 
L 1894 2003 
Q 2506 1872 2764 1633 
Q 3022 1394 3022 966 
Q 3022 478 2636 193 
Q 2250 -91 1575 -91 
Q 1294 -91 989 -36 
Q 684 19 347 128 
L 347 722 
Q 666 556 975 473 
Q 1284 391 1588 391 
Q 1994 391 2212 530 
Q 2431 669 2431 922 
Q 2431 1156 2273 1281 
Q 2116 1406 1581 1522 
L 1381 1569 
Q 847 1681 609 1914 
Q 372 2147 372 2553 
Q 372 3047 722 3315 
Q 1072 3584 1716 3584 
Q 2034 3584 2315 3537 
Q 2597 3491 2834 3397 
z
" transform="scale(0.015625)"/>
       <path id="DejaVuSans-74" d="M 1172 4494 
L 1172 3500 
L 2356 3500 
L 2356 3053 
L 1172 3053 
L 1172 1153 
Q 1172 725 1289 603 
Q 1406 481 1766 481 
L 2356 481 
L 2356 0 
L 1766 0 
Q 1100 0 847 248 
Q 594 497 594 1153 
L 594 3053 
L 172 3053 
L 172 3500 
L 594 3500 
L 594 4494 
L 1172 4494 
z
" transform="scale(0.015625)"/>
       <path id="DejaVuSans-65" d="M 3597 1894 
L 3597 1613 
L 953 1613 
Q 991 1019 1311 708 
Q 1631 397 2203 397 
Q 2534 397 2845 478 
Q 3156 559 3463 722 
L 3463 178 
Q 3153 47 2828 -22 
Q 2503 -91 2169 -91 
Q 1331 -91 842 396 
Q 353 884 353 1716 
Q 353 2575 817 3079 
Q 1281 3584 2069 3584 
Q 2775 3584 3186 3129 
Q 3597 2675 3597 1894 
z
M 3022 2063 
Q 3016 2534 2758 2815 
Q 2500 3097 2075 3097 
Q 1594 3097 1305 2825 
Q 1016 2553 972 2059 
L 3022 2063 
z
" transform="scale(0.015625)"/>
       <path id="DejaVuSans-70" d="M 1159 525 
L 1159 -1331 
L 581 -1331 
L 581 3500 
L 1159 3500 
L 1159 2969 
Q 1341 3281 1617 3432 
Q 1894 3584 2278 3584 
Q 2916 3584 3314 3078 
Q 3713 2572 3713 1747 
Q 3713 922 3314 415 
Q 2916 -91 2278 -91 
Q 1894 -91 1617 61 
Q 1341 213 1159 525 
z
M 3116 1747 
Q 3116 2381 2855 2742 
Q 2594 3103 2138 3103 
Q 1681 3103 1420 2742 
Q 1159 2381 1159 1747 
Q 1159 1113 1420 752 
Q 1681 391 2138 391 
Q 2594 391 2855 752 
Q 3116 1113 3116 1747 
z
" transform="scale(0.015625)"/>
      </defs>
      <use xlink:href="#DejaVuSans-73"/>
      <use xlink:href="#DejaVuSans-74" transform="translate(52.099609 0)"/>
      <use xlink:href="#DejaVuSans-65" transform="translate(91.308594 0)"/>
      <use xlink:href="#DejaVuSans-70" transform="translate(152.832031 0)"/>
     </g>
    </g>
   </g>
   <g id="matplotlib.axis_2">
    <g id="ytick_1">
     <g id="line2d_13">
      <path d="M 39.58149 308.60446 
L 572.99976 308.60446 
" clip-path="url(#p1c0d8f5d9d)" style="fill: none; stroke: #b0b0b0; stroke-opacity: 0.3; stroke-width: 0.8; stroke-linecap: square"/>
     </g>
     <g id="line2d_14">
      <defs>
       <path id="m49a63f45d7" d="M 0 0 
L -3.5 0 
" style="stroke: #000000; stroke-width: 0.8"/>
      </defs>
      <g>
       <use xlink:href="#m49a63f45d7" x="39.58149" y="308.60446" style="stroke: #000000; stroke-width: 0.8"/>
      </g>
     </g>
     <g id="text_8">
      <!-- 1.6 -->
      <g transform="translate(16.678365 312.403679) scale(0.1 -0.1)">
       <defs>
        <path id="DejaVuSans-2e" d="M 684 794 
L 1344 794 
L 1344 0 
L 684 0 
L 684 794 
z
" transform="scale(0.015625)"/>
        <path id="DejaVuSans-36" d="M 2113 2584 
Q 1688 2584 1439 2293 
Q 1191 2003 1191 1497 
Q 1191 994 1439 701 
Q 1688 409 2113 409 
Q 2538 409 2786 701 
Q 3034 994 3034 1497 
Q 3034 2003 2786 2293 
Q 2538 2584 2113 2584 
z
M 3366 4563 
L 3366 3988 
Q 3128 4100 2886 4159 
Q 2644 4219 2406 4219 
Q 1781 4219 1451 3797 
Q 1122 3375 1075 2522 
Q 1259 2794 1537 2939 
Q 1816 3084 2150 3084 
Q 2853 3084 3261 2657 
Q 3669 2231 3669 1497 
Q 3669 778 3244 343 
Q 2819 -91 2113 -91 
Q 1303 -91 875 529 
Q 447 1150 447 2328 
Q 447 3434 972 4092 
Q 1497 4750 2381 4750 
Q 2619 4750 2861 4703 
Q 3103 4656 3366 4563 
z
" transform="scale(0.015625)"/>
       </defs>
       <use xlink:href="#DejaVuSans-31"/>
       <use xlink:href="#DejaVuSans-2e" transform="translate(63.623047 0)"/>
       <use xlink:href="#DejaVuSans-36" transform="translate(95.410156 0)"/>
      </g>
     </g>
    </g>
    <g id="ytick_2">
     <g id="line2d_15">
      <path d="M 39.58149 253.450892 
L 572.99976 253.450892 
" clip-path="url(#p1c0d8f5d9d)" style="fill: none; stroke: #b0b0b0; stroke-opacity: 0.3; stroke-width: 0.8; stroke-linecap: square"/>
     </g>
     <g id="line2d_16">
      <g>
       <use xlink:href="#m49a63f45d7" x="39.58149" y="253.450892" style="stroke: #000000; stroke-width: 0.8"/>
      </g>
     </g>
     <g id="text_9">
      <!-- 1.8 -->
      <g transform="translate(16.678365 257.25011) scale(0.1 -0.1)">
       <defs>
        <path id="DejaVuSans-38" d="M 2034 2216 
Q 1584 2216 1326 1975 
Q 1069 1734 1069 1313 
Q 1069 891 1326 650 
Q 1584 409 2034 409 
Q 2484 409 2743 651 
Q 3003 894 3003 1313 
Q 3003 1734 2745 1975 
Q 2488 2216 2034 2216 
z
M 1403 2484 
Q 997 2584 770 2862 
Q 544 3141 544 3541 
Q 544 4100 942 4425 
Q 1341 4750 2034 4750 
Q 2731 4750 3128 4425 
Q 3525 4100 3525 3541 
Q 3525 3141 3298 2862 
Q 3072 2584 2669 2484 
Q 3125 2378 3379 2068 
Q 3634 1759 3634 1313 
Q 3634 634 3220 271 
Q 2806 -91 2034 -91 
Q 1263 -91 848 271 
Q 434 634 434 1313 
Q 434 1759 690 2068 
Q 947 2378 1403 2484 
z
M 1172 3481 
Q 1172 3119 1398 2916 
Q 1625 2713 2034 2713 
Q 2441 2713 2670 2916 
Q 2900 3119 2900 3481 
Q 2900 3844 2670 4047 
Q 2441 4250 2034 4250 
Q 1625 4250 1398 4047 
Q 1172 3844 1172 3481 
z
" transform="scale(0.015625)"/>
       </defs>
       <use xlink:href="#DejaVuSans-31"/>
       <use xlink:href="#DejaVuSans-2e" transform="translate(63.623047 0)"/>
       <use xlink:href="#DejaVuSans-38" transform="translate(95.410156 0)"/>
      </g>
     </g>
    </g>
    <g id="ytick_3">
     <g id="line2d_17">
      <path d="M 39.58149 198.297323 
L 572.99976 198.297323 
" clip-path="url(#p1c0d8f5d9d)" style="fill: none; stroke: #b0b0b0; stroke-opacity: 0.3; stroke-width: 0.8; stroke-linecap: square"/>
     </g>
     <g id="line2d_18">
      <g>
       <use xlink:href="#m49a63f45d7" x="39.58149" y="198.297323" style="stroke: #000000; stroke-width: 0.8"/>
      </g>
     </g>
     <g id="text_10">
      <!-- 2.0 -->
      <g transform="translate(16.678365 202.096542) scale(0.1 -0.1)">
       <use xlink:href="#DejaVuSans-32"/>
       <use xlink:href="#DejaVuSans-2e" transform="translate(63.623047 0)"/>
       <use xlink:href="#DejaVuSans-30" transform="translate(95.410156 0)"/>
      </g>
     </g>
    </g>
    <g id="ytick_4">
     <g id="line2d_19">
      <path d="M 39.58149 143.143755 
L 572.99976 143.143755 
" clip-path="url(#p1c0d8f5d9d)" style="fill: none; stroke: #b0b0b0; stroke-opacity: 0.3; stroke-width: 0.8; stroke-linecap: square"/>
     </g>
     <g id="line2d_20">
      <g>
       <use xlink:href="#m49a63f45d7" x="39.58149" y="143.143755" style="stroke: #000000; stroke-width: 0.8"/>
      </g>
     </g>
     <g id="text_11">
      <!-- 2.2 -->
      <g transform="translate(16.678365 146.942974) scale(0.1 -0.1)">
       <use xlink:href="#DejaVuSans-32"/>
       <use xlink:href="#DejaVuSans-2e" transform="translate(63.623047 0)"/>
       <use xlink:href="#DejaVuSans-32" transform="translate(95.410156 0)"/>
      </g>
     </g>
    </g>
    <g id="ytick_5">
     <g id="line2d_21">
      <path d="M 39.58149 87.990187 
L 572.99976 87.990187 
" clip-path="url(#p1c0d8f5d9d)" style="fill: none; stroke: #b0b0b0; stroke-opacity: 0.3; stroke-width: 0.8; stroke-linecap: square"/>
     </g>
     <g id="line2d_22">
      <g>
       <use xlink:href="#m49a63f45d7" x="39.58149" y="87.990187" style="stroke: #000000; stroke-width: 0.8"/>
      </g>
     </g>
     <g id="text_12">
      <!-- 2.4 -->
      <g transform="translate(16.678365 91.789406) scale(0.1 -0.1)">
       <defs>
        <path id="DejaVuSans-34" d="M 2419 4116 
L 825 1625 
L 2419 1625 
L 2419 4116 
z
M 2253 4666 
L 3047 4666 
L 3047 1625 
L 3713 1625 
L 3713 1100 
L 3047 1100 
L 3047 0 
L 2419 0 
L 2419 1100 
L 313 1100 
L 313 1709 
L 2253 4666 
z
" transform="scale(0.015625)"/>
       </defs>
       <use xlink:href="#DejaVuSans-32"/>
       <use xlink:href="#DejaVuSans-2e" transform="translate(63.623047 0)"/>
       <use xlink:href="#DejaVuSans-34" transform="translate(95.410156 0)"/>
      </g>
     </g>
    </g>
    <g id="ytick_6">
     <g id="line2d_23">
      <path d="M 39.58149 32.836619 
L 572.99976 32.836619 
" clip-path="url(#p1c0d8f5d9d)" style="fill: none; stroke: #b0b0b0; stroke-opacity: 0.3; stroke-width: 0.8; stroke-linecap: square"/>
     </g>
     <g id="line2d_24">
      <g>
       <use xlink:href="#m49a63f45d7" x="39.58149" y="32.836619" style="stroke: #000000; stroke-width: 0.8"/>
      </g>
     </g>
     <g id="text_13">
      <!-- 2.6 -->
      <g transform="translate(16.678365 36.635837) scale(0.1 -0.1)">
       <use xlink:href="#DejaVuSans-32"/>
       <use xlink:href="#DejaVuSans-2e" transform="translate(63.623047 0)"/>
       <use xlink:href="#DejaVuSans-36" transform="translate(95.410156 0)"/>
      </g>
     </g>
    </g>
    <g id="text_14">
     <!-- validation loss -->
     <g transform="translate(10.598677 208.245) rotate(-90) scale(0.1 -0.1)">
      <defs>
       <path id="DejaVuSans-76" d="M 191 3500 
L 800 3500 
L 1894 563 
L 2988 3500 
L 3597 3500 
L 2284 0 
L 1503 0 
L 191 3500 
z
" transform="scale(0.015625)"/>
       <path id="DejaVuSans-61" d="M 2194 1759 
Q 1497 1759 1228 1600 
Q 959 1441 959 1056 
Q 959 750 1161 570 
Q 1363 391 1709 391 
Q 2188 391 2477 730 
Q 2766 1069 2766 1631 
L 2766 1759 
L 2194 1759 
z
M 3341 1997 
L 3341 0 
L 2766 0 
L 2766 531 
Q 2569 213 2275 61 
Q 1981 -91 1556 -91 
Q 1019 -91 701 211 
Q 384 513 384 1019 
Q 384 1609 779 1909 
Q 1175 2209 1959 2209 
L 2766 2209 
L 2766 2266 
Q 2766 2663 2505 2880 
Q 2244 3097 1772 3097 
Q 1472 3097 1187 3025 
Q 903 2953 641 2809 
L 641 3341 
Q 956 3463 1253 3523 
Q 1550 3584 1831 3584 
Q 2591 3584 2966 3190 
Q 3341 2797 3341 1997 
z
" transform="scale(0.015625)"/>
       <path id="DejaVuSans-6c" d="M 603 4863 
L 1178 4863 
L 1178 0 
L 603 0 
L 603 4863 
z
" transform="scale(0.015625)"/>
       <path id="DejaVuSans-69" d="M 603 3500 
L 1178 3500 
L 1178 0 
L 603 0 
L 603 3500 
z
M 603 4863 
L 1178 4863 
L 1178 4134 
L 603 4134 
L 603 4863 
z
" transform="scale(0.015625)"/>
       <path id="DejaVuSans-64" d="M 2906 2969 
L 2906 4863 
L 3481 4863 
L 3481 0 
L 2906 0 
L 2906 525 
Q 2725 213 2448 61 
Q 2172 -91 1784 -91 
Q 1150 -91 751 415 
Q 353 922 353 1747 
Q 353 2572 751 3078 
Q 1150 3584 1784 3584 
Q 2172 3584 2448 3432 
Q 2725 3281 2906 2969 
z
M 947 1747 
Q 947 1113 1208 752 
Q 1469 391 1925 391 
Q 2381 391 2643 752 
Q 2906 1113 2906 1747 
Q 2906 2381 2643 2742 
Q 2381 3103 1925 3103 
Q 1469 3103 1208 2742 
Q 947 2381 947 1747 
z
" transform="scale(0.015625)"/>
       <path id="DejaVuSans-6f" d="M 1959 3097 
Q 1497 3097 1228 2736 
Q 959 2375 959 1747 
Q 959 1119 1226 758 
Q 1494 397 1959 397 
Q 2419 397 2687 759 
Q 2956 1122 2956 1747 
Q 2956 2369 2687 2733 
Q 2419 3097 1959 3097 
z
M 1959 3584 
Q 2709 3584 3137 3096 
Q 3566 2609 3566 1747 
Q 3566 888 3137 398 
Q 2709 -91 1959 -91 
Q 1206 -91 779 398 
Q 353 888 353 1747 
Q 353 2609 779 3096 
Q 1206 3584 1959 3584 
z
" transform="scale(0.015625)"/>
       <path id="DejaVuSans-6e" d="M 3513 2113 
L 3513 0 
L 2938 0 
L 2938 2094 
Q 2938 2591 2744 2837 
Q 2550 3084 2163 3084 
Q 1697 3084 1428 2787 
Q 1159 2491 1159 1978 
L 1159 0 
L 581 0 
L 581 3500 
L 1159 3500 
L 1159 2956 
Q 1366 3272 1645 3428 
Q 1925 3584 2291 3584 
Q 2894 3584 3203 3211 
Q 3513 2838 3513 2113 
z
" transform="scale(0.015625)"/>
       <path id="DejaVuSans-20" transform="scale(0.015625)"/>
      </defs>
      <use xlink:href="#DejaVuSans-76"/>
      <use xlink:href="#DejaVuSans-61" transform="translate(59.179688 0)"/>
      <use xlink:href="#DejaVuSans-6c" transform="translate(120.458984 0)"/>
      <use xlink:href="#DejaVuSans-69" transform="translate(148.242188 0)"/>
      <use xlink:href="#DejaVuSans-64" transform="translate(176.025391 0)"/>
      <use xlink:href="#DejaVuSans-61" transform="translate(239.501953 0)"/>
      <use xlink:href="#DejaVuSans-74" transform="translate(300.78125 0)"/>
      <use xlink:href="#DejaVuSans-69" transform="translate(339.990234 0)"/>
      <use xlink:href="#DejaVuSans-6f" transform="translate(367.773438 0)"/>
      <use xlink:href="#DejaVuSans-6e" transform="translate(428.955078 0)"/>
      <use xlink:href="#DejaVuSans-20" transform="translate(492.333984 0)"/>
      <use xlink:href="#DejaVuSans-6c" transform="translate(524.121094 0)"/>
      <use xlink:href="#DejaVuSans-6f" transform="translate(551.904297 0)"/>
      <use xlink:href="#DejaVuSans-73" transform="translate(613.085938 0)"/>
      <use xlink:href="#DejaVuSans-73" transform="translate(665.185547 0)"/>
     </g>
    </g>
   </g>
   <g id="line2d_25">
    <path d="M 63.827775 90.634249 
L 98.465325 181.866248 
L 133.102875 218.212725 
L 167.740425 240.522895 
L 202.377975 253.70515 
L 237.015525 264.435552 
L 271.653075 277.237798 
L 306.290625 278.640078 
L 340.928175 291.223916 
L 375.565725 292.20758 
L 410.203275 299.835594 
L 444.840825 302.958941 
L 479.478375 305.236232 
L 514.115925 311.549661 
L 548.753475 312.61964 
" clip-path="url(#p1c0d8f5d9d)" style="fill: none; stroke: #1f77b4; stroke-width: 1.2; stroke-linecap: square"/>
    <defs>
     <path id="mb8895088f2" d="M 0 1.5 
C 0.397805 1.5 0.77937 1.341951 1.06066 1.06066 
C 1.341951 0.77937 1.5 0.397805 1.5 0 
C 1.5 -0.397805 1.341951 -0.77937 1.06066 -1.06066 
C 0.77937 -1.341951 0.397805 -1.5 0 -1.5 
C -0.397805 -1.5 -0.77937 -1.341951 -1.06066 -1.06066 
C -1.341951 -0.77937 -1.5 -0.397805 -1.5 0 
C -1.5 0.397805 -1.341951 0.77937 -1.06066 1.06066 
C -0.77937 1.341951 -0.397805 1.5 0 1.5 
z
" style="stroke: #1f77b4"/>
    </defs>
    <g clip-path="url(#p1c0d8f5d9d)">
     <use xlink:href="#mb8895088f2" x="63.827775" y="90.634249" style="fill: #1f77b4; stroke: #1f77b4"/>
     <use xlink:href="#mb8895088f2" x="98.465325" y="181.866248" style="fill: #1f77b4; stroke: #1f77b4"/>
     <use xlink:href="#mb8895088f2" x="133.102875" y="218.212725" style="fill: #1f77b4; stroke: #1f77b4"/>
     <use xlink:href="#mb8895088f2" x="167.740425" y="240.522895" style="fill: #1f77b4; stroke: #1f77b4"/>
     <use xlink:href="#mb8895088f2" x="202.377975" y="253.70515" style="fill: #1f77b4; stroke: #1f77b4"/>
     <use xlink:href="#mb8895088f2" x="237.015525" y="264.435552" style="fill: #1f77b4; stroke: #1f77b4"/>
     <use xlink:href="#mb8895088f2" x="271.653075" y="277.237798" style="fill: #1f77b4; stroke: #1f77b4"/>
     <use xlink:href="#mb8895088f2" x="306.290625" y="278.640078" style="fill: #1f77b4; stroke: #1f77b4"/>
     <use xlink:href="#mb8895088f2" x="340.928175" y="291.223916" style="fill: #1f77b4; stroke: #1f77b4"/>
     <use xlink:href="#mb8895088f2" x="375.565725" y="292.20758" style="fill: #1f77b4; stroke: #1f77b4"/>
     <use xlink:href="#mb8895088f2" x="410.203275" y="299.835594" style="fill: #1f77b4; stroke: #1f77b4"/>
     <use xlink:href="#mb8895088f2" x="444.840825" y="302.958941" style="fill: #1f77b4; stroke: #1f77b4"/>
     <use xlink:href="#mb8895088f2" x="479.478375" y="305.236232" style="fill: #1f77b4; stroke: #1f77b4"/>
     <use xlink:href="#mb8895088f2" x="514.115925" y="311.549661" style="fill: #1f77b4; stroke: #1f77b4"/>
     <use xlink:href="#mb8895088f2" x="548.753475" y="312.61964" style="fill: #1f77b4; stroke: #1f77b4"/>
    </g>
   </g>
   <g id="line2d_26">
    <path d="M 63.827775 32.142235 
L 98.465325 151.137438 
L 133.102875 203.723883 
L 167.740425 231.365197 
L 202.377975 249.453085 
L 237.015525 261.369014 
L 271.653075 275.758028 
L 306.290625 277.447658 
L 340.928175 290.324913 
L 375.565725 291.998824 
L 410.203275 298.979611 
L 444.840825 302.406026 
L 479.478375 305.255535 
L 514.115925 312.051282 
L 548.753475 312.499129 
" clip-path="url(#p1c0d8f5d9d)" style="fill: none; stroke: #ff7f0e; stroke-width: 1.2; stroke-linecap: square"/>
    <defs>
     <path id="mf0df2baf15" d="M 0 1.5 
C 0.397805 1.5 0.77937 1.341951 1.06066 1.06066 
C 1.341951 0.77937 1.5 0.397805 1.5 0 
C 1.5 -0.397805 1.341951 -0.77937 1.06066 -1.06066 
C 0.77937 -1.341951 0.397805 -1.5 0 -1.5 
C -0.397805 -1.5 -0.77937 -1.341951 -1.06066 -1.06066 
C -1.341951 -0.77937 -1.5 -0.397805 -1.5 0 
C -1.5 0.397805 -1.341951 0.77937 -1.06066 1.06066 
C -0.77937 1.341951 -0.397805 1.5 0 1.5 
z
" style="stroke: #ff7f0e"/>
    </defs>
    <g clip-path="url(#p1c0d8f5d9d)">
     <use xlink:href="#mf0df2baf15" x="63.827775" y="32.142235" style="fill: #ff7f0e; stroke: #ff7f0e"/>
     <use xlink:href="#mf0df2baf15" x="98.465325" y="151.137438" style="fill: #ff7f0e; stroke: #ff7f0e"/>
     <use xlink:href="#mf0df2baf15" x="133.102875" y="203.723883" style="fill: #ff7f0e; stroke: #ff7f0e"/>
     <use xlink:href="#mf0df2baf15" x="167.740425" y="231.365197" style="fill: #ff7f0e; stroke: #ff7f0e"/>
     <use xlink:href="#mf0df2baf15" x="202.377975" y="249.453085" style="fill: #ff7f0e; stroke: #ff7f0e"/>
     <use xlink:href="#mf0df2baf15" x="237.015525" y="261.369014" style="fill: #ff7f0e; stroke: #ff7f0e"/>
     <use xlink:href="#mf0df2baf15" x="271.653075" y="275.758028" style="fill: #ff7f0e; stroke: #ff7f0e"/>
     <use xlink:href="#mf0df2baf15" x="306.290625" y="277.447658" style="fill: #ff7f0e; stroke: #ff7f0e"/>
     <use xlink:href="#mf0df2baf15" x="340.928175" y="290.324913" style="fill: #ff7f0e; stroke: #ff7f0e"/>
     <use xlink:href="#mf0df2baf15" x="375.565725" y="291.998824" style="fill: #ff7f0e; stroke: #ff7f0e"/>
     <use xlink:href="#mf0df2baf15" x="410.203275" y="298.979611" style="fill: #ff7f0e; stroke: #ff7f0e"/>
     <use xlink:href="#mf0df2baf15" x="444.840825" y="302.406026" style="fill: #ff7f0e; stroke: #ff7f0e"/>
     <use xlink:href="#mf0df2baf15" x="479.478375" y="305.255535" style="fill: #ff7f0e; stroke: #ff7f0e"/>
     <use xlink:href="#mf0df2baf15" x="514.115925" y="312.051282" style="fill: #ff7f0e; stroke: #ff7f0e"/>
     <use xlink:href="#mf0df2baf15" x="548.753475" y="312.499129" style="fill: #ff7f0e; stroke: #ff7f0e"/>
    </g>
   </g>
   <g id="patch_3">
    <path d="M 39.58149 326.64351 
L 39.58149 18.118365 
" style="fill: none; stroke: #000000; stroke-width: 0.8; stroke-linejoin: miter; stroke-linecap: square"/>
   </g>
   <g id="patch_4">
    <path d="M 572.99976 326.64351 
L 572.99976 18.118365 
" style="fill: none; stroke: #000000; stroke-width: 0.8; stroke-linejoin: miter; stroke-linecap: square"/>
   </g>
   <g id="patch_5">
    <path d="M 39.58149 326.64351 
L 572.99976 326.64351 
" style="fill: none; stroke: #000000; stroke-width: 0.8; stroke-linejoin: miter; stroke-linecap: square"/>
   </g>
   <g id="patch_6">
    <path d="M 39.58149 18.118365 
L 572.99976 18.118365 
" style="fill: none; stroke: #000000; stroke-width: 0.8; stroke-linejoin: miter; stroke-linecap: square"/>
   </g>
   <g id="text_15">
    <!-- SwiGLU vs SiLU FFN, parameter-matched (bs=128, lr=2e-3, 3000 steps) -->
    <g transform="translate(89.8125 12.118365) scale(0.12 -0.12)">
     <defs>
      <path id="DejaVuSans-53" d="M 3425 4513 
L 3425 3897 
Q 3066 4069 2747 4153 
Q 2428 4238 2131 4238 
Q 1616 4238 1336 4038 
Q 1056 3838 1056 3469 
Q 1056 3159 1242 3001 
Q 1428 2844 1947 2747 
L 2328 2669 
Q 3034 2534 3370 2195 
Q 3706 1856 3706 1288 
Q 3706 609 3251 259 
Q 2797 -91 1919 -91 
Q 1588 -91 1214 -16 
Q 841 59 441 206 
L 441 856 
Q 825 641 1194 531 
Q 1563 422 1919 422 
Q 2459 422 2753 634 
Q 3047 847 3047 1241 
Q 3047 1584 2836 1778 
Q 2625 1972 2144 2069 
L 1759 2144 
Q 1053 2284 737 2584 
Q 422 2884 422 3419 
Q 422 4038 858 4394 
Q 1294 4750 2059 4750 
Q 2388 4750 2728 4690 
Q 3069 4631 3425 4513 
z
" transform="scale(0.015625)"/>
      <path id="DejaVuSans-77" d="M 269 3500 
L 844 3500 
L 1563 769 
L 2278 3500 
L 2956 3500 
L 3675 769 
L 4391 3500 
L 4966 3500 
L 4050 0 
L 3372 0 
L 2619 2869 
L 1863 0 
L 1184 0 
L 269 3500 
z
" transform="scale(0.015625)"/>
      <path id="DejaVuSans-47" d="M 3809 666 
L 3809 1919 
L 2778 1919 
L 2778 2438 
L 4434 2438 
L 4434 434 
Q 4069 175 3628 42 
Q 3188 -91 2688 -91 
Q 1594 -91 976 548 
Q 359 1188 359 2328 
Q 359 3472 976 4111 
Q 1594 4750 2688 4750 
Q 3144 4750 3555 4637 
Q 3966 4525 4313 4306 
L 4313 3634 
Q 3963 3931 3569 4081 
Q 3175 4231 2741 4231 
Q 1884 4231 1454 3753 
Q 1025 3275 1025 2328 
Q 1025 1384 1454 906 
Q 1884 428 2741 428 
Q 3075 428 3337 486 
Q 3600 544 3809 666 
z
" transform="scale(0.015625)"/>
      <path id="DejaVuSans-4c" d="M 628 4666 
L 1259 4666 
L 1259 531 
L 3531 531 
L 3531 0 
L 628 0 
L 628 4666 
z
" transform="scale(0.015625)"/>
      <path id="DejaVuSans-55" d="M 556 4666 
L 1191 4666 
L 1191 1831 
Q 1191 1081 1462 751 
Q 1734 422 2344 422 
Q 2950 422 3222 751 
Q 3494 1081 3494 1831 
L 3494 4666 
L 4128 4666 
L 4128 1753 
Q 4128 841 3676 375 
Q 3225 -91 2344 -91 
Q 1459 -91 1007 375 
Q 556 841 556 1753 
L 556 4666 
z
" transform="scale(0.015625)"/>
      <path id="DejaVuSans-46" d="M 628 4666 
L 3309 4666 
L 3309 4134 
L 1259 4134 
L 1259 2759 
L 3109 2759 
L 3109 2228 
L 1259 2228 
L 1259 0 
L 628 0 
L 628 4666 
z
" transform="scale(0.015625)"/>
      <path id="DejaVuSans-4e" d="M 628 4666 
L 1478 4666 
L 3547 763 
L 3547 4666 
L 4159 4666 
L 4159 0 
L 3309 0 
L 1241 3903 
L 1241 0 
L 628 0 
L 628 4666 
z
" transform="scale(0.015625)"/>
      <path id="DejaVuSans-2c" d="M 750 794 
L 1409 794 
L 1409 256 
L 897 -744 
L 494 -744 
L 750 256 
L 750 794 
z
" transform="scale(0.015625)"/>
      <path id="DejaVuSans-72" d="M 2631 2963 
Q 2534 3019 2420 3045 
Q 2306 3072 2169 3072 
Q 1681 3072 1420 2755 
Q 1159 2438 1159 1844 
L 1159 0 
L 581 0 
L 581 3500 
L 1159 3500 
L 1159 2956 
Q 1341 3275 1631 3429 
Q 1922 3584 2338 3584 
Q 2397 3584 2469 3576 
Q 2541 3569 2628 3553 
L 2631 2963 
z
" transform="scale(0.015625)"/>
      <path id="DejaVuSans-6d" d="M 3328 2828 
Q 3544 3216 3844 3400 
Q 4144 3584 4550 3584 
Q 5097 3584 5394 3201 
Q 5691 2819 5691 2113 
L 5691 0 
L 5113 0 
L 5113 2094 
Q 5113 2597 4934 2840 
Q 4756 3084 4391 3084 
Q 3944 3084 3684 2787 
Q 3425 2491 3425 1978 
L 3425 0 
L 2847 0 
L 2847 2094 
Q 2847 2600 2669 2842 
Q 2491 3084 2119 3084 
Q 1678 3084 1418 2786 
Q 1159 2488 1159 1978 
L 1159 0 
L 581 0 
L 581 3500 
L 1159 3500 
L 1159 2956 
Q 1356 3278 1631 3431 
Q 1906 3584 2284 3584 
Q 2666 3584 2933 3390 
Q 3200 3197 3328 2828 
z
" transform="scale(0.015625)"/>
      <path id="DejaVuSans-2d" d="M 313 2009 
L 1997 2009 
L 1997 1497 
L 313 1497 
L 313 2009 
z
" transform="scale(0.015625)"/>
      <path id="DejaVuSans-63" d="M 3122 3366 
L 3122 2828 
Q 2878 2963 2633 3030 
Q 2388 3097 2138 3097 
Q 1578 3097 1268 2742 
Q 959 2388 959 1747 
Q 959 1106 1268 751 
Q 1578 397 2138 397 
Q 2388 397 2633 464 
Q 2878 531 3122 666 
L 3122 134 
Q 2881 22 2623 -34 
Q 2366 -91 2075 -91 
Q 1284 -91 818 406 
Q 353 903 353 1747 
Q 353 2603 823 3093 
Q 1294 3584 2113 3584 
Q 2378 3584 2631 3529 
Q 2884 3475 3122 3366 
z
" transform="scale(0.015625)"/>
      <path id="DejaVuSans-68" d="M 3513 2113 
L 3513 0 
L 2938 0 
L 2938 2094 
Q 2938 2591 2744 2837 
Q 2550 3084 2163 3084 
Q 1697 3084 1428 2787 
Q 1159 2491 1159 1978 
L 1159 0 
L 581 0 
L 581 4863 
L 1159 4863 
L 1159 2956 
Q 1366 3272 1645 3428 
Q 1925 3584 2291 3584 
Q 2894 3584 3203 3211 
Q 3513 2838 3513 2113 
z
" transform="scale(0.015625)"/>
      <path id="DejaVuSans-28" d="M 1984 4856 
Q 1566 4138 1362 3434 
Q 1159 2731 1159 2009 
Q 1159 1288 1364 580 
Q 1569 -128 1984 -844 
L 1484 -844 
Q 1016 -109 783 600 
Q 550 1309 550 2009 
Q 550 2706 781 3412 
Q 1013 4119 1484 4856 
L 1984 4856 
z
" transform="scale(0.015625)"/>
      <path id="DejaVuSans-62" d="M 3116 1747 
Q 3116 2381 2855 2742 
Q 2594 3103 2138 3103 
Q 1681 3103 1420 2742 
Q 1159 2381 1159 1747 
Q 1159 1113 1420 752 
Q 1681 391 2138 391 
Q 2594 391 2855 752 
Q 3116 1113 3116 1747 
z
M 1159 2969 
Q 1341 3281 1617 3432 
Q 1894 3584 2278 3584 
Q 2916 3584 3314 3078 
Q 3713 2572 3713 1747 
Q 3713 922 3314 415 
Q 2916 -91 2278 -91 
Q 1894 -91 1617 61 
Q 1341 213 1159 525 
L 1159 0 
L 581 0 
L 581 4863 
L 1159 4863 
L 1159 2969 
z
" transform="scale(0.015625)"/>
      <path id="DejaVuSans-3d" d="M 678 2906 
L 4684 2906 
L 4684 2381 
L 678 2381 
L 678 2906 
z
M 678 1631 
L 4684 1631 
L 4684 1100 
L 678 1100 
L 678 1631 
z
" transform="scale(0.015625)"/>
      <path id="DejaVuSans-29" d="M 513 4856 
L 1013 4856 
Q 1481 4119 1714 3412 
Q 1947 2706 1947 2009 
Q 1947 1309 1714 600 
Q 1481 -109 1013 -844 
L 513 -844 
Q 928 -128 1133 580 
Q 1338 1288 1338 2009 
Q 1338 2731 1133 3434 
Q 928 4138 513 4856 
z
" transform="scale(0.015625)"/>
     </defs>
     <use xlink:href="#DejaVuSans-53"/>
     <use xlink:href="#DejaVuSans-77" transform="translate(63.476562 0)"/>
     <use xlink:href="#DejaVuSans-69" transform="translate(145.263672 0)"/>
     <use xlink:href="#DejaVuSans-47" transform="translate(173.046875 0)"/>
     <use xlink:href="#DejaVuSans-4c" transform="translate(250.537109 0)"/>
     <use xlink:href="#DejaVuSans-55" transform="translate(301.25 0)"/>
     <use xlink:href="#DejaVuSans-20" transform="translate(374.443359 0)"/>
     <use xlink:href="#DejaVuSans-76" transform="translate(406.230469 0)"/>
     <use xlink:href="#DejaVuSans-73" transform="translate(465.410156 0)"/>
     <use xlink:href="#DejaVuSans-20" transform="translate(517.509766 0)"/>
     <use xlink:href="#DejaVuSans-53" transform="translate(549.296875 0)"/>
     <use xlink:href="#DejaVuSans-69" transform="translate(612.773438 0)"/>
     <use xlink:href="#DejaVuSans-4c" transform="translate(640.556641 0)"/>
     <use xlink:href="#DejaVuSans-55" transform="translate(691.269531 0)"/>
     <use xlink:href="#DejaVuSans-20" transform="translate(764.462891 0)"/>
     <use xlink:href="#DejaVuSans-46" transform="translate(796.25 0)"/>
     <use xlink:href="#DejaVuSans-46" transform="translate(853.769531 0)"/>
     <use xlink:href="#DejaVuSans-4e" transform="translate(911.289062 0)"/>
     <use xlink:href="#DejaVuSans-2c" transform="translate(986.09375 0)"/>
     <use xlink:href="#DejaVuSans-20" transform="translate(1017.880859 0)"/>
     <use xlink:href="#DejaVuSans-70" transform="translate(1049.667969 0)"/>
     <use xlink:href="#DejaVuSans-61" transform="translate(1113.144531 0)"/>
     <use xlink:href="#DejaVuSans-72" transform="translate(1174.423828 0)"/>
     <use xlink:href="#DejaVuSans-61" transform="translate(1215.537109 0)"/>
     <use xlink:href="#DejaVuSans-6d" transform="translate(1276.816406 0)"/>
     <use xlink:href="#DejaVuSans-65" transform="translate(1374.228516 0)"/>
     <use xlink:href="#DejaVuSans-74" transform="translate(1435.751953 0)"/>
     <use xlink:href="#DejaVuSans-65" transform="translate(1474.960938 0)"/>
     <use xlink:href="#DejaVuSans-72" transform="translate(1536.484375 0)"/>
     <use xlink:href="#DejaVuSans-2d" transform="translate(1571.222656 0)"/>
     <use xlink:href="#DejaVuSans-6d" transform="translate(1607.306641 0)"/>
     <use xlink:href="#DejaVuSans-61" transform="translate(1704.71875 0)"/>
     <use xlink:href="#DejaVuSans-74" transform="translate(1765.998047 0)"/>
     <use xlink:href="#DejaVuSans-63" transform="translate(1805.207031 0)"/>
     <use xlink:href="#DejaVuSans-68" transform="translate(1860.1875 0)"/>
     <use xlink:href="#DejaVuSans-65" transform="translate(1923.566406 0)"/>
     <use xlink:href="#DejaVuSans-64" transform="translate(1985.089844 0)"/>
     <use xlink:href="#DejaVuSans-20" transform="translate(2048.566406 0)"/>
     <use xlink:href="#DejaVuSans-28" transform="translate(2080.353516 0)"/>
     <use xlink:href="#DejaVuSans-62" transform="translate(2119.367188 0)"/>
     <use xlink:href="#DejaVuSans-73" transform="translate(2182.84375 0)"/>
     <use xlink:href="#DejaVuSans-3d" transform="translate(2234.943359 0)"/>
     <use xlink:href="#DejaVuSans-31" transform="translate(2318.732422 0)"/>
     <use xlink:href="#DejaVuSans-32" transform="translate(2382.355469 0)"/>
     <use xlink:href="#DejaVuSans-38" transform="translate(2445.978516 0)"/>
     <use xlink:href="#DejaVuSans-2c" transform="translate(2509.601562 0)"/>
     <use xlink:href="#DejaVuSans-20" transform="translate(2541.388672 0)"/>
     <use xlink:href="#DejaVuSans-6c" transform="translate(2573.175781 0)"/>
     <use xlink:href="#DejaVuSans-72" transform="translate(2600.958984 0)"/>
     <use xlink:href="#DejaVuSans-3d" transform="translate(2642.072266 0)"/>
     <use xlink:href="#DejaVuSans-32" transform="translate(2725.861328 0)"/>
     <use xlink:href="#DejaVuSans-65" transform="translate(2789.484375 0)"/>
     <use xlink:href="#DejaVuSans-2d" transform="translate(2851.007812 0)"/>
     <use xlink:href="#DejaVuSans-33" transform="translate(2887.091797 0)"/>
     <use xlink:href="#DejaVuSans-2c" transform="translate(2950.714844 0)"/>
     <use xlink:href="#DejaVuSans-20" transform="translate(2982.501953 0)"/>
     <use xlink:href="#DejaVuSans-33" transform="translate(3014.289062 0)"/>
     <use xlink:href="#DejaVuSans-30" transform="translate(3077.912109 0)"/>
     <use xlink:href="#DejaVuSans-30" transform="translate(3141.535156 0)"/>
     <use xlink:href="#DejaVuSans-30" transform="translate(3205.158203 0)"/>
     <use xlink:href="#DejaVuSans-20" transform="translate(3268.78125 0)"/>
     <use xlink:href="#DejaVuSans-73" transform="translate(3300.568359 0)"/>
     <use xlink:href="#DejaVuSans-74" transform="translate(3352.667969 0)"/>
     <use xlink:href="#DejaVuSans-65" transform="translate(3391.876953 0)"/>
     <use xlink:href="#DejaVuSans-70" transform="translate(3453.400391 0)"/>
     <use xlink:href="#DejaVuSans-73" transform="translate(3516.876953 0)"/>
     <use xlink:href="#DejaVuSans-29" transform="translate(3568.976562 0)"/>
    </g>
   </g>
   <g id="legend_1">
    <g id="patch_7">
     <path d="M 389.94476 48.448365 
L 567.39976 48.448365 
Q 568.99976 48.448365 568.99976 46.848365 
L 568.99976 23.718365 
Q 568.99976 22.118365 567.39976 22.118365 
L 389.94476 22.118365 
Q 388.34476 22.118365 388.34476 23.718365 
L 388.34476 46.848365 
Q 388.34476 48.448365 389.94476 48.448365 
z
" style="fill: #ffffff; opacity: 0.8; stroke: #cccccc; stroke-linejoin: miter"/>
    </g>
    <g id="line2d_27">
     <path d="M 391.54476 28.597115 
L 399.54476 28.597115 
L 407.54476 28.597115 
" style="fill: none; stroke: #1f77b4; stroke-width: 1.2; stroke-linecap: square"/>
     <g>
      <use xlink:href="#mb8895088f2" x="399.54476" y="28.597115" style="fill: #1f77b4; stroke: #1f77b4"/>
     </g>
    </g>
    <g id="text_16">
     <!-- SwiGLU baseline (d_ff=1344, lr=2e-3) -->
     <g transform="translate(413.94476 31.397115) scale(0.08 -0.08)">
      <defs>
       <path id="DejaVuSans-5f" d="M 3263 -1063 
L 3263 -1509 
L -63 -1509 
L -63 -1063 
L 3263 -1063 
z
" transform="scale(0.015625)"/>
       <path id="DejaVuSans-66" d="M 2375 4863 
L 2375 4384 
L 1825 4384 
Q 1516 4384 1395 4259 
Q 1275 4134 1275 3809 
L 1275 3500 
L 2222 3500 
L 2222 3053 
L 1275 3053 
L 1275 0 
L 697 0 
L 697 3053 
L 147 3053 
L 147 3500 
L 697 3500 
L 697 3744 
Q 697 4328 969 4595 
Q 1241 4863 1831 4863 
L 2375 4863 
z
" transform="scale(0.015625)"/>
      </defs>
      <use xlink:href="#DejaVuSans-53"/>
      <use xlink:href="#DejaVuSans-77" transform="translate(63.476562 0)"/>
      <use xlink:href="#DejaVuSans-69" transform="translate(145.263672 0)"/>
      <use xlink:href="#DejaVuSans-47" transform="translate(173.046875 0)"/>
      <use xlink:href="#DejaVuSans-4c" transform="translate(250.537109 0)"/>
      <use xlink:href="#DejaVuSans-55" transform="translate(301.25 0)"/>
      <use xlink:href="#DejaVuSans-20" transform="translate(374.443359 0)"/>
      <use xlink:href="#DejaVuSans-62" transform="translate(406.230469 0)"/>
      <use xlink:href="#DejaVuSans-61" transform="translate(469.707031 0)"/>
      <use xlink:href="#DejaVuSans-73" transform="translate(530.986328 0)"/>
      <use xlink:href="#DejaVuSans-65" transform="translate(583.085938 0)"/>
      <use xlink:href="#DejaVuSans-6c" transform="translate(644.609375 0)"/>
      <use xlink:href="#DejaVuSans-69" transform="translate(672.392578 0)"/>
      <use xlink:href="#DejaVuSans-6e" transform="translate(700.175781 0)"/>
      <use xlink:href="#DejaVuSans-65" transform="translate(763.554688 0)"/>
      <use xlink:href="#DejaVuSans-20" transform="translate(825.078125 0)"/>
      <use xlink:href="#DejaVuSans-28" transform="translate(856.865234 0)"/>
      <use xlink:href="#DejaVuSans-64" transform="translate(895.878906 0)"/>
      <use xlink:href="#DejaVuSans-5f" transform="translate(959.355469 0)"/>
      <use xlink:href="#DejaVuSans-66" transform="translate(1009.355469 0)"/>
      <use xlink:href="#DejaVuSans-66" transform="translate(1044.560547 0)"/>
      <use xlink:href="#DejaVuSans-3d" transform="translate(1079.765625 0)"/>
      <use xlink:href="#DejaVuSans-31" transform="translate(1163.554688 0)"/>
      <use xlink:href="#DejaVuSans-33" transform="translate(1227.177734 0)"/>
      <use xlink:href="#DejaVuSans-34" transform="translate(1290.800781 0)"/>
      <use xlink:href="#DejaVuSans-34" transform="translate(1354.423828 0)"/>
      <use xlink:href="#DejaVuSans-2c" transform="translate(1418.046875 0)"/>
      <use xlink:href="#DejaVuSans-20" transform="translate(1449.833984 0)"/>
      <use xlink:href="#DejaVuSans-6c" transform="translate(1481.621094 0)"/>
      <use xlink:href="#DejaVuSans-72" transform="translate(1509.404297 0)"/>
      <use xlink:href="#DejaVuSans-3d" transform="translate(1550.517578 0)"/>
      <use xlink:href="#DejaVuSans-32" transform="translate(1634.306641 0)"/>
      <use xlink:href="#DejaVuSans-65" transform="translate(1697.929688 0)"/>
      <use xlink:href="#DejaVuSans-2d" transform="translate(1759.453125 0)"/>
      <use xlink:href="#DejaVuSans-33" transform="translate(1795.537109 0)"/>
      <use xlink:href="#DejaVuSans-29" transform="translate(1859.160156 0)"/>
     </g>
    </g>
    <g id="line2d_28">
     <path d="M 391.54476 40.562115 
L 399.54476 40.562115 
L 407.54476 40.562115 
" style="fill: none; stroke: #ff7f0e; stroke-width: 1.2; stroke-linecap: square"/>
     <g>
      <use xlink:href="#mf0df2baf15" x="399.54476" y="40.562115" style="fill: #ff7f0e; stroke: #ff7f0e"/>
     </g>
    </g>
    <g id="text_17">
     <!-- SiLU FFN (d_ff=2048, lr=2e-3) -->
     <g transform="translate(413.94476 43.362115) scale(0.08 -0.08)">
      <use xlink:href="#DejaVuSans-53"/>
      <use xlink:href="#DejaVuSans-69" transform="translate(63.476562 0)"/>
      <use xlink:href="#DejaVuSans-4c" transform="translate(91.259766 0)"/>
      <use xlink:href="#DejaVuSans-55" transform="translate(141.972656 0)"/>
      <use xlink:href="#DejaVuSans-20" transform="translate(215.166016 0)"/>
      <use xlink:href="#DejaVuSans-46" transform="translate(246.953125 0)"/>
      <use xlink:href="#DejaVuSans-46" transform="translate(304.472656 0)"/>
      <use xlink:href="#DejaVuSans-4e" transform="translate(361.992188 0)"/>
      <use xlink:href="#DejaVuSans-20" transform="translate(436.796875 0)"/>
      <use xlink:href="#DejaVuSans-28" transform="translate(468.583984 0)"/>
      <use xlink:href="#DejaVuSans-64" transform="translate(507.597656 0)"/>
      <use xlink:href="#DejaVuSans-5f" transform="translate(571.074219 0)"/>
      <use xlink:href="#DejaVuSans-66" transform="translate(621.074219 0)"/>
      <use xlink:href="#DejaVuSans-66" transform="translate(656.279297 0)"/>
      <use xlink:href="#DejaVuSans-3d" transform="translate(691.484375 0)"/>
      <use xlink:href="#DejaVuSans-32" transform="translate(775.273438 0)"/>
      <use xlink:href="#DejaVuSans-30" transform="translate(838.896484 0)"/>
      <use xlink:href="#DejaVuSans-34" transform="translate(902.519531 0)"/>
      <use xlink:href="#DejaVuSans-38" transform="translate(966.142578 0)"/>
      <use xlink:href="#DejaVuSans-2c" transform="translate(1029.765625 0)"/>
      <use xlink:href="#DejaVuSans-20" transform="translate(1061.552734 0)"/>
      <use xlink:href="#DejaVuSans-6c" transform="translate(1093.339844 0)"/>
      <use xlink:href="#DejaVuSans-72" transform="translate(1121.123047 0)"/>
      <use xlink:href="#DejaVuSans-3d" transform="translate(1162.236328 0)"/>
      <use xlink:href="#DejaVuSans-32" transform="translate(1246.025391 0)"/>
      <use xlink:href="#DejaVuSans-65" transform="translate(1309.648438 0)"/>
      <use xlink:href="#DejaVuSans-2d" transform="translate(1371.171875 0)"/>
      <use xlink:href="#DejaVuSans-33" transform="translate(1407.255859 0)"/>
      <use xlink:href="#DejaVuSans-29" transform="translate(1470.878906 0)"/>
     </g>
    </g>
   </g>
  </g>
 </g>
 <defs>
  <clipPath id="p1c0d8f5d9d">
   <rect x="39.58149" y="18.118365" width="533.41827" height="308.525145"/>
  </clipPath>
 </defs>
</svg>
