<?xml version="1.0" encoding="utf-8" standalone="no"?>
<!DOCTYPE svg PUBLIC "-//W3C//DTD SVG 1.1//EN"
  "http://www.w3.org/Graphics/SVG/1.1/DTD/svg11.dtd">
<svg xmlns:xlink="http://www.w3.org/1999/xlink" width="936pt" height="360pt" viewBox="0 0 936 360" xmlns="http://www.w3.org/2000/svg" version="1.1">
 <metadata>
  <rdf:RDF xmlns:dc="http://purl.org/dc/elements/1.1/" xmlns:cc="http://creativecommons.org/ns#" xmlns:rdf="http://www.w3.org/1999/02/22-rdf-syntax-ns#">
   <cc:Work>
    <dc:type rdf:resource="http://purl.org/dc/dcmitype/StillImage"/>
    <dc:date>2026-04-30T23:23:36.409839</dc:date>
    <dc:format>image/svg+xml</dc:format>
    <dc:creator>
     <cc:Agent>
      <dc:title>Matplotlib v3.10.9, https://matplotlib.org/</dc:title>
     </cc:Agent>
    </dc:creator>
   </cc:Work>
  </rdf:RDF>
 </metadata>
 <defs>
  <style type="text/css">*{stroke-linejoin: round; stroke-linecap: butt}</style>
 </defs>
 <g id="figure_1">
  <g id="patch_1">
   <path d="M 0 360 
L 936 360 
L 936 0 
L 0 0 
z
" style="fill: #ffffff"/>
  </g>
  <g id="axes_1">
   <g id="patch_2">
    <path d="M 39.58149 326.64351 
L 463.32 326.64351 
L 463.32 20.61447 
L 39.58149 20.61447 
z
" style="fill: #ffffff"/>
   </g>
   <g id="matplotlib.axis_1">
    <g id="xtick_1">
     <g id="line2d_1">
      <path d="M 50.087403 326.64351 
L 50.087403 20.61447 
" clip-path="url(#pa846d2677e)" style="fill: none; stroke: #b0b0b0; stroke-opacity: 0.3; stroke-width: 0.8; stroke-linecap: square"/>
     </g>
     <g id="line2d_2">
      <defs>
       <path id="m0615f9ec63" d="M 0 0 
L 0 3.5 
" style="stroke: #000000; stroke-width: 0.8"/>
      </defs>
      <g>
       <use xlink:href="#m0615f9ec63" x="50.087403" y="326.64351" style="stroke: #000000; stroke-width: 0.8"/>
      </g>
     </g>
     <g id="text_1">
      <!-- 0 -->
      <g transform="translate(46.906153 341.241947) scale(0.1 -0.1)">
       <defs>
        <path id="DejaVuSans-30" d="M 2034 4250 
Q 1547 4250 1301 3770 
Q 1056 3291 1056 2328 
Q 1056 1369 1301 889 
Q 1547 409 2034 409 
Q 2525 409 2770 889 
Q 3016 1369 3016 2328 
Q 3016 3291 2770 3770 
Q 2525 4250 2034 4250 
z
M 2034 4750 
Q 2819 4750 3233 4129 
Q 3647 3509 3647 2328 
Q 3647 1150 3233 529 
Q 2819 -91 2034 -91 
Q 1250 -91 836 529 
Q 422 1150 422 2328 
Q 422 3509 836 4129 
Q 1250 4750 2034 4750 
z
" transform="scale(0.015625)"/>
       </defs>
       <use xlink:href="#DejaVuSans-30"/>
      </g>
     </g>
    </g>
    <g id="xtick_2">
     <g id="line2d_3">
      <path d="M 137.636682 326.64351 
L 137.636682 20.61447 
" clip-path="url(#pa846d2677e)" style="fill: none; stroke: #b0b0b0; stroke-opacity: 0.3; stroke-width: 0.8; stroke-linecap: square"/>
     </g>
     <g id="line2d_4">
      <g>
       <use xlink:href="#m0615f9ec63" x="137.636682" y="326.64351" style="stroke: #000000; stroke-width: 0.8"/>
      </g>
     </g>
     <g id="text_2">
      <!-- 10000 -->
      <g transform="translate(121.730432 341.241947) scale(0.1 -0.1)">
       <defs>
        <path id="DejaVuSans-31" d="M 794 531 
L 1825 531 
L 1825 4091 
L 703 3866 
L 703 4441 
L 1819 4666 
L 2450 4666 
L 2450 531 
L 3481 531 
L 3481 0 
L 794 0 
L 794 531 
z
" transform="scale(0.015625)"/>
       </defs>
       <use xlink:href="#DejaVuSans-31"/>
       <use xlink:href="#DejaVuSans-30" transform="translate(63.623047 0)"/>
       <use xlink:href="#DejaVuSans-30" transform="translate(127.246094 0)"/>
       <use xlink:href="#DejaVuSans-30" transform="translate(190.869141 0)"/>
       <use xlink:href="#DejaVuSans-30" transform="translate(254.492188 0)"/>
      </g>
     </g>
    </g>
    <g id="xtick_3">
     <g id="line2d_5">
      <path d="M 225.185961 326.64351 
L 225.185961 20.61447 
" clip-path="url(#pa846d2677e)" style="fill: none; stroke: #b0b0b0; stroke-opacity: 0.3; stroke-width: 0.8; stroke-linecap: square"/>
     </g>
     <g id="line2d_6">
      <g>
       <use xlink:href="#m0615f9ec63" x="225.185961" y="326.64351" style="stroke: #000000; stroke-width: 0.8"/>
      </g>
     </g>
     <g id="text_3">
      <!-- 20000 -->
      <g transform="translate(209.279711 341.241947) scale(0.1 -0.1)">
       <defs>
        <path id="DejaVuSans-32" d="M 1228 531 
L 3431 531 
L 3431 0 
L 469 0 
L 469 531 
Q 828 903 1448 1529 
Q 2069 2156 2228 2338 
Q 2531 2678 2651 2914 
Q 2772 3150 2772 3378 
Q 2772 3750 2511 3984 
Q 2250 4219 1831 4219 
Q 1534 4219 1204 4116 
Q 875 4013 500 3803 
L 500 4441 
Q 881 4594 1212 4672 
Q 1544 4750 1819 4750 
Q 2544 4750 2975 4387 
Q 3406 4025 3406 3419 
Q 3406 3131 3298 2873 
Q 3191 2616 2906 2266 
Q 2828 2175 2409 1742 
Q 1991 1309 1228 531 
z
" transform="scale(0.015625)"/>
       </defs>
       <use xlink:href="#DejaVuSans-32"/>
       <use xlink:href="#DejaVuSans-30" transform="translate(63.623047 0)"/>
       <use xlink:href="#DejaVuSans-30" transform="translate(127.246094 0)"/>
       <use xlink:href="#DejaVuSans-30" transform="translate(190.869141 0)"/>
       <use xlink:href="#DejaVuSans-30" transform="translate(254.492188 0)"/>
      </g>
     </g>
    </g>
    <g id="xtick_4">
     <g id="line2d_7">
      <path d="M 312.73524 326.64351 
L 312.73524 20.61447 
" clip-path="url(#pa846d2677e)" style="fill: none; stroke: #b0b0b0; stroke-opacity: 0.3; stroke-width: 0.8; stroke-linecap: square"/>
     </g>
     <g id="line2d_8">
      <g>
       <use xlink:href="#m0615f9ec63" x="312.73524" y="326.64351" style="stroke: #000000; stroke-width: 0.8"/>
      </g>
     </g>
     <g id="text_4">
      <!-- 30000 -->
      <g transform="translate(296.82899 341.241947) scale(0.1 -0.1)">
       <defs>
        <path id="DejaVuSans-33" d="M 2597 2516 
Q 3050 2419 3304 2112 
Q 3559 1806 3559 1356 
Q 3559 666 3084 287 
Q 2609 -91 1734 -91 
Q 1441 -91 1130 -33 
Q 819 25 488 141 
L 488 750 
Q 750 597 1062 519 
Q 1375 441 1716 441 
Q 2309 441 2620 675 
Q 2931 909 2931 1356 
Q 2931 1769 2642 2001 
Q 2353 2234 1838 2234 
L 1294 2234 
L 1294 2753 
L 1863 2753 
Q 2328 2753 2575 2939 
Q 2822 3125 2822 3475 
Q 2822 3834 2567 4026 
Q 2313 4219 1838 4219 
Q 1578 4219 1281 4162 
Q 984 4106 628 3988 
L 628 4550 
Q 988 4650 1302 4700 
Q 1616 4750 1894 4750 
Q 2613 4750 3031 4423 
Q 3450 4097 3450 3541 
Q 3450 3153 3228 2886 
Q 3006 2619 2597 2516 
z
" transform="scale(0.015625)"/>
       </defs>
       <use xlink:href="#DejaVuSans-33"/>
       <use xlink:href="#DejaVuSans-30" transform="translate(63.623047 0)"/>
       <use xlink:href="#DejaVuSans-30" transform="translate(127.246094 0)"/>
       <use xlink:href="#DejaVuSans-30" transform="translate(190.869141 0)"/>
       <use xlink:href="#DejaVuSans-30" transform="translate(254.492188 0)"/>
      </g>
     </g>
    </g>
    <g id="xtick_5">
     <g id="line2d_9">
      <path d="M 400.284519 326.64351 
L 400.284519 20.61447 
" clip-path="url(#pa846d2677e)" style="fill: none; stroke: #b0b0b0; stroke-opacity: 0.3; stroke-width: 0.8; stroke-linecap: square"/>
     </g>
     <g id="line2d_10">
      <g>
       <use xlink:href="#m0615f9ec63" x="400.284519" y="326.64351" style="stroke: #000000; stroke-width: 0.8"/>
      </g>
     </g>
     <g id="text_5">
      <!-- 40000 -->
      <g transform="translate(384.378269 341.241947) scale(0.1 -0.1)">
       <defs>
        <path id="DejaVuSans-34" d="M 2419 4116 
L 825 1625 
L 2419 1625 
L 2419 4116 
z
M 2253 4666 
L 3047 4666 
L 3047 1625 
L 3713 1625 
L 3713 1100 
L 3047 1100 
L 3047 0 
L 2419 0 
L 2419 1100 
L 313 1100 
L 313 1709 
L 2253 4666 
z
" transform="scale(0.015625)"/>
       </defs>
       <use xlink:href="#DejaVuSans-34"/>
       <use xlink:href="#DejaVuSans-30" transform="translate(63.623047 0)"/>
       <use xlink:href="#DejaVuSans-30" transform="translate(127.246094 0)"/>
       <use xlink:href="#DejaVuSans-30" transform="translate(190.869141 0)"/>
       <use xlink:href="#DejaVuSans-30" transform="translate(254.492188 0)"/>
      </g>
     </g>
    </g>
    <g id="text_6">
     <!-- step -->
     <g transform="translate(240.63512 354.920073) scale(0.1 -0.1)">
      <defs>
       <path id="DejaVuSans-73" d="M 2834 3397 
L 2834 2853 
Q 2591 2978 2328 3040 
Q 2066 3103 1784 3103 
Q 1356 3103 1142 2972 
Q 928 2841 928 2578 
Q 928 2378 1081 2264 
Q 1234 2150 1697 2047 
L 1894 2003 
Q 2506 1872 2764 1633 
Q 3022 1394 3022 966 
Q 3022 478 2636 193 
Q 2250 -91 1575 -91 
Q 1294 -91 989 -36 
Q 684 19 347 128 
L 347 722 
Q 666 556 975 473 
Q 1284 391 1588 391 
Q 1994 391 2212 530 
Q 2431 669 2431 922 
Q 2431 1156 2273 1281 
Q 2116 1406 1581 1522 
L 1381 1569 
Q 847 1681 609 1914 
Q 372 2147 372 2553 
Q 372 3047 722 3315 
Q 1072 3584 1716 3584 
Q 2034 3584 2315 3537 
Q 2597 3491 2834 3397 
z
" transform="scale(0.015625)"/>
       <path id="DejaVuSans-74" d="M 1172 4494 
L 1172 3500 
L 2356 3500 
L 2356 3053 
L 1172 3053 
L 1172 1153 
Q 1172 725 1289 603 
Q 1406 481 1766 481 
L 2356 481 
L 2356 0 
L 1766 0 
Q 1100 0 847 248 
Q 594 497 594 1153 
L 594 3053 
L 172 3053 
L 172 3500 
L 594 3500 
L 594 4494 
L 1172 4494 
z
" transform="scale(0.015625)"/>
       <path id="DejaVuSans-65" d="M 3597 1894 
L 3597 1613 
L 953 1613 
Q 991 1019 1311 708 
Q 1631 397 2203 397 
Q 2534 397 2845 478 
Q 3156 559 3463 722 
L 3463 178 
Q 3153 47 2828 -22 
Q 2503 -91 2169 -91 
Q 1331 -91 842 396 
Q 353 884 353 1716 
Q 353 2575 817 3079 
Q 1281 3584 2069 3584 
Q 2775 3584 3186 3129 
Q 3597 2675 3597 1894 
z
M 3022 2063 
Q 3016 2534 2758 2815 
Q 2500 3097 2075 3097 
Q 1594 3097 1305 2825 
Q 1016 2553 972 2059 
L 3022 2063 
z
" transform="scale(0.015625)"/>
       <path id="DejaVuSans-70" d="M 1159 525 
L 1159 -1331 
L 581 -1331 
L 581 3500 
L 1159 3500 
L 1159 2969 
Q 1341 3281 1617 3432 
Q 1894 3584 2278 3584 
Q 2916 3584 3314 3078 
Q 3713 2572 3713 1747 
Q 3713 922 3314 415 
Q 2916 -91 2278 -91 
Q 1894 -91 1617 61 
Q 1341 213 1159 525 
z
M 3116 1747 
Q 3116 2381 2855 2742 
Q 2594 3103 2138 3103 
Q 1681 3103 1420 2742 
Q 1159 2381 1159 1747 
Q 1159 1113 1420 752 
Q 1681 391 2138 391 
Q 2594 391 2855 752 
Q 3116 1113 3116 1747 
z
" transform="scale(0.015625)"/>
      </defs>
      <use xlink:href="#DejaVuSans-73"/>
      <use xlink:href="#DejaVuSans-74" transform="translate(52.099609 0)"/>
      <use xlink:href="#DejaVuSans-65" transform="translate(91.308594 0)"/>
      <use xlink:href="#DejaVuSans-70" transform="translate(152.832031 0)"/>
     </g>
    </g>
   </g>
   <g id="matplotlib.axis_2">
    <g id="ytick_1">
     <g id="line2d_11">
      <path d="M 39.58149 310.409262 
L 463.32 310.409262 
" clip-path="url(#pa846d2677e)" style="fill: none; stroke: #b0b0b0; stroke-opacity: 0.3; stroke-width: 0.8; stroke-linecap: square"/>
     </g>
     <g id="line2d_12">
      <defs>
       <path id="m9cd7139c5a" d="M 0 0 
L -3.5 0 
" style="stroke: #000000; stroke-width: 0.8"/>
      </defs>
      <g>
       <use xlink:href="#m9cd7139c5a" x="39.58149" y="310.409262" style="stroke: #000000; stroke-width: 0.8"/>
      </g>
     </g>
     <g id="text_7">
      <!-- 3.2 -->
      <g transform="translate(16.678365 314.20848) scale(0.1 -0.1)">
       <defs>
        <path id="DejaVuSans-2e" d="M 684 794 
L 1344 794 
L 1344 0 
L 684 0 
L 684 794 
z
" transform="scale(0.015625)"/>
       </defs>
       <use xlink:href="#DejaVuSans-33"/>
       <use xlink:href="#DejaVuSans-2e" transform="translate(63.623047 0)"/>
       <use xlink:href="#DejaVuSans-32" transform="translate(95.410156 0)"/>
      </g>
     </g>
    </g>
    <g id="ytick_2">
     <g id="line2d_13">
      <path d="M 39.58149 261.89491 
L 463.32 261.89491 
" clip-path="url(#pa846d2677e)" style="fill: none; stroke: #b0b0b0; stroke-opacity: 0.3; stroke-width: 0.8; stroke-linecap: square"/>
     </g>
     <g id="line2d_14">
      <g>
       <use xlink:href="#m9cd7139c5a" x="39.58149" y="261.89491" style="stroke: #000000; stroke-width: 0.8"/>
      </g>
     </g>
     <g id="text_8">
      <!-- 3.4 -->
      <g transform="translate(16.678365 265.694129) scale(0.1 -0.1)">
       <use xlink:href="#DejaVuSans-33"/>
       <use xlink:href="#DejaVuSans-2e" transform="translate(63.623047 0)"/>
       <use xlink:href="#DejaVuSans-34" transform="translate(95.410156 0)"/>
      </g>
     </g>
    </g>
    <g id="ytick_3">
     <g id="line2d_15">
      <path d="M 39.58149 213.380558 
L 463.32 213.380558 
" clip-path="url(#pa846d2677e)" style="fill: none; stroke: #b0b0b0; stroke-opacity: 0.3; stroke-width: 0.8; stroke-linecap: square"/>
     </g>
     <g id="line2d_16">
      <g>
       <use xlink:href="#m9cd7139c5a" x="39.58149" y="213.380558" style="stroke: #000000; stroke-width: 0.8"/>
      </g>
     </g>
     <g id="text_9">
      <!-- 3.6 -->
      <g transform="translate(16.678365 217.179777) scale(0.1 -0.1)">
       <defs>
        <path id="DejaVuSans-36" d="M 2113 2584 
Q 1688 2584 1439 2293 
Q 1191 2003 1191 1497 
Q 1191 994 1439 701 
Q 1688 409 2113 409 
Q 2538 409 2786 701 
Q 3034 994 3034 1497 
Q 3034 2003 2786 2293 
Q 2538 2584 2113 2584 
z
M 3366 4563 
L 3366 3988 
Q 3128 4100 2886 4159 
Q 2644 4219 2406 4219 
Q 1781 4219 1451 3797 
Q 1122 3375 1075 2522 
Q 1259 2794 1537 2939 
Q 1816 3084 2150 3084 
Q 2853 3084 3261 2657 
Q 3669 2231 3669 1497 
Q 3669 778 3244 343 
Q 2819 -91 2113 -91 
Q 1303 -91 875 529 
Q 447 1150 447 2328 
Q 447 3434 972 4092 
Q 1497 4750 2381 4750 
Q 2619 4750 2861 4703 
Q 3103 4656 3366 4563 
z
" transform="scale(0.015625)"/>
       </defs>
       <use xlink:href="#DejaVuSans-33"/>
       <use xlink:href="#DejaVuSans-2e" transform="translate(63.623047 0)"/>
       <use xlink:href="#DejaVuSans-36" transform="translate(95.410156 0)"/>
      </g>
     </g>
    </g>
    <g id="ytick_4">
     <g id="line2d_17">
      <path d="M 39.58149 164.866207 
L 463.32 164.866207 
" clip-path="url(#pa846d2677e)" style="fill: none; stroke: #b0b0b0; stroke-opacity: 0.3; stroke-width: 0.8; stroke-linecap: square"/>
     </g>
     <g id="line2d_18">
      <g>
       <use xlink:href="#m9cd7139c5a" x="39.58149" y="164.866207" style="stroke: #000000; stroke-width: 0.8"/>
      </g>
     </g>
     <g id="text_10">
      <!-- 3.8 -->
      <g transform="translate(16.678365 168.665425) scale(0.1 -0.1)">
       <defs>
        <path id="DejaVuSans-38" d="M 2034 2216 
Q 1584 2216 1326 1975 
Q 1069 1734 1069 1313 
Q 1069 891 1326 650 
Q 1584 409 2034 409 
Q 2484 409 2743 651 
Q 3003 894 3003 1313 
Q 3003 1734 2745 1975 
Q 2488 2216 2034 2216 
z
M 1403 2484 
Q 997 2584 770 2862 
Q 544 3141 544 3541 
Q 544 4100 942 4425 
Q 1341 4750 2034 4750 
Q 2731 4750 3128 4425 
Q 3525 4100 3525 3541 
Q 3525 3141 3298 2862 
Q 3072 2584 2669 2484 
Q 3125 2378 3379 2068 
Q 3634 1759 3634 1313 
Q 3634 634 3220 271 
Q 2806 -91 2034 -91 
Q 1263 -91 848 271 
Q 434 634 434 1313 
Q 434 1759 690 2068 
Q 947 2378 1403 2484 
z
M 1172 3481 
Q 1172 3119 1398 2916 
Q 1625 2713 2034 2713 
Q 2441 2713 2670 2916 
Q 2900 3119 2900 3481 
Q 2900 3844 2670 4047 
Q 2441 4250 2034 4250 
Q 1625 4250 1398 4047 
Q 1172 3844 1172 3481 
z
" transform="scale(0.015625)"/>
       </defs>
       <use xlink:href="#DejaVuSans-33"/>
       <use xlink:href="#DejaVuSans-2e" transform="translate(63.623047 0)"/>
       <use xlink:href="#DejaVuSans-38" transform="translate(95.410156 0)"/>
      </g>
     </g>
    </g>
    <g id="ytick_5">
     <g id="line2d_19">
      <path d="M 39.58149 116.351855 
L 463.32 116.351855 
" clip-path="url(#pa846d2677e)" style="fill: none; stroke: #b0b0b0; stroke-opacity: 0.3; stroke-width: 0.8; stroke-linecap: square"/>
     </g>
     <g id="line2d_20">
      <g>
       <use xlink:href="#m9cd7139c5a" x="39.58149" y="116.351855" style="stroke: #000000; stroke-width: 0.8"/>
      </g>
     </g>
     <g id="text_11">
      <!-- 4.0 -->
      <g transform="translate(16.678365 120.151074) scale(0.1 -0.1)">
       <use xlink:href="#DejaVuSans-34"/>
       <use xlink:href="#DejaVuSans-2e" transform="translate(63.623047 0)"/>
       <use xlink:href="#DejaVuSans-30" transform="translate(95.410156 0)"/>
      </g>
     </g>
    </g>
    <g id="ytick_6">
     <g id="line2d_21">
      <path d="M 39.58149 67.837503 
L 463.32 67.837503 
" clip-path="url(#pa846d2677e)" style="fill: none; stroke: #b0b0b0; stroke-opacity: 0.3; stroke-width: 0.8; stroke-linecap: square"/>
     </g>
     <g id="line2d_22">
      <g>
       <use xlink:href="#m9cd7139c5a" x="39.58149" y="67.837503" style="stroke: #000000; stroke-width: 0.8"/>
      </g>
     </g>
     <g id="text_12">
      <!-- 4.2 -->
      <g transform="translate(16.678365 71.636722) scale(0.1 -0.1)">
       <use xlink:href="#DejaVuSans-34"/>
       <use xlink:href="#DejaVuSans-2e" transform="translate(63.623047 0)"/>
       <use xlink:href="#DejaVuSans-32" transform="translate(95.410156 0)"/>
      </g>
     </g>
    </g>
    <g id="text_13">
     <!-- validation loss -->
     <g transform="translate(10.598678 209.493052) rotate(-90) scale(0.1 -0.1)">
      <defs>
       <path id="DejaVuSans-76" d="M 191 3500 
L 800 3500 
L 1894 563 
L 2988 3500 
L 3597 3500 
L 2284 0 
L 1503 0 
L 191 3500 
z
" transform="scale(0.015625)"/>
       <path id="DejaVuSans-61" d="M 2194 1759 
Q 1497 1759 1228 1600 
Q 959 1441 959 1056 
Q 959 750 1161 570 
Q 1363 391 1709 391 
Q 2188 391 2477 730 
Q 2766 1069 2766 1631 
L 2766 1759 
L 2194 1759 
z
M 3341 1997 
L 3341 0 
L 2766 0 
L 2766 531 
Q 2569 213 2275 61 
Q 1981 -91 1556 -91 
Q 1019 -91 701 211 
Q 384 513 384 1019 
Q 384 1609 779 1909 
Q 1175 2209 1959 2209 
L 2766 2209 
L 2766 2266 
Q 2766 2663 2505 2880 
Q 2244 3097 1772 3097 
Q 1472 3097 1187 3025 
Q 903 2953 641 2809 
L 641 3341 
Q 956 3463 1253 3523 
Q 1550 3584 1831 3584 
Q 2591 3584 2966 3190 
Q 3341 2797 3341 1997 
z
" transform="scale(0.015625)"/>
       <path id="DejaVuSans-6c" d="M 603 4863 
L 1178 4863 
L 1178 0 
L 603 0 
L 603 4863 
z
" transform="scale(0.015625)"/>
       <path id="DejaVuSans-69" d="M 603 3500 
L 1178 3500 
L 1178 0 
L 603 0 
L 603 3500 
z
M 603 4863 
L 1178 4863 
L 1178 4134 
L 603 4134 
L 603 4863 
z
" transform="scale(0.015625)"/>
       <path id="DejaVuSans-64" d="M 2906 2969 
L 2906 4863 
L 3481 4863 
L 3481 0 
L 2906 0 
L 2906 525 
Q 2725 213 2448 61 
Q 2172 -91 1784 -91 
Q 1150 -91 751 415 
Q 353 922 353 1747 
Q 353 2572 751 3078 
Q 1150 3584 1784 3584 
Q 2172 3584 2448 3432 
Q 2725 3281 2906 2969 
z
M 947 1747 
Q 947 1113 1208 752 
Q 1469 391 1925 391 
Q 2381 391 2643 752 
Q 2906 1113 2906 1747 
Q 2906 2381 2643 2742 
Q 2381 3103 1925 3103 
Q 1469 3103 1208 2742 
Q 947 2381 947 1747 
z
" transform="scale(0.015625)"/>
       <path id="DejaVuSans-6f" d="M 1959 3097 
Q 1497 3097 1228 2736 
Q 959 2375 959 1747 
Q 959 1119 1226 758 
Q 1494 397 1959 397 
Q 2419 397 2687 759 
Q 2956 1122 2956 1747 
Q 2956 2369 2687 2733 
Q 2419 3097 1959 3097 
z
M 1959 3584 
Q 2709 3584 3137 3096 
Q 3566 2609 3566 1747 
Q 3566 888 3137 398 
Q 2709 -91 1959 -91 
Q 1206 -91 779 398 
Q 353 888 353 1747 
Q 353 2609 779 3096 
Q 1206 3584 1959 3584 
z
" transform="scale(0.015625)"/>
       <path id="DejaVuSans-6e" d="M 3513 2113 
L 3513 0 
L 2938 0 
L 2938 2094 
Q 2938 2591 2744 2837 
Q 2550 3084 2163 3084 
Q 1697 3084 1428 2787 
Q 1159 2491 1159 1978 
L 1159 0 
L 581 0 
L 581 3500 
L 1159 3500 
L 1159 2956 
Q 1366 3272 1645 3428 
Q 1925 3584 2291 3584 
Q 2894 3584 3203 3211 
Q 3513 2838 3513 2113 
z
" transform="scale(0.015625)"/>
       <path id="DejaVuSans-20" transform="scale(0.015625)"/>
      </defs>
      <use xlink:href="#DejaVuSans-76"/>
      <use xlink:href="#DejaVuSans-61" transform="translate(59.179688 0)"/>
      <use xlink:href="#DejaVuSans-6c" transform="translate(120.458984 0)"/>
      <use xlink:href="#DejaVuSans-69" transform="translate(148.242188 0)"/>
      <use xlink:href="#DejaVuSans-64" transform="translate(176.025391 0)"/>
      <use xlink:href="#DejaVuSans-61" transform="translate(239.501953 0)"/>
      <use xlink:href="#DejaVuSans-74" transform="translate(300.78125 0)"/>
      <use xlink:href="#DejaVuSans-69" transform="translate(339.990234 0)"/>
      <use xlink:href="#DejaVuSans-6f" transform="translate(367.773438 0)"/>
      <use xlink:href="#DejaVuSans-6e" transform="translate(428.955078 0)"/>
      <use xlink:href="#DejaVuSans-20" transform="translate(492.333984 0)"/>
      <use xlink:href="#DejaVuSans-6c" transform="translate(524.121094 0)"/>
      <use xlink:href="#DejaVuSans-6f" transform="translate(551.904297 0)"/>
      <use xlink:href="#DejaVuSans-73" transform="translate(613.085938 0)"/>
      <use xlink:href="#DejaVuSans-73" transform="translate(665.185547 0)"/>
     </g>
    </g>
   </g>
   <g id="line2d_23">
    <path d="M 58.842331 34.524881 
L 67.597259 103.154496 
L 76.352187 140.703876 
L 85.107115 158.286448 
L 93.862043 175.33051 
L 102.616971 189.132115 
L 111.371899 193.136732 
L 120.126827 199.558334 
L 128.881755 205.043124 
L 137.636682 213.323554 
L 146.39161 219.254191 
L 155.146538 222.484519 
L 163.901466 228.486957 
L 172.656394 233.325778 
L 181.411322 230.338507 
L 190.16625 238.110749 
L 198.921178 231.287933 
L 207.676106 242.184984 
L 216.431033 238.855687 
L 225.185961 242.025372 
L 233.940889 244.793844 
L 242.695817 252.265054 
L 251.450745 249.973721 
L 260.205673 247.471593 
L 268.960601 252.668693 
L 277.715529 253.128609 
L 286.470457 252.768633 
L 295.225384 253.89174 
L 303.980312 257.574464 
L 312.73524 264.695643 
L 321.490168 256.079009 
L 330.245096 257.540262 
L 339.000024 258.781259 
L 347.754952 260.940147 
L 356.50988 262.103279 
L 365.264808 262.502067 
L 374.019735 267.196558 
L 382.774663 275.28002 
L 391.529591 280.93364 
L 400.284519 285.971612 
L 409.039447 299.674248 
L 417.794375 300.960364 
L 426.549303 302.242356 
L 435.304231 306.364863 
L 444.059159 312.733099 
" clip-path="url(#pa846d2677e)" style="fill: none; stroke: #1f77b4; stroke-width: 1.2; stroke-linecap: square"/>
    <defs>
     <path id="mcf6911b8c2" d="M 0 1.5 
C 0.397805 1.5 0.77937 1.341951 1.06066 1.06066 
C 1.341951 0.77937 1.5 0.397805 1.5 0 
C 1.5 -0.397805 1.341951 -0.77937 1.06066 -1.06066 
C 0.77937 -1.341951 0.397805 -1.5 0 -1.5 
C -0.397805 -1.5 -0.77937 -1.341951 -1.06066 -1.06066 
C -1.341951 -0.77937 -1.5 -0.397805 -1.5 0 
C -1.5 0.397805 -1.341951 0.77937 -1.06066 1.06066 
C -0.77937 1.341951 -0.397805 1.5 0 1.5 
z
" style="stroke: #1f77b4"/>
    </defs>
    <g clip-path="url(#pa846d2677e)">
     <use xlink:href="#mcf6911b8c2" x="58.842331" y="34.524881" style="fill: #1f77b4; stroke: #1f77b4"/>
     <use xlink:href="#mcf6911b8c2" x="67.597259" y="103.154496" style="fill: #1f77b4; stroke: #1f77b4"/>
     <use xlink:href="#mcf6911b8c2" x="76.352187" y="140.703876" style="fill: #1f77b4; stroke: #1f77b4"/>
     <use xlink:href="#mcf6911b8c2" x="85.107115" y="158.286448" style="fill: #1f77b4; stroke: #1f77b4"/>
     <use xlink:href="#mcf6911b8c2" x="93.862043" y="175.33051" style="fill: #1f77b4; stroke: #1f77b4"/>
     <use xlink:href="#mcf6911b8c2" x="102.616971" y="189.132115" style="fill: #1f77b4; stroke: #1f77b4"/>
     <use xlink:href="#mcf6911b8c2" x="111.371899" y="193.136732" style="fill: #1f77b4; stroke: #1f77b4"/>
     <use xlink:href="#mcf6911b8c2" x="120.126827" y="199.558334" style="fill: #1f77b4; stroke: #1f77b4"/>
     <use xlink:href="#mcf6911b8c2" x="128.881755" y="205.043124" style="fill: #1f77b4; stroke: #1f77b4"/>
     <use xlink:href="#mcf6911b8c2" x="137.636682" y="213.323554" style="fill: #1f77b4; stroke: #1f77b4"/>
     <use xlink:href="#mcf6911b8c2" x="146.39161" y="219.254191" style="fill: #1f77b4; stroke: #1f77b4"/>
     <use xlink:href="#mcf6911b8c2" x="155.146538" y="222.484519" style="fill: #1f77b4; stroke: #1f77b4"/>
     <use xlink:href="#mcf6911b8c2" x="163.901466" y="228.486957" style="fill: #1f77b4; stroke: #1f77b4"/>
     <use xlink:href="#mcf6911b8c2" x="172.656394" y="233.325778" style="fill: #1f77b4; stroke: #1f77b4"/>
     <use xlink:href="#mcf6911b8c2" x="181.411322" y="230.338507" style="fill: #1f77b4; stroke: #1f77b4"/>
     <use xlink:href="#mcf6911b8c2" x="190.16625" y="238.110749" style="fill: #1f77b4; stroke: #1f77b4"/>
     <use xlink:href="#mcf6911b8c2" x="198.921178" y="231.287933" style="fill: #1f77b4; stroke: #1f77b4"/>
     <use xlink:href="#mcf6911b8c2" x="207.676106" y="242.184984" style="fill: #1f77b4; stroke: #1f77b4"/>
     <use xlink:href="#mcf6911b8c2" x="216.431033" y="238.855687" style="fill: #1f77b4; stroke: #1f77b4"/>
     <use xlink:href="#mcf6911b8c2" x="225.185961" y="242.025372" style="fill: #1f77b4; stroke: #1f77b4"/>
     <use xlink:href="#mcf6911b8c2" x="233.940889" y="244.793844" style="fill: #1f77b4; stroke: #1f77b4"/>
     <use xlink:href="#mcf6911b8c2" x="242.695817" y="252.265054" style="fill: #1f77b4; stroke: #1f77b4"/>
     <use xlink:href="#mcf6911b8c2" x="251.450745" y="249.973721" style="fill: #1f77b4; stroke: #1f77b4"/>
     <use xlink:href="#mcf6911b8c2" x="260.205673" y="247.471593" style="fill: #1f77b4; stroke: #1f77b4"/>
     <use xlink:href="#mcf6911b8c2" x="268.960601" y="252.668693" style="fill: #1f77b4; stroke: #1f77b4"/>
     <use xlink:href="#mcf6911b8c2" x="277.715529" y="253.128609" style="fill: #1f77b4; stroke: #1f77b4"/>
     <use xlink:href="#mcf6911b8c2" x="286.470457" y="252.768633" style="fill: #1f77b4; stroke: #1f77b4"/>
     <use xlink:href="#mcf6911b8c2" x="295.225384" y="253.89174" style="fill: #1f77b4; stroke: #1f77b4"/>
     <use xlink:href="#mcf6911b8c2" x="303.980312" y="257.574464" style="fill: #1f77b4; stroke: #1f77b4"/>
     <use xlink:href="#mcf6911b8c2" x="312.73524" y="264.695643" style="fill: #1f77b4; stroke: #1f77b4"/>
     <use xlink:href="#mcf6911b8c2" x="321.490168" y="256.079009" style="fill: #1f77b4; stroke: #1f77b4"/>
     <use xlink:href="#mcf6911b8c2" x="330.245096" y="257.540262" style="fill: #1f77b4; stroke: #1f77b4"/>
     <use xlink:href="#mcf6911b8c2" x="339.000024" y="258.781259" style="fill: #1f77b4; stroke: #1f77b4"/>
     <use xlink:href="#mcf6911b8c2" x="347.754952" y="260.940147" style="fill: #1f77b4; stroke: #1f77b4"/>
     <use xlink:href="#mcf6911b8c2" x="356.50988" y="262.103279" style="fill: #1f77b4; stroke: #1f77b4"/>
     <use xlink:href="#mcf6911b8c2" x="365.264808" y="262.502067" style="fill: #1f77b4; stroke: #1f77b4"/>
     <use xlink:href="#mcf6911b8c2" x="374.019735" y="267.196558" style="fill: #1f77b4; stroke: #1f77b4"/>
     <use xlink:href="#mcf6911b8c2" x="382.774663" y="275.28002" style="fill: #1f77b4; stroke: #1f77b4"/>
     <use xlink:href="#mcf6911b8c2" x="391.529591" y="280.93364" style="fill: #1f77b4; stroke: #1f77b4"/>
     <use xlink:href="#mcf6911b8c2" x="400.284519" y="285.971612" style="fill: #1f77b4; stroke: #1f77b4"/>
     <use xlink:href="#mcf6911b8c2" x="409.039447" y="299.674248" style="fill: #1f77b4; stroke: #1f77b4"/>
     <use xlink:href="#mcf6911b8c2" x="417.794375" y="300.960364" style="fill: #1f77b4; stroke: #1f77b4"/>
     <use xlink:href="#mcf6911b8c2" x="426.549303" y="302.242356" style="fill: #1f77b4; stroke: #1f77b4"/>
     <use xlink:href="#mcf6911b8c2" x="435.304231" y="306.364863" style="fill: #1f77b4; stroke: #1f77b4"/>
     <use xlink:href="#mcf6911b8c2" x="444.059159" y="312.733099" style="fill: #1f77b4; stroke: #1f77b4"/>
    </g>
   </g>
   <g id="patch_3">
    <path d="M 39.58149 326.64351 
L 39.58149 20.61447 
" style="fill: none; stroke: #000000; stroke-width: 0.8; stroke-linejoin: miter; stroke-linecap: square"/>
   </g>
   <g id="patch_4">
    <path d="M 463.32 326.64351 
L 463.32 20.61447 
" style="fill: none; stroke: #000000; stroke-width: 0.8; stroke-linejoin: miter; stroke-linecap: square"/>
   </g>
   <g id="patch_5">
    <path d="M 39.58149 326.64351 
L 463.32 326.64351 
" style="fill: none; stroke: #000000; stroke-width: 0.8; stroke-linejoin: miter; stroke-linecap: square"/>
   </g>
   <g id="patch_6">
    <path d="M 39.58149 20.61447 
L 463.32 20.61447 
" style="fill: none; stroke: #000000; stroke-width: 0.8; stroke-linejoin: miter; stroke-linecap: square"/>
   </g>
   <g id="legend_1">
    <g id="patch_7">
     <path d="M 278.0475 38.75697 
L 457.72 38.75697 
Q 459.32 38.75697 459.32 37.15697 
L 459.32 26.21447 
Q 459.32 24.61447 457.72 24.61447 
L 278.0475 24.61447 
Q 276.4475 24.61447 276.4475 26.21447 
L 276.4475 37.15697 
Q 276.4475 38.75697 278.0475 38.75697 
z
" style="fill: #ffffff; opacity: 0.8; stroke: #cccccc; stroke-linejoin: miter"/>
    </g>
    <g id="line2d_24">
     <path d="M 279.6475 31.09322 
L 287.6475 31.09322 
L 295.6475 31.09322 
" style="fill: none; stroke: #1f77b4; stroke-width: 1.2; stroke-linecap: square"/>
     <g>
      <use xlink:href="#mcf6911b8c2" x="287.6475" y="31.09322" style="fill: #1f77b4; stroke: #1f77b4"/>
     </g>
    </g>
    <g id="text_14">
     <!-- Phase 5 final (val=3.190 @ 45K steps) -->
     <g transform="translate(302.0475 33.89322) scale(0.08 -0.08)">
      <defs>
       <path id="DejaVuSans-50" d="M 1259 4147 
L 1259 2394 
L 2053 2394 
Q 2494 2394 2734 2622 
Q 2975 2850 2975 3272 
Q 2975 3691 2734 3919 
Q 2494 4147 2053 4147 
L 1259 4147 
z
M 628 4666 
L 2053 4666 
Q 2838 4666 3239 4311 
Q 3641 3956 3641 3272 
Q 3641 2581 3239 2228 
Q 2838 1875 2053 1875 
L 1259 1875 
L 1259 0 
L 628 0 
L 628 4666 
z
" transform="scale(0.015625)"/>
       <path id="DejaVuSans-68" d="M 3513 2113 
L 3513 0 
L 2938 0 
L 2938 2094 
Q 2938 2591 2744 2837 
Q 2550 3084 2163 3084 
Q 1697 3084 1428 2787 
Q 1159 2491 1159 1978 
L 1159 0 
L 581 0 
L 581 4863 
L 1159 4863 
L 1159 2956 
Q 1366 3272 1645 3428 
Q 1925 3584 2291 3584 
Q 2894 3584 3203 3211 
Q 3513 2838 3513 2113 
z
" transform="scale(0.015625)"/>
       <path id="DejaVuSans-35" d="M 691 4666 
L 3169 4666 
L 3169 4134 
L 1269 4134 
L 1269 2991 
Q 1406 3038 1543 3061 
Q 1681 3084 1819 3084 
Q 2600 3084 3056 2656 
Q 3513 2228 3513 1497 
Q 3513 744 3044 326 
Q 2575 -91 1722 -91 
Q 1428 -91 1123 -41 
Q 819 9 494 109 
L 494 744 
Q 775 591 1075 516 
Q 1375 441 1709 441 
Q 2250 441 2565 725 
Q 2881 1009 2881 1497 
Q 2881 1984 2565 2268 
Q 2250 2553 1709 2553 
Q 1456 2553 1204 2497 
Q 953 2441 691 2322 
L 691 4666 
z
" transform="scale(0.015625)"/>
       <path id="DejaVuSans-66" d="M 2375 4863 
L 2375 4384 
L 1825 4384 
Q 1516 4384 1395 4259 
Q 1275 4134 1275 3809 
L 1275 3500 
L 2222 3500 
L 2222 3053 
L 1275 3053 
L 1275 0 
L 697 0 
L 697 3053 
L 147 3053 
L 147 3500 
L 697 3500 
L 697 3744 
Q 697 4328 969 4595 
Q 1241 4863 1831 4863 
L 2375 4863 
z
" transform="scale(0.015625)"/>
       <path id="DejaVuSans-28" d="M 1984 4856 
Q 1566 4138 1362 3434 
Q 1159 2731 1159 2009 
Q 1159 1288 1364 580 
Q 1569 -128 1984 -844 
L 1484 -844 
Q 1016 -109 783 600 
Q 550 1309 550 2009 
Q 550 2706 781 3412 
Q 1013 4119 1484 4856 
L 1984 4856 
z
" transform="scale(0.015625)"/>
       <path id="DejaVuSans-3d" d="M 678 2906 
L 4684 2906 
L 4684 2381 
L 678 2381 
L 678 2906 
z
M 678 1631 
L 4684 1631 
L 4684 1100 
L 678 1100 
L 678 1631 
z
" transform="scale(0.015625)"/>
       <path id="DejaVuSans-39" d="M 703 97 
L 703 672 
Q 941 559 1184 500 
Q 1428 441 1663 441 
Q 2288 441 2617 861 
Q 2947 1281 2994 2138 
Q 2813 1869 2534 1725 
Q 2256 1581 1919 1581 
Q 1219 1581 811 2004 
Q 403 2428 403 3163 
Q 403 3881 828 4315 
Q 1253 4750 1959 4750 
Q 2769 4750 3195 4129 
Q 3622 3509 3622 2328 
Q 3622 1225 3098 567 
Q 2575 -91 1691 -91 
Q 1453 -91 1209 -44 
Q 966 3 703 97 
z
M 1959 2075 
Q 2384 2075 2632 2365 
Q 2881 2656 2881 3163 
Q 2881 3666 2632 3958 
Q 2384 4250 1959 4250 
Q 1534 4250 1286 3958 
Q 1038 3666 1038 3163 
Q 1038 2656 1286 2365 
Q 1534 2075 1959 2075 
z
" transform="scale(0.015625)"/>
       <path id="DejaVuSans-40" d="M 2381 1678 
Q 2381 1231 2603 976 
Q 2825 722 3213 722 
Q 3597 722 3817 978 
Q 4038 1234 4038 1678 
Q 4038 2116 3813 2373 
Q 3588 2631 3206 2631 
Q 2828 2631 2604 2375 
Q 2381 2119 2381 1678 
z
M 4084 744 
Q 3897 503 3655 389 
Q 3413 275 3091 275 
Q 2553 275 2217 664 
Q 1881 1053 1881 1678 
Q 1881 2303 2218 2693 
Q 2556 3084 3091 3084 
Q 3413 3084 3656 2967 
Q 3900 2850 4084 2613 
L 4084 3022 
L 4531 3022 
L 4531 722 
Q 4988 791 5245 1139 
Q 5503 1488 5503 2041 
Q 5503 2375 5404 2669 
Q 5306 2963 5106 3213 
Q 4781 3622 4314 3839 
Q 3847 4056 3297 4056 
Q 2913 4056 2559 3954 
Q 2206 3853 1906 3653 
Q 1416 3334 1139 2817 
Q 863 2300 863 1697 
Q 863 1200 1042 765 
Q 1222 331 1563 0 
Q 1891 -325 2322 -495 
Q 2753 -666 3244 -666 
Q 3647 -666 4036 -530 
Q 4425 -394 4750 -141 
L 5031 -488 
Q 4641 -791 4180 -952 
Q 3719 -1113 3244 -1113 
Q 2666 -1113 2153 -908 
Q 1641 -703 1241 -313 
Q 841 78 631 592 
Q 422 1106 422 1697 
Q 422 2266 634 2781 
Q 847 3297 1241 3688 
Q 1644 4084 2172 4295 
Q 2700 4506 3291 4506 
Q 3953 4506 4520 4234 
Q 5088 3963 5472 3463 
Q 5706 3156 5829 2797 
Q 5953 2438 5953 2053 
Q 5953 1231 5456 756 
Q 4959 281 4084 263 
L 4084 744 
z
" transform="scale(0.015625)"/>
       <path id="DejaVuSans-4b" d="M 628 4666 
L 1259 4666 
L 1259 2694 
L 3353 4666 
L 4166 4666 
L 1850 2491 
L 4331 0 
L 3500 0 
L 1259 2247 
L 1259 0 
L 628 0 
L 628 4666 
z
" transform="scale(0.015625)"/>
       <path id="DejaVuSans-29" d="M 513 4856 
L 1013 4856 
Q 1481 4119 1714 3412 
Q 1947 2706 1947 2009 
Q 1947 1309 1714 600 
Q 1481 -109 1013 -844 
L 513 -844 
Q 928 -128 1133 580 
Q 1338 1288 1338 2009 
Q 1338 2731 1133 3434 
Q 928 4138 513 4856 
z
" transform="scale(0.015625)"/>
      </defs>
      <use xlink:href="#DejaVuSans-50"/>
      <use xlink:href="#DejaVuSans-68" transform="translate(60.302734 0)"/>
      <use xlink:href="#DejaVuSans-61" transform="translate(123.681641 0)"/>
      <use xlink:href="#DejaVuSans-73" transform="translate(184.960938 0)"/>
      <use xlink:href="#DejaVuSans-65" transform="translate(237.060547 0)"/>
      <use xlink:href="#DejaVuSans-20" transform="translate(298.583984 0)"/>
      <use xlink:href="#DejaVuSans-35" transform="translate(330.371094 0)"/>
      <use xlink:href="#DejaVuSans-20" transform="translate(393.994141 0)"/>
      <use xlink:href="#DejaVuSans-66" transform="translate(425.78125 0)"/>
      <use xlink:href="#DejaVuSans-69" transform="translate(460.986328 0)"/>
      <use xlink:href="#DejaVuSans-6e" transform="translate(488.769531 0)"/>
      <use xlink:href="#DejaVuSans-61" transform="translate(552.148438 0)"/>
      <use xlink:href="#DejaVuSans-6c" transform="translate(613.427734 0)"/>
      <use xlink:href="#DejaVuSans-20" transform="translate(641.210938 0)"/>
      <use xlink:href="#DejaVuSans-28" transform="translate(672.998047 0)"/>
      <use xlink:href="#DejaVuSans-76" transform="translate(712.011719 0)"/>
      <use xlink:href="#DejaVuSans-61" transform="translate(771.191406 0)"/>
      <use xlink:href="#DejaVuSans-6c" transform="translate(832.470703 0)"/>
      <use xlink:href="#DejaVuSans-3d" transform="translate(860.253906 0)"/>
      <use xlink:href="#DejaVuSans-33" transform="translate(944.042969 0)"/>
      <use xlink:href="#DejaVuSans-2e" transform="translate(1007.666016 0)"/>
      <use xlink:href="#DejaVuSans-31" transform="translate(1039.453125 0)"/>
      <use xlink:href="#DejaVuSans-39" transform="translate(1103.076172 0)"/>
      <use xlink:href="#DejaVuSans-30" transform="translate(1166.699219 0)"/>
      <use xlink:href="#DejaVuSans-20" transform="translate(1230.322266 0)"/>
      <use xlink:href="#DejaVuSans-40" transform="translate(1262.109375 0)"/>
      <use xlink:href="#DejaVuSans-20" transform="translate(1362.109375 0)"/>
      <use xlink:href="#DejaVuSans-34" transform="translate(1393.896484 0)"/>
      <use xlink:href="#DejaVuSans-35" transform="translate(1457.519531 0)"/>
      <use xlink:href="#DejaVuSans-4b" transform="translate(1521.142578 0)"/>
      <use xlink:href="#DejaVuSans-20" transform="translate(1586.71875 0)"/>
      <use xlink:href="#DejaVuSans-73" transform="translate(1618.505859 0)"/>
      <use xlink:href="#DejaVuSans-74" transform="translate(1670.605469 0)"/>
      <use xlink:href="#DejaVuSans-65" transform="translate(1709.814453 0)"/>
      <use xlink:href="#DejaVuSans-70" transform="translate(1771.337891 0)"/>
      <use xlink:href="#DejaVuSans-73" transform="translate(1834.814453 0)"/>
      <use xlink:href="#DejaVuSans-29" transform="translate(1886.914062 0)"/>
     </g>
    </g>
   </g>
  </g>
  <g id="axes_2">
   <g id="patch_8">
    <path d="M 509.26125 326.64351 
L 932.99976 326.64351 
L 932.99976 20.61447 
L 509.26125 20.61447 
z
" style="fill: #ffffff"/>
   </g>
   <g id="matplotlib.axis_3">
    <g id="xtick_6">
     <g id="line2d_25">
      <path d="M 519.13667 326.64351 
L 519.13667 20.61447 
" clip-path="url(#peaaa8f50d4)" style="fill: none; stroke: #b0b0b0; stroke-opacity: 0.3; stroke-width: 0.8; stroke-linecap: square"/>
     </g>
     <g id="line2d_26">
      <g>
       <use xlink:href="#m0615f9ec63" x="519.13667" y="326.64351" style="stroke: #000000; stroke-width: 0.8"/>
      </g>
     </g>
     <g id="text_15">
      <!-- 0 -->
      <g transform="translate(515.95542 341.241947) scale(0.1 -0.1)">
       <use xlink:href="#DejaVuSans-30"/>
      </g>
     </g>
    </g>
    <g id="xtick_7">
     <g id="line2d_27">
      <path d="M 593.705161 326.64351 
L 593.705161 20.61447 
" clip-path="url(#peaaa8f50d4)" style="fill: none; stroke: #b0b0b0; stroke-opacity: 0.3; stroke-width: 0.8; stroke-linecap: square"/>
     </g>
     <g id="line2d_28">
      <g>
       <use xlink:href="#m0615f9ec63" x="593.705161" y="326.64351" style="stroke: #000000; stroke-width: 0.8"/>
      </g>
     </g>
     <g id="text_16">
      <!-- 2000 -->
      <g transform="translate(580.980161 341.241947) scale(0.1 -0.1)">
       <use xlink:href="#DejaVuSans-32"/>
       <use xlink:href="#DejaVuSans-30" transform="translate(63.623047 0)"/>
       <use xlink:href="#DejaVuSans-30" transform="translate(127.246094 0)"/>
       <use xlink:href="#DejaVuSans-30" transform="translate(190.869141 0)"/>
      </g>
     </g>
    </g>
    <g id="xtick_8">
     <g id="line2d_29">
      <path d="M 668.273651 326.64351 
L 668.273651 20.61447 
" clip-path="url(#peaaa8f50d4)" style="fill: none; stroke: #b0b0b0; stroke-opacity: 0.3; stroke-width: 0.8; stroke-linecap: square"/>
     </g>
     <g id="line2d_30">
      <g>
       <use xlink:href="#m0615f9ec63" x="668.273651" y="326.64351" style="stroke: #000000; stroke-width: 0.8"/>
      </g>
     </g>
     <g id="text_17">
      <!-- 4000 -->
      <g transform="translate(655.548651 341.241947) scale(0.1 -0.1)">
       <use xlink:href="#DejaVuSans-34"/>
       <use xlink:href="#DejaVuSans-30" transform="translate(63.623047 0)"/>
       <use xlink:href="#DejaVuSans-30" transform="translate(127.246094 0)"/>
       <use xlink:href="#DejaVuSans-30" transform="translate(190.869141 0)"/>
      </g>
     </g>
    </g>
    <g id="xtick_9">
     <g id="line2d_31">
      <path d="M 742.842142 326.64351 
L 742.842142 20.61447 
" clip-path="url(#peaaa8f50d4)" style="fill: none; stroke: #b0b0b0; stroke-opacity: 0.3; stroke-width: 0.8; stroke-linecap: square"/>
     </g>
     <g id="line2d_32">
      <g>
       <use xlink:href="#m0615f9ec63" x="742.842142" y="326.64351" style="stroke: #000000; stroke-width: 0.8"/>
      </g>
     </g>
     <g id="text_18">
      <!-- 6000 -->
      <g transform="translate(730.117142 341.241947) scale(0.1 -0.1)">
       <use xlink:href="#DejaVuSans-36"/>
       <use xlink:href="#DejaVuSans-30" transform="translate(63.623047 0)"/>
       <use xlink:href="#DejaVuSans-30" transform="translate(127.246094 0)"/>
       <use xlink:href="#DejaVuSans-30" transform="translate(190.869141 0)"/>
      </g>
     </g>
    </g>
    <g id="xtick_10">
     <g id="line2d_33">
      <path d="M 817.410633 326.64351 
L 817.410633 20.61447 
" clip-path="url(#peaaa8f50d4)" style="fill: none; stroke: #b0b0b0; stroke-opacity: 0.3; stroke-width: 0.8; stroke-linecap: square"/>
     </g>
     <g id="line2d_34">
      <g>
       <use xlink:href="#m0615f9ec63" x="817.410633" y="326.64351" style="stroke: #000000; stroke-width: 0.8"/>
      </g>
     </g>
     <g id="text_19">
      <!-- 8000 -->
      <g transform="translate(804.685633 341.241947) scale(0.1 -0.1)">
       <use xlink:href="#DejaVuSans-38"/>
       <use xlink:href="#DejaVuSans-30" transform="translate(63.623047 0)"/>
       <use xlink:href="#DejaVuSans-30" transform="translate(127.246094 0)"/>
       <use xlink:href="#DejaVuSans-30" transform="translate(190.869141 0)"/>
      </g>
     </g>
    </g>
    <g id="xtick_11">
     <g id="line2d_35">
      <path d="M 891.979123 326.64351 
L 891.979123 20.61447 
" clip-path="url(#peaaa8f50d4)" style="fill: none; stroke: #b0b0b0; stroke-opacity: 0.3; stroke-width: 0.8; stroke-linecap: square"/>
     </g>
     <g id="line2d_36">
      <g>
       <use xlink:href="#m0615f9ec63" x="891.979123" y="326.64351" style="stroke: #000000; stroke-width: 0.8"/>
      </g>
     </g>
     <g id="text_20">
      <!-- 10000 -->
      <g transform="translate(876.072873 341.241947) scale(0.1 -0.1)">
       <use xlink:href="#DejaVuSans-31"/>
       <use xlink:href="#DejaVuSans-30" transform="translate(63.623047 0)"/>
       <use xlink:href="#DejaVuSans-30" transform="translate(127.246094 0)"/>
       <use xlink:href="#DejaVuSans-30" transform="translate(190.869141 0)"/>
       <use xlink:href="#DejaVuSans-30" transform="translate(254.492188 0)"/>
      </g>
     </g>
    </g>
    <g id="text_21">
     <!-- wallclock seconds -->
     <g transform="translate(676.330505 354.920073) scale(0.1 -0.1)">
      <defs>
       <path id="DejaVuSans-77" d="M 269 3500 
L 844 3500 
L 1563 769 
L 2278 3500 
L 2956 3500 
L 3675 769 
L 4391 3500 
L 4966 3500 
L 4050 0 
L 3372 0 
L 2619 2869 
L 1863 0 
L 1184 0 
L 269 3500 
z
" transform="scale(0.015625)"/>
       <path id="DejaVuSans-63" d="M 3122 3366 
L 3122 2828 
Q 2878 2963 2633 3030 
Q 2388 3097 2138 3097 
Q 1578 3097 1268 2742 
Q 959 2388 959 1747 
Q 959 1106 1268 751 
Q 1578 397 2138 397 
Q 2388 397 2633 464 
Q 2878 531 3122 666 
L 3122 134 
Q 2881 22 2623 -34 
Q 2366 -91 2075 -91 
Q 1284 -91 818 406 
Q 353 903 353 1747 
Q 353 2603 823 3093 
Q 1294 3584 2113 3584 
Q 2378 3584 2631 3529 
Q 2884 3475 3122 3366 
z
" transform="scale(0.015625)"/>
       <path id="DejaVuSans-6b" d="M 581 4863 
L 1159 4863 
L 1159 1991 
L 2875 3500 
L 3609 3500 
L 1753 1863 
L 3688 0 
L 2938 0 
L 1159 1709 
L 1159 0 
L 581 0 
L 581 4863 
z
" transform="scale(0.015625)"/>
      </defs>
      <use xlink:href="#DejaVuSans-77"/>
      <use xlink:href="#DejaVuSans-61" transform="translate(81.787109 0)"/>
      <use xlink:href="#DejaVuSans-6c" transform="translate(143.066406 0)"/>
      <use xlink:href="#DejaVuSans-6c" transform="translate(170.849609 0)"/>
      <use xlink:href="#DejaVuSans-63" transform="translate(198.632812 0)"/>
      <use xlink:href="#DejaVuSans-6c" transform="translate(253.613281 0)"/>
      <use xlink:href="#DejaVuSans-6f" transform="translate(281.396484 0)"/>
      <use xlink:href="#DejaVuSans-63" transform="translate(342.578125 0)"/>
      <use xlink:href="#DejaVuSans-6b" transform="translate(397.558594 0)"/>
      <use xlink:href="#DejaVuSans-20" transform="translate(455.46875 0)"/>
      <use xlink:href="#DejaVuSans-73" transform="translate(487.255859 0)"/>
      <use xlink:href="#DejaVuSans-65" transform="translate(539.355469 0)"/>
      <use xlink:href="#DejaVuSans-63" transform="translate(600.878906 0)"/>
      <use xlink:href="#DejaVuSans-6f" transform="translate(655.859375 0)"/>
      <use xlink:href="#DejaVuSans-6e" transform="translate(717.041016 0)"/>
      <use xlink:href="#DejaVuSans-64" transform="translate(780.419922 0)"/>
      <use xlink:href="#DejaVuSans-73" transform="translate(843.896484 0)"/>
     </g>
    </g>
   </g>
   <g id="matplotlib.axis_4">
    <g id="ytick_7">
     <g id="line2d_37">
      <path d="M 509.26125 310.409262 
L 932.99976 310.409262 
" clip-path="url(#peaaa8f50d4)" style="fill: none; stroke: #b0b0b0; stroke-opacity: 0.3; stroke-width: 0.8; stroke-linecap: square"/>
     </g>
     <g id="line2d_38">
      <g>
       <use xlink:href="#m9cd7139c5a" x="509.26125" y="310.409262" style="stroke: #000000; stroke-width: 0.8"/>
      </g>
     </g>
     <g id="text_22">
      <!-- 3.2 -->
      <g transform="translate(486.358125 314.20848) scale(0.1 -0.1)">
       <use xlink:href="#DejaVuSans-33"/>
       <use xlink:href="#DejaVuSans-2e" transform="translate(63.623047 0)"/>
       <use xlink:href="#DejaVuSans-32" transform="translate(95.410156 0)"/>
      </g>
     </g>
    </g>
    <g id="ytick_8">
     <g id="line2d_39">
      <path d="M 509.26125 261.89491 
L 932.99976 261.89491 
" clip-path="url(#peaaa8f50d4)" style="fill: none; stroke: #b0b0b0; stroke-opacity: 0.3; stroke-width: 0.8; stroke-linecap: square"/>
     </g>
     <g id="line2d_40">
      <g>
       <use xlink:href="#m9cd7139c5a" x="509.26125" y="261.89491" style="stroke: #000000; stroke-width: 0.8"/>
      </g>
     </g>
     <g id="text_23">
      <!-- 3.4 -->
      <g transform="translate(486.358125 265.694129) scale(0.1 -0.1)">
       <use xlink:href="#DejaVuSans-33"/>
       <use xlink:href="#DejaVuSans-2e" transform="translate(63.623047 0)"/>
       <use xlink:href="#DejaVuSans-34" transform="translate(95.410156 0)"/>
      </g>
     </g>
    </g>
    <g id="ytick_9">
     <g id="line2d_41">
      <path d="M 509.26125 213.380558 
L 932.99976 213.380558 
" clip-path="url(#peaaa8f50d4)" style="fill: none; stroke: #b0b0b0; stroke-opacity: 0.3; stroke-width: 0.8; stroke-linecap: square"/>
     </g>
     <g id="line2d_42">
      <g>
       <use xlink:href="#m9cd7139c5a" x="509.26125" y="213.380558" style="stroke: #000000; stroke-width: 0.8"/>
      </g>
     </g>
     <g id="text_24">
      <!-- 3.6 -->
      <g transform="translate(486.358125 217.179777) scale(0.1 -0.1)">
       <use xlink:href="#DejaVuSans-33"/>
       <use xlink:href="#DejaVuSans-2e" transform="translate(63.623047 0)"/>
       <use xlink:href="#DejaVuSans-36" transform="translate(95.410156 0)"/>
      </g>
     </g>
    </g>
    <g id="ytick_10">
     <g id="line2d_43">
      <path d="M 509.26125 164.866207 
L 932.99976 164.866207 
" clip-path="url(#peaaa8f50d4)" style="fill: none; stroke: #b0b0b0; stroke-opacity: 0.3; stroke-width: 0.8; stroke-linecap: square"/>
     </g>
     <g id="line2d_44">
      <g>
       <use xlink:href="#m9cd7139c5a" x="509.26125" y="164.866207" style="stroke: #000000; stroke-width: 0.8"/>
      </g>
     </g>
     <g id="text_25">
      <!-- 3.8 -->
      <g transform="translate(486.358125 168.665425) scale(0.1 -0.1)">
       <use xlink:href="#DejaVuSans-33"/>
       <use xlink:href="#DejaVuSans-2e" transform="translate(63.623047 0)"/>
       <use xlink:href="#DejaVuSans-38" transform="translate(95.410156 0)"/>
      </g>
     </g>
    </g>
    <g id="ytick_11">
     <g id="line2d_45">
      <path d="M 509.26125 116.351855 
L 932.99976 116.351855 
" clip-path="url(#peaaa8f50d4)" style="fill: none; stroke: #b0b0b0; stroke-opacity: 0.3; stroke-width: 0.8; stroke-linecap: square"/>
     </g>
     <g id="line2d_46">
      <g>
       <use xlink:href="#m9cd7139c5a" x="509.26125" y="116.351855" style="stroke: #000000; stroke-width: 0.8"/>
      </g>
     </g>
     <g id="text_26">
      <!-- 4.0 -->
      <g transform="translate(486.358125 120.151074) scale(0.1 -0.1)">
       <use xlink:href="#DejaVuSans-34"/>
       <use xlink:href="#DejaVuSans-2e" transform="translate(63.623047 0)"/>
       <use xlink:href="#DejaVuSans-30" transform="translate(95.410156 0)"/>
      </g>
     </g>
    </g>
    <g id="ytick_12">
     <g id="line2d_47">
      <path d="M 509.26125 67.837503 
L 932.99976 67.837503 
" clip-path="url(#peaaa8f50d4)" style="fill: none; stroke: #b0b0b0; stroke-opacity: 0.3; stroke-width: 0.8; stroke-linecap: square"/>
     </g>
     <g id="line2d_48">
      <g>
       <use xlink:href="#m9cd7139c5a" x="509.26125" y="67.837503" style="stroke: #000000; stroke-width: 0.8"/>
      </g>
     </g>
     <g id="text_27">
      <!-- 4.2 -->
      <g transform="translate(486.358125 71.636722) scale(0.1 -0.1)">
       <use xlink:href="#DejaVuSans-34"/>
       <use xlink:href="#DejaVuSans-2e" transform="translate(63.623047 0)"/>
       <use xlink:href="#DejaVuSans-32" transform="translate(95.410156 0)"/>
      </g>
     </g>
    </g>
    <g id="text_28">
     <!-- validation loss -->
     <g transform="translate(480.278437 209.493052) rotate(-90) scale(0.1 -0.1)">
      <use xlink:href="#DejaVuSans-76"/>
      <use xlink:href="#DejaVuSans-61" transform="translate(59.179688 0)"/>
      <use xlink:href="#DejaVuSans-6c" transform="translate(120.458984 0)"/>
      <use xlink:href="#DejaVuSans-69" transform="translate(148.242188 0)"/>
      <use xlink:href="#DejaVuSans-64" transform="translate(176.025391 0)"/>
      <use xlink:href="#DejaVuSans-61" transform="translate(239.501953 0)"/>
      <use xlink:href="#DejaVuSans-74" transform="translate(300.78125 0)"/>
      <use xlink:href="#DejaVuSans-69" transform="translate(339.990234 0)"/>
      <use xlink:href="#DejaVuSans-6f" transform="translate(367.773438 0)"/>
      <use xlink:href="#DejaVuSans-6e" transform="translate(428.955078 0)"/>
      <use xlink:href="#DejaVuSans-20" transform="translate(492.333984 0)"/>
      <use xlink:href="#DejaVuSans-6c" transform="translate(524.121094 0)"/>
      <use xlink:href="#DejaVuSans-6f" transform="translate(551.904297 0)"/>
      <use xlink:href="#DejaVuSans-73" transform="translate(613.085938 0)"/>
      <use xlink:href="#DejaVuSans-73" transform="translate(665.185547 0)"/>
     </g>
    </g>
   </g>
   <g id="line2d_49">
    <path d="M 528.522091 34.524881 
L 537.357348 103.154496 
L 546.266311 140.703876 
L 555.085092 158.286448 
L 563.853778 175.33051 
L 572.789409 189.132115 
L 581.525859 193.136732 
L 590.25716 199.558334 
L 598.988877 205.043124 
L 607.72027 213.323554 
L 616.508924 219.254191 
L 625.235962 222.484519 
L 633.964454 228.486957 
L 642.691884 233.325778 
L 651.419628 230.338507 
L 660.209632 238.110749 
L 668.939628 231.287933 
L 677.67012 242.184984 
L 686.402558 238.855687 
L 695.131955 242.025372 
L 703.922813 244.793844 
L 712.653464 252.265054 
L 721.38223 249.973721 
L 730.110909 247.471593 
L 738.83727 252.668693 
L 747.628089 253.128609 
L 756.361497 252.768633 
L 765.094021 253.89174 
L 773.825038 257.574464 
L 782.558589 264.695643 
L 791.352965 256.079009 
L 800.08587 257.540262 
L 808.818615 258.781259 
L 817.551581 260.940147 
L 826.283917 262.103279 
L 835.074139 262.502067 
L 843.807414 267.196558 
L 852.541086 275.28002 
L 861.274232 280.93364 
L 870.007211 285.971612 
L 878.80356 299.674248 
L 887.533572 300.960364 
L 896.268986 302.242356 
L 905.004523 306.364863 
L 913.738919 312.733099 
" clip-path="url(#peaaa8f50d4)" style="fill: none; stroke: #1f77b4; stroke-width: 1.2; stroke-linecap: square"/>
    <g clip-path="url(#peaaa8f50d4)">
     <use xlink:href="#mcf6911b8c2" x="528.522091" y="34.524881" style="fill: #1f77b4; stroke: #1f77b4"/>
     <use xlink:href="#mcf6911b8c2" x="537.357348" y="103.154496" style="fill: #1f77b4; stroke: #1f77b4"/>
     <use xlink:href="#mcf6911b8c2" x="546.266311" y="140.703876" style="fill: #1f77b4; stroke: #1f77b4"/>
     <use xlink:href="#mcf6911b8c2" x="555.085092" y="158.286448" style="fill: #1f77b4; stroke: #1f77b4"/>
     <use xlink:href="#mcf6911b8c2" x="563.853778" y="175.33051" style="fill: #1f77b4; stroke: #1f77b4"/>
     <use xlink:href="#mcf6911b8c2" x="572.789409" y="189.132115" style="fill: #1f77b4; stroke: #1f77b4"/>
     <use xlink:href="#mcf6911b8c2" x="581.525859" y="193.136732" style="fill: #1f77b4; stroke: #1f77b4"/>
     <use xlink:href="#mcf6911b8c2" x="590.25716" y="199.558334" style="fill: #1f77b4; stroke: #1f77b4"/>
     <use xlink:href="#mcf6911b8c2" x="598.988877" y="205.043124" style="fill: #1f77b4; stroke: #1f77b4"/>
     <use xlink:href="#mcf6911b8c2" x="607.72027" y="213.323554" style="fill: #1f77b4; stroke: #1f77b4"/>
     <use xlink:href="#mcf6911b8c2" x="616.508924" y="219.254191" style="fill: #1f77b4; stroke: #1f77b4"/>
     <use xlink:href="#mcf6911b8c2" x="625.235962" y="222.484519" style="fill: #1f77b4; stroke: #1f77b4"/>
     <use xlink:href="#mcf6911b8c2" x="633.964454" y="228.486957" style="fill: #1f77b4; stroke: #1f77b4"/>
     <use xlink:href="#mcf6911b8c2" x="642.691884" y="233.325778" style="fill: #1f77b4; stroke: #1f77b4"/>
     <use xlink:href="#mcf6911b8c2" x="651.419628" y="230.338507" style="fill: #1f77b4; stroke: #1f77b4"/>
     <use xlink:href="#mcf6911b8c2" x="660.209632" y="238.110749" style="fill: #1f77b4; stroke: #1f77b4"/>
     <use xlink:href="#mcf6911b8c2" x="668.939628" y="231.287933" style="fill: #1f77b4; stroke: #1f77b4"/>
     <use xlink:href="#mcf6911b8c2" x="677.67012" y="242.184984" style="fill: #1f77b4; stroke: #1f77b4"/>
     <use xlink:href="#mcf6911b8c2" x="686.402558" y="238.855687" style="fill: #1f77b4; stroke: #1f77b4"/>
     <use xlink:href="#mcf6911b8c2" x="695.131955" y="242.025372" style="fill: #1f77b4; stroke: #1f77b4"/>
     <use xlink:href="#mcf6911b8c2" x="703.922813" y="244.793844" style="fill: #1f77b4; stroke: #1f77b4"/>
     <use xlink:href="#mcf6911b8c2" x="712.653464" y="252.265054" style="fill: #1f77b4; stroke: #1f77b4"/>
     <use xlink:href="#mcf6911b8c2" x="721.38223" y="249.973721" style="fill: #1f77b4; stroke: #1f77b4"/>
     <use xlink:href="#mcf6911b8c2" x="730.110909" y="247.471593" style="fill: #1f77b4; stroke: #1f77b4"/>
     <use xlink:href="#mcf6911b8c2" x="738.83727" y="252.668693" style="fill: #1f77b4; stroke: #1f77b4"/>
     <use xlink:href="#mcf6911b8c2" x="747.628089" y="253.128609" style="fill: #1f77b4; stroke: #1f77b4"/>
     <use xlink:href="#mcf6911b8c2" x="756.361497" y="252.768633" style="fill: #1f77b4; stroke: #1f77b4"/>
     <use xlink:href="#mcf6911b8c2" x="765.094021" y="253.89174" style="fill: #1f77b4; stroke: #1f77b4"/>
     <use xlink:href="#mcf6911b8c2" x="773.825038" y="257.574464" style="fill: #1f77b4; stroke: #1f77b4"/>
     <use xlink:href="#mcf6911b8c2" x="782.558589" y="264.695643" style="fill: #1f77b4; stroke: #1f77b4"/>
     <use xlink:href="#mcf6911b8c2" x="791.352965" y="256.079009" style="fill: #1f77b4; stroke: #1f77b4"/>
     <use xlink:href="#mcf6911b8c2" x="800.08587" y="257.540262" style="fill: #1f77b4; stroke: #1f77b4"/>
     <use xlink:href="#mcf6911b8c2" x="808.818615" y="258.781259" style="fill: #1f77b4; stroke: #1f77b4"/>
     <use xlink:href="#mcf6911b8c2" x="817.551581" y="260.940147" style="fill: #1f77b4; stroke: #1f77b4"/>
     <use xlink:href="#mcf6911b8c2" x="826.283917" y="262.103279" style="fill: #1f77b4; stroke: #1f77b4"/>
     <use xlink:href="#mcf6911b8c2" x="835.074139" y="262.502067" style="fill: #1f77b4; stroke: #1f77b4"/>
     <use xlink:href="#mcf6911b8c2" x="843.807414" y="267.196558" style="fill: #1f77b4; stroke: #1f77b4"/>
     <use xlink:href="#mcf6911b8c2" x="852.541086" y="275.28002" style="fill: #1f77b4; stroke: #1f77b4"/>
     <use xlink:href="#mcf6911b8c2" x="861.274232" y="280.93364" style="fill: #1f77b4; stroke: #1f77b4"/>
     <use xlink:href="#mcf6911b8c2" x="870.007211" y="285.971612" style="fill: #1f77b4; stroke: #1f77b4"/>
     <use xlink:href="#mcf6911b8c2" x="878.80356" y="299.674248" style="fill: #1f77b4; stroke: #1f77b4"/>
     <use xlink:href="#mcf6911b8c2" x="887.533572" y="300.960364" style="fill: #1f77b4; stroke: #1f77b4"/>
     <use xlink:href="#mcf6911b8c2" x="896.268986" y="302.242356" style="fill: #1f77b4; stroke: #1f77b4"/>
     <use xlink:href="#mcf6911b8c2" x="905.004523" y="306.364863" style="fill: #1f77b4; stroke: #1f77b4"/>
     <use xlink:href="#mcf6911b8c2" x="913.738919" y="312.733099" style="fill: #1f77b4; stroke: #1f77b4"/>
    </g>
   </g>
   <g id="patch_9">
    <path d="M 509.26125 326.64351 
L 509.26125 20.61447 
" style="fill: none; stroke: #000000; stroke-width: 0.8; stroke-linejoin: miter; stroke-linecap: square"/>
   </g>
   <g id="patch_10">
    <path d="M 932.99976 326.64351 
L 932.99976 20.61447 
" style="fill: none; stroke: #000000; stroke-width: 0.8; stroke-linejoin: miter; stroke-linecap: square"/>
   </g>
   <g id="patch_11">
    <path d="M 509.26125 326.64351 
L 932.99976 326.64351 
" style="fill: none; stroke: #000000; stroke-width: 0.8; stroke-linejoin: miter; stroke-linecap: square"/>
   </g>
   <g id="patch_12">
    <path d="M 509.26125 20.61447 
L 932.99976 20.61447 
" style="fill: none; stroke: #000000; stroke-width: 0.8; stroke-linejoin: miter; stroke-linecap: square"/>
   </g>
   <g id="legend_2">
    <g id="patch_13">
     <path d="M 747.72726 38.75697 
L 927.39976 38.75697 
Q 928.99976 38.75697 928.99976 37.15697 
L 928.99976 26.21447 
Q 928.99976 24.61447 927.39976 24.61447 
L 747.72726 24.61447 
Q 746.12726 24.61447 746.12726 26.21447 
L 746.12726 37.15697 
Q 746.12726 38.75697 747.72726 38.75697 
z
" style="fill: #ffffff; opacity: 0.8; stroke: #cccccc; stroke-linejoin: miter"/>
    </g>
    <g id="line2d_50">
     <path d="M 749.32726 31.09322 
L 757.32726 31.09322 
L 765.32726 31.09322 
" style="fill: none; stroke: #1f77b4; stroke-width: 1.2; stroke-linecap: square"/>
     <g>
      <use xlink:href="#mcf6911b8c2" x="757.32726" y="31.09322" style="fill: #1f77b4; stroke: #1f77b4"/>
     </g>
    </g>
    <g id="text_29">
     <!-- Phase 5 final (val=3.190 @ 45K steps) -->
     <g transform="translate(771.72726 33.89322) scale(0.08 -0.08)">
      <use xlink:href="#DejaVuSans-50"/>
      <use xlink:href="#DejaVuSans-68" transform="translate(60.302734 0)"/>
      <use xlink:href="#DejaVuSans-61" transform="translate(123.681641 0)"/>
      <use xlink:href="#DejaVuSans-73" transform="translate(184.960938 0)"/>
      <use xlink:href="#DejaVuSans-65" transform="translate(237.060547 0)"/>
      <use xlink:href="#DejaVuSans-20" transform="translate(298.583984 0)"/>
      <use xlink:href="#DejaVuSans-35" transform="translate(330.371094 0)"/>
      <use xlink:href="#DejaVuSans-20" transform="translate(393.994141 0)"/>
      <use xlink:href="#DejaVuSans-66" transform="translate(425.78125 0)"/>
      <use xlink:href="#DejaVuSans-69" transform="translate(460.986328 0)"/>
      <use xlink:href="#DejaVuSans-6e" transform="translate(488.769531 0)"/>
      <use xlink:href="#DejaVuSans-61" transform="translate(552.148438 0)"/>
      <use xlink:href="#DejaVuSans-6c" transform="translate(613.427734 0)"/>
      <use xlink:href="#DejaVuSans-20" transform="translate(641.210938 0)"/>
      <use xlink:href="#DejaVuSans-28" transform="translate(672.998047 0)"/>
      <use xlink:href="#DejaVuSans-76" transform="translate(712.011719 0)"/>
      <use xlink:href="#DejaVuSans-61" transform="translate(771.191406 0)"/>
      <use xlink:href="#DejaVuSans-6c" transform="translate(832.470703 0)"/>
      <use xlink:href="#DejaVuSans-3d" transform="translate(860.253906 0)"/>
      <use xlink:href="#DejaVuSans-33" transform="translate(944.042969 0)"/>
      <use xlink:href="#DejaVuSans-2e" transform="translate(1007.666016 0)"/>
      <use xlink:href="#DejaVuSans-31" transform="translate(1039.453125 0)"/>
      <use xlink:href="#DejaVuSans-39" transform="translate(1103.076172 0)"/>
      <use xlink:href="#DejaVuSans-30" transform="translate(1166.699219 0)"/>
      <use xlink:href="#DejaVuSans-20" transform="translate(1230.322266 0)"/>
      <use xlink:href="#DejaVuSans-40" transform="translate(1262.109375 0)"/>
      <use xlink:href="#DejaVuSans-20" transform="translate(1362.109375 0)"/>
      <use xlink:href="#DejaVuSans-34" transform="translate(1393.896484 0)"/>
      <use xlink:href="#DejaVuSans-35" transform="translate(1457.519531 0)"/>
      <use xlink:href="#DejaVuSans-4b" transform="translate(1521.142578 0)"/>
      <use xlink:href="#DejaVuSans-20" transform="translate(1586.71875 0)"/>
      <use xlink:href="#DejaVuSans-73" transform="translate(1618.505859 0)"/>
      <use xlink:href="#DejaVuSans-74" transform="translate(1670.605469 0)"/>
      <use xlink:href="#DejaVuSans-65" transform="translate(1709.814453 0)"/>
      <use xlink:href="#DejaVuSans-70" transform="translate(1771.337891 0)"/>
      <use xlink:href="#DejaVuSans-73" transform="translate(1834.814453 0)"/>
      <use xlink:href="#DejaVuSans-29" transform="translate(1886.914062 0)"/>
     </g>
    </g>
   </g>
  </g>
  <g id="text_30">
   <!-- 7.5 Leaderboard speedrun: d=1024 L=8 / Muon-mixed + WSD / 1.106B tokens / 10584s A100 -->
   <g transform="translate(185.933438 12.118365) scale(0.12 -0.12)">
    <defs>
     <path id="DejaVuSans-37" d="M 525 4666 
L 3525 4666 
L 3525 4397 
L 1831 0 
L 1172 0 
L 2766 4134 
L 525 4134 
L 525 4666 
z
" transform="scale(0.015625)"/>
     <path id="DejaVuSans-4c" d="M 628 4666 
L 1259 4666 
L 1259 531 
L 3531 531 
L 3531 0 
L 628 0 
L 628 4666 
z
" transform="scale(0.015625)"/>
     <path id="DejaVuSans-72" d="M 2631 2963 
Q 2534 3019 2420 3045 
Q 2306 3072 2169 3072 
Q 1681 3072 1420 2755 
Q 1159 2438 1159 1844 
L 1159 0 
L 581 0 
L 581 3500 
L 1159 3500 
L 1159 2956 
Q 1341 3275 1631 3429 
Q 1922 3584 2338 3584 
Q 2397 3584 2469 3576 
Q 2541 3569 2628 3553 
L 2631 2963 
z
" transform="scale(0.015625)"/>
     <path id="DejaVuSans-62" d="M 3116 1747 
Q 3116 2381 2855 2742 
Q 2594 3103 2138 3103 
Q 1681 3103 1420 2742 
Q 1159 2381 1159 1747 
Q 1159 1113 1420 752 
Q 1681 391 2138 391 
Q 2594 391 2855 752 
Q 3116 1113 3116 1747 
z
M 1159 2969 
Q 1341 3281 1617 3432 
Q 1894 3584 2278 3584 
Q 2916 3584 3314 3078 
Q 3713 2572 3713 1747 
Q 3713 922 3314 415 
Q 2916 -91 2278 -91 
Q 1894 -91 1617 61 
Q 1341 213 1159 525 
L 1159 0 
L 581 0 
L 581 4863 
L 1159 4863 
L 1159 2969 
z
" transform="scale(0.015625)"/>
     <path id="DejaVuSans-75" d="M 544 1381 
L 544 3500 
L 1119 3500 
L 1119 1403 
Q 1119 906 1312 657 
Q 1506 409 1894 409 
Q 2359 409 2629 706 
Q 2900 1003 2900 1516 
L 2900 3500 
L 3475 3500 
L 3475 0 
L 2900 0 
L 2900 538 
Q 2691 219 2414 64 
Q 2138 -91 1772 -91 
Q 1169 -91 856 284 
Q 544 659 544 1381 
z
M 1991 3584 
L 1991 3584 
z
" transform="scale(0.015625)"/>
     <path id="DejaVuSans-3a" d="M 750 794 
L 1409 794 
L 1409 0 
L 750 0 
L 750 794 
z
M 750 3309 
L 1409 3309 
L 1409 2516 
L 750 2516 
L 750 3309 
z
" transform="scale(0.015625)"/>
     <path id="DejaVuSans-2f" d="M 1625 4666 
L 2156 4666 
L 531 -594 
L 0 -594 
L 1625 4666 
z
" transform="scale(0.015625)"/>
     <path id="DejaVuSans-4d" d="M 628 4666 
L 1569 4666 
L 2759 1491 
L 3956 4666 
L 4897 4666 
L 4897 0 
L 4281 0 
L 4281 4097 
L 3078 897 
L 2444 897 
L 1241 4097 
L 1241 0 
L 628 0 
L 628 4666 
z
" transform="scale(0.015625)"/>
     <path id="DejaVuSans-2d" d="M 313 2009 
L 1997 2009 
L 1997 1497 
L 313 1497 
L 313 2009 
z
" transform="scale(0.015625)"/>
     <path id="DejaVuSans-6d" d="M 3328 2828 
Q 3544 3216 3844 3400 
Q 4144 3584 4550 3584 
Q 5097 3584 5394 3201 
Q 5691 2819 5691 2113 
L 5691 0 
L 5113 0 
L 5113 2094 
Q 5113 2597 4934 2840 
Q 4756 3084 4391 3084 
Q 3944 3084 3684 2787 
Q 3425 2491 3425 1978 
L 3425 0 
L 2847 0 
L 2847 2094 
Q 2847 2600 2669 2842 
Q 2491 3084 2119 3084 
Q 1678 3084 1418 2786 
Q 1159 2488 1159 1978 
L 1159 0 
L 581 0 
L 581 3500 
L 1159 3500 
L 1159 2956 
Q 1356 3278 1631 3431 
Q 1906 3584 2284 3584 
Q 2666 3584 2933 3390 
Q 3200 3197 3328 2828 
z
" transform="scale(0.015625)"/>
     <path id="DejaVuSans-78" d="M 3513 3500 
L 2247 1797 
L 3578 0 
L 2900 0 
L 1881 1375 
L 863 0 
L 184 0 
L 1544 1831 
L 300 3500 
L 978 3500 
L 1906 2253 
L 2834 3500 
L 3513 3500 
z
" transform="scale(0.015625)"/>
     <path id="DejaVuSans-2b" d="M 2944 4013 
L 2944 2272 
L 4684 2272 
L 4684 1741 
L 2944 1741 
L 2944 0 
L 2419 0 
L 2419 1741 
L 678 1741 
L 678 2272 
L 2419 2272 
L 2419 4013 
L 2944 4013 
z
" transform="scale(0.015625)"/>
     <path id="DejaVuSans-57" d="M 213 4666 
L 850 4666 
L 1831 722 
L 2809 4666 
L 3519 4666 
L 4500 722 
L 5478 4666 
L 6119 4666 
L 4947 0 
L 4153 0 
L 3169 4050 
L 2175 0 
L 1381 0 
L 213 4666 
z
" transform="scale(0.015625)"/>
     <path id="DejaVuSans-53" d="M 3425 4513 
L 3425 3897 
Q 3066 4069 2747 4153 
Q 2428 4238 2131 4238 
Q 1616 4238 1336 4038 
Q 1056 3838 1056 3469 
Q 1056 3159 1242 3001 
Q 1428 2844 1947 2747 
L 2328 2669 
Q 3034 2534 3370 2195 
Q 3706 1856 3706 1288 
Q 3706 609 3251 259 
Q 2797 -91 1919 -91 
Q 1588 -91 1214 -16 
Q 841 59 441 206 
L 441 856 
Q 825 641 1194 531 
Q 1563 422 1919 422 
Q 2459 422 2753 634 
Q 3047 847 3047 1241 
Q 3047 1584 2836 1778 
Q 2625 1972 2144 2069 
L 1759 2144 
Q 1053 2284 737 2584 
Q 422 2884 422 3419 
Q 422 4038 858 4394 
Q 1294 4750 2059 4750 
Q 2388 4750 2728 4690 
Q 3069 4631 3425 4513 
z
" transform="scale(0.015625)"/>
     <path id="DejaVuSans-44" d="M 1259 4147 
L 1259 519 
L 2022 519 
Q 2988 519 3436 956 
Q 3884 1394 3884 2338 
Q 3884 3275 3436 3711 
Q 2988 4147 2022 4147 
L 1259 4147 
z
M 628 4666 
L 1925 4666 
Q 3281 4666 3915 4102 
Q 4550 3538 4550 2338 
Q 4550 1131 3912 565 
Q 3275 0 1925 0 
L 628 0 
L 628 4666 
z
" transform="scale(0.015625)"/>
     <path id="DejaVuSans-42" d="M 1259 2228 
L 1259 519 
L 2272 519 
Q 2781 519 3026 730 
Q 3272 941 3272 1375 
Q 3272 1813 3026 2020 
Q 2781 2228 2272 2228 
L 1259 2228 
z
M 1259 4147 
L 1259 2741 
L 2194 2741 
Q 2656 2741 2882 2914 
Q 3109 3088 3109 3444 
Q 3109 3797 2882 3972 
Q 2656 4147 2194 4147 
L 1259 4147 
z
M 628 4666 
L 2241 4666 
Q 2963 4666 3353 4366 
Q 3744 4066 3744 3513 
Q 3744 3084 3544 2831 
Q 3344 2578 2956 2516 
Q 3422 2416 3680 2098 
Q 3938 1781 3938 1306 
Q 3938 681 3513 340 
Q 3088 0 2303 0 
L 628 0 
L 628 4666 
z
" transform="scale(0.015625)"/>
     <path id="DejaVuSans-41" d="M 2188 4044 
L 1331 1722 
L 3047 1722 
L 2188 4044 
z
M 1831 4666 
L 2547 4666 
L 4325 0 
L 3669 0 
L 3244 1197 
L 1141 1197 
L 716 0 
L 50 0 
L 1831 4666 
z
" transform="scale(0.015625)"/>
    </defs>
    <use xlink:href="#DejaVuSans-37"/>
    <use xlink:href="#DejaVuSans-2e" transform="translate(63.623047 0)"/>
    <use xlink:href="#DejaVuSans-35" transform="translate(95.410156 0)"/>
    <use xlink:href="#DejaVuSans-20" transform="translate(159.033203 0)"/>
    <use xlink:href="#DejaVuSans-4c" transform="translate(190.820312 0)"/>
    <use xlink:href="#DejaVuSans-65" transform="translate(244.783203 0)"/>
    <use xlink:href="#DejaVuSans-61" transform="translate(306.306641 0)"/>
    <use xlink:href="#DejaVuSans-64" transform="translate(367.585938 0)"/>
    <use xlink:href="#DejaVuSans-65" transform="translate(431.0625 0)"/>
    <use xlink:href="#DejaVuSans-72" transform="translate(492.585938 0)"/>
    <use xlink:href="#DejaVuSans-62" transform="translate(533.699219 0)"/>
    <use xlink:href="#DejaVuSans-6f" transform="translate(597.175781 0)"/>
    <use xlink:href="#DejaVuSans-61" transform="translate(658.357422 0)"/>
    <use xlink:href="#DejaVuSans-72" transform="translate(719.636719 0)"/>
    <use xlink:href="#DejaVuSans-64" transform="translate(759 0)"/>
    <use xlink:href="#DejaVuSans-20" transform="translate(822.476562 0)"/>
    <use xlink:href="#DejaVuSans-73" transform="translate(854.263672 0)"/>
    <use xlink:href="#DejaVuSans-70" transform="translate(906.363281 0)"/>
    <use xlink:href="#DejaVuSans-65" transform="translate(969.839844 0)"/>
    <use xlink:href="#DejaVuSans-65" transform="translate(1031.363281 0)"/>
    <use xlink:href="#DejaVuSans-64" transform="translate(1092.886719 0)"/>
    <use xlink:href="#DejaVuSans-72" transform="translate(1156.363281 0)"/>
    <use xlink:href="#DejaVuSans-75" transform="translate(1197.476562 0)"/>
    <use xlink:href="#DejaVuSans-6e" transform="translate(1260.855469 0)"/>
    <use xlink:href="#DejaVuSans-3a" transform="translate(1324.234375 0)"/>
    <use xlink:href="#DejaVuSans-20" transform="translate(1357.925781 0)"/>
    <use xlink:href="#DejaVuSans-64" transform="translate(1389.712891 0)"/>
    <use xlink:href="#DejaVuSans-3d" transform="translate(1453.189453 0)"/>
    <use xlink:href="#DejaVuSans-31" transform="translate(1536.978516 0)"/>
    <use xlink:href="#DejaVuSans-30" transform="translate(1600.601562 0)"/>
    <use xlink:href="#DejaVuSans-32" transform="translate(1664.224609 0)"/>
    <use xlink:href="#DejaVuSans-34" transform="translate(1727.847656 0)"/>
    <use xlink:href="#DejaVuSans-20" transform="translate(1791.470703 0)"/>
    <use xlink:href="#DejaVuSans-4c" transform="translate(1823.257812 0)"/>
    <use xlink:href="#DejaVuSans-3d" transform="translate(1878.970703 0)"/>
    <use xlink:href="#DejaVuSans-38" transform="translate(1962.759766 0)"/>
    <use xlink:href="#DejaVuSans-20" transform="translate(2026.382812 0)"/>
    <use xlink:href="#DejaVuSans-2f" transform="translate(2058.169922 0)"/>
    <use xlink:href="#DejaVuSans-20" transform="translate(2091.861328 0)"/>
    <use xlink:href="#DejaVuSans-4d" transform="translate(2123.648438 0)"/>
    <use xlink:href="#DejaVuSans-75" transform="translate(2209.927734 0)"/>
    <use xlink:href="#DejaVuSans-6f" transform="translate(2273.306641 0)"/>
    <use xlink:href="#DejaVuSans-6e" transform="translate(2334.488281 0)"/>
    <use xlink:href="#DejaVuSans-2d" transform="translate(2397.867188 0)"/>
    <use xlink:href="#DejaVuSans-6d" transform="translate(2433.951172 0)"/>
    <use xlink:href="#DejaVuSans-69" transform="translate(2531.363281 0)"/>
    <use xlink:href="#DejaVuSans-78" transform="translate(2559.146484 0)"/>
    <use xlink:href="#DejaVuSans-65" transform="translate(2615.201172 0)"/>
    <use xlink:href="#DejaVuSans-64" transform="translate(2676.724609 0)"/>
    <use xlink:href="#DejaVuSans-20" transform="translate(2740.201172 0)"/>
    <use xlink:href="#DejaVuSans-2b" transform="translate(2771.988281 0)"/>
    <use xlink:href="#DejaVuSans-20" transform="translate(2855.777344 0)"/>
    <use xlink:href="#DejaVuSans-57" transform="translate(2887.564453 0)"/>
    <use xlink:href="#DejaVuSans-53" transform="translate(2986.441406 0)"/>
    <use xlink:href="#DejaVuSans-44" transform="translate(3049.917969 0)"/>
    <use xlink:href="#DejaVuSans-20" transform="translate(3126.919922 0)"/>
    <use xlink:href="#DejaVuSans-2f" transform="translate(3158.707031 0)"/>
    <use xlink:href="#DejaVuSans-20" transform="translate(3192.398438 0)"/>
    <use xlink:href="#DejaVuSans-31" transform="translate(3224.185547 0)"/>
    <use xlink:href="#DejaVuSans-2e" transform="translate(3287.808594 0)"/>
    <use xlink:href="#DejaVuSans-31" transform="translate(3319.595703 0)"/>
    <use xlink:href="#DejaVuSans-30" transform="translate(3383.21875 0)"/>
    <use xlink:href="#DejaVuSans-36" transform="translate(3446.841797 0)"/>
    <use xlink:href="#DejaVuSans-42" transform="translate(3510.464844 0)"/>
    <use xlink:href="#DejaVuSans-20" transform="translate(3579.068359 0)"/>
    <use xlink:href="#DejaVuSans-74" transform="translate(3610.855469 0)"/>
    <use xlink:href="#DejaVuSans-6f" transform="translate(3650.064453 0)"/>
    <use xlink:href="#DejaVuSans-6b" transform="translate(3711.246094 0)"/>
    <use xlink:href="#DejaVuSans-65" transform="translate(3765.53125 0)"/>
    <use xlink:href="#DejaVuSans-6e" transform="translate(3827.054688 0)"/>
    <use xlink:href="#DejaVuSans-73" transform="translate(3890.433594 0)"/>
    <use xlink:href="#DejaVuSans-20" transform="translate(3942.533203 0)"/>
    <use xlink:href="#DejaVuSans-2f" transform="translate(3974.320312 0)"/>
    <use xlink:href="#DejaVuSans-20" transform="translate(4008.011719 0)"/>
    <use xlink:href="#DejaVuSans-31" transform="translate(4039.798828 0)"/>
    <use xlink:href="#DejaVuSans-30" transform="translate(4103.421875 0)"/>
    <use xlink:href="#DejaVuSans-35" transform="translate(4167.044922 0)"/>
    <use xlink:href="#DejaVuSans-38" transform="translate(4230.667969 0)"/>
    <use xlink:href="#DejaVuSans-34" transform="translate(4294.291016 0)"/>
    <use xlink:href="#DejaVuSans-73" transform="translate(4357.914062 0)"/>
    <use xlink:href="#DejaVuSans-20" transform="translate(4410.013672 0)"/>
    <use xlink:href="#DejaVuSans-41" transform="translate(4441.800781 0)"/>
    <use xlink:href="#DejaVuSans-31" transform="translate(4510.208984 0)"/>
    <use xlink:href="#DejaVuSans-30" transform="translate(4573.832031 0)"/>
    <use xlink:href="#DejaVuSans-30" transform="translate(4637.455078 0)"/>
   </g>
  </g>
 </g>
 <defs>
  <clipPath id="pa846d2677e">
   <rect x="39.58149" y="20.61447" width="423.73851" height="306.02904"/>
  </clipPath>
  <clipPath id="peaaa8f50d4">
   <rect x="509.26125" y="20.61447" width="423.73851" height="306.02904"/>
  </clipPath>
 </defs>
</svg>
